STARTFONT 2.1
COMMENT
COMMENT Converted from OpenType font "Ubuntu-Regular.ttf" by "otf2bdf 3.0".
COMMENT
FONT -FreeType-Ubuntu-Medium-R-Normal--17-120-100-100-P-93-ISO10646-1
SIZE 12 100 100
FONTBOUNDINGBOX 62 21 -3 -3
STARTPROPERTIES 19
FOUNDRY "FreeType"
FAMILY_NAME "Ubuntu"
WEIGHT_NAME "Medium"
SLANT "R"
SETWIDTH_NAME "Normal"
ADD_STYLE_NAME ""
PIXEL_SIZE 17
POINT_SIZE 120
RESOLUTION_X 100
RESOLUTION_Y 100
SPACING "P"
AVERAGE_WIDTH 93
CHARSET_REGISTRY "ISO10646"
CHARSET_ENCODING "1"
FONT_ASCENT 15
FONT_DESCENT 3
COPYRIGHT "Copyright 2011 Canonical Ltd.  Licensed under the Ubuntu Font Licence 1.0"
_OTF_FONTFILE "Ubuntu-Regular.ttf"
_OTF_PSNAME "Ubuntu-Regular"
ENDPROPERTIES
CHARS 1194
STARTCHAR 0000
ENCODING 0
SWIDTH 0 0
DWIDTH 0 0
BBX 0 0 0 0
BITMAP
ENDCHAR
STARTCHAR 0008
ENCODING 8
SWIDTH 0 0
DWIDTH 0 0
BBX 0 0 0 0
BITMAP
ENDCHAR
STARTCHAR 0009
ENCODING 9
SWIDTH 240 0
DWIDTH 4 0
BBX 0 0 0 0
BITMAP
ENDCHAR
STARTCHAR 000D
ENCODING 13
SWIDTH 240 0
DWIDTH 4 0
BBX 0 0 0 0
BITMAP
ENDCHAR
STARTCHAR 001D
ENCODING 29
SWIDTH 0 0
DWIDTH 0 0
BBX 0 0 0 0
BITMAP
ENDCHAR
STARTCHAR 0020
ENCODING 32
SWIDTH 240 0
DWIDTH 4 0
BBX 0 0 0 0
BITMAP
ENDCHAR
STARTCHAR 0021
ENCODING 33
SWIDTH 300 0
DWIDTH 5 0
BBX 2 12 1 0
BITMAP
C0
C0
C0
40
40
40
40
40
00
00
C0
C0
ENDCHAR
STARTCHAR 0022
ENCODING 34
SWIDTH 420 0
DWIDTH 7 0
BBX 5 4 1 9
BITMAP
D8
D8
D8
C8
ENDCHAR
STARTCHAR 0023
ENCODING 35
SWIDTH 660 0
DWIDTH 11 0
BBX 10 12 1 0
BITMAP
1180
1100
1100
FFC0
3300
2300
2200
2200
FFC0
6600
4600
4400
ENDCHAR
STARTCHAR 0024
ENCODING 36
SWIDTH 600 0
DWIDTH 10 0
BBX 7 15 1 -2
BITMAP
18
18
3C
62
C0
C0
60
18
06
02
02
86
7C
18
18
ENDCHAR
STARTCHAR 0025
ENCODING 37
SWIDTH 900 0
DWIDTH 15 0
BBX 13 12 1 0
BITMAP
7040
C8C0
8980
8900
CB00
7200
06F0
0490
0D98
0998
1890
30F0
ENDCHAR
STARTCHAR 0026
ENCODING 38
SWIDTH 660 0
DWIDTH 11 0
BBX 10 12 1 0
BITMAP
3C00
6600
6600
6600
2400
3800
5080
CC80
8780
8300
C780
7CC0
ENDCHAR
STARTCHAR 0027
ENCODING 39
SWIDTH 240 0
DWIDTH 4 0
BBX 2 4 1 9
BITMAP
C0
C0
C0
C0
ENDCHAR
STARTCHAR 0028
ENCODING 40
SWIDTH 360 0
DWIDTH 6 0
BBX 4 16 1 -3
BITMAP
10
30
20
60
40
40
C0
C0
C0
C0
40
40
60
20
30
10
ENDCHAR
STARTCHAR 0029
ENCODING 41
SWIDTH 360 0
DWIDTH 6 0
BBX 3 16 1 -3
BITMAP
80
80
C0
40
60
60
20
20
20
20
60
60
40
C0
80
80
ENDCHAR
STARTCHAR 002A
ENCODING 42
SWIDTH 480 0
DWIDTH 8 0
BBX 6 7 1 5
BITMAP
30
30
94
7C
30
68
48
ENDCHAR
STARTCHAR 002B
ENCODING 43
SWIDTH 600 0
DWIDTH 10 0
BBX 8 7 1 1
BITMAP
10
10
10
FF
10
10
10
ENDCHAR
STARTCHAR 002C
ENCODING 44
SWIDTH 240 0
DWIDTH 4 0
BBX 2 5 1 -3
BITMAP
C0
C0
C0
C0
80
ENDCHAR
STARTCHAR 002D
ENCODING 45
SWIDTH 300 0
DWIDTH 5 0
BBX 5 1 0 4
BITMAP
F8
ENDCHAR
STARTCHAR 002E
ENCODING 46
SWIDTH 240 0
DWIDTH 4 0
BBX 2 2 1 0
BITMAP
C0
C0
ENDCHAR
STARTCHAR 002F
ENCODING 47
SWIDTH 420 0
DWIDTH 7 0
BBX 7 16 0 -3
BITMAP
06
04
0C
0C
08
18
18
10
30
30
20
60
40
C0
C0
80
ENDCHAR
STARTCHAR 0030
ENCODING 48
SWIDTH 600 0
DWIDTH 10 0
BBX 8 12 1 0
BITMAP
3C
66
C2
C2
C3
C3
C3
C3
C2
C2
66
3C
ENDCHAR
STARTCHAR 0031
ENCODING 49
SWIDTH 600 0
DWIDTH 10 0
BBX 4 12 2 0
BITMAP
10
30
D0
90
10
10
10
10
10
10
10
10
ENDCHAR
STARTCHAR 0032
ENCODING 50
SWIDTH 600 0
DWIDTH 10 0
BBX 7 12 1 0
BITMAP
38
4C
86
06
06
04
0C
38
60
60
C0
FE
ENDCHAR
STARTCHAR 0033
ENCODING 51
SWIDTH 600 0
DWIDTH 10 0
BBX 7 12 1 0
BITMAP
78
04
06
06
0C
38
06
06
02
06
86
78
ENDCHAR
STARTCHAR 0034
ENCODING 52
SWIDTH 600 0
DWIDTH 10 0
BBX 8 12 1 0
BITMAP
0C
0C
14
34
24
44
C4
84
FF
04
04
04
ENDCHAR
STARTCHAR 0035
ENCODING 53
SWIDTH 600 0
DWIDTH 10 0
BBX 7 12 1 0
BITMAP
7E
60
60
40
40
7C
06
02
02
02
86
78
ENDCHAR
STARTCHAR 0036
ENCODING 54
SWIDTH 600 0
DWIDTH 10 0
BBX 8 12 1 0
BITMAP
0E
30
60
60
C0
FC
C6
C3
C3
C3
66
3C
ENDCHAR
STARTCHAR 0037
ENCODING 55
SWIDTH 600 0
DWIDTH 10 0
BBX 8 12 1 0
BITMAP
FF
06
04
0C
08
18
18
10
30
30
30
20
ENDCHAR
STARTCHAR 0038
ENCODING 56
SWIDTH 600 0
DWIDTH 10 0
BBX 8 12 1 0
BITMAP
3C
46
C2
C2
46
3C
46
C2
C3
C3
C6
3C
ENDCHAR
STARTCHAR 0039
ENCODING 57
SWIDTH 600 0
DWIDTH 10 0
BBX 8 12 1 0
BITMAP
3C
46
C2
C2
C3
C3
7E
06
06
0C
18
70
ENDCHAR
STARTCHAR 003A
ENCODING 58
SWIDTH 240 0
DWIDTH 4 0
BBX 2 9 1 0
BITMAP
C0
C0
00
00
00
00
00
C0
C0
ENDCHAR
STARTCHAR 003B
ENCODING 59
SWIDTH 240 0
DWIDTH 4 0
BBX 2 12 1 -3
BITMAP
C0
C0
00
00
00
00
00
C0
C0
C0
C0
80
ENDCHAR
STARTCHAR 003C
ENCODING 60
SWIDTH 600 0
DWIDTH 10 0
BBX 8 7 1 1
BITMAP
03
0C
30
C0
30
0C
03
ENDCHAR
STARTCHAR 003D
ENCODING 61
SWIDTH 600 0
DWIDTH 10 0
BBX 8 4 1 3
BITMAP
FF
00
00
FF
ENDCHAR
STARTCHAR 003E
ENCODING 62
SWIDTH 600 0
DWIDTH 10 0
BBX 8 7 1 1
BITMAP
80
70
0C
03
0C
70
80
ENDCHAR
STARTCHAR 003F
ENCODING 63
SWIDTH 420 0
DWIDTH 7 0
BBX 5 12 1 0
BITMAP
F0
18
08
08
18
30
60
40
00
00
60
60
ENDCHAR
STARTCHAR 0040
ENCODING 64
SWIDTH 960 0
DWIDTH 16 0
BBX 14 14 1 -2
BITMAP
0FC0
1830
2018
47C8
CC4C
C844
C844
C844
C84C
CC48
47F0
6000
1800
0FC0
ENDCHAR
STARTCHAR 0041
ENCODING 65
SWIDTH 660 0
DWIDTH 11 0
BBX 11 12 0 0
BITMAP
0600
0E00
0A00
1B00
1900
1180
3180
3080
7FC0
60C0
4060
C060
ENDCHAR
STARTCHAR 0042
ENCODING 66
SWIDTH 660 0
DWIDTH 11 0
BBX 9 12 1 0
BITMAP
FE00
C300
C100
C100
C300
FE00
C380
C180
C180
C180
C300
FE00
ENDCHAR
STARTCHAR 0043
ENCODING 67
SWIDTH 660 0
DWIDTH 11 0
BBX 9 12 1 0
BITMAP
1F80
3080
6000
C000
C000
C000
C000
C000
C000
6000
3080
1F80
ENDCHAR
STARTCHAR 0044
ENCODING 68
SWIDTH 720 0
DWIDTH 12 0
BBX 10 12 1 0
BITMAP
FE00
C300
C180
C0C0
C0C0
C0C0
C0C0
C0C0
C0C0
C180
C300
FE00
ENDCHAR
STARTCHAR 0045
ENCODING 69
SWIDTH 600 0
DWIDTH 10 0
BBX 8 12 1 0
BITMAP
FF
C0
C0
C0
C0
FE
C0
C0
C0
C0
C0
FF
ENDCHAR
STARTCHAR 0046
ENCODING 70
SWIDTH 540 0
DWIDTH 9 0
BBX 8 12 1 0
BITMAP
FF
C0
C0
C0
C0
FE
C0
C0
C0
C0
C0
C0
ENDCHAR
STARTCHAR 0047
ENCODING 71
SWIDTH 660 0
DWIDTH 11 0
BBX 9 12 1 0
BITMAP
1F80
3080
6000
C000
C000
C000
C080
C080
C080
6080
3080
1F80
ENDCHAR
STARTCHAR 0048
ENCODING 72
SWIDTH 720 0
DWIDTH 12 0
BBX 10 12 1 0
BITMAP
C0C0
C0C0
C0C0
C0C0
C0C0
FFC0
C0C0
C0C0
C0C0
C0C0
C0C0
C0C0
ENDCHAR
STARTCHAR 0049
ENCODING 73
SWIDTH 300 0
DWIDTH 5 0
BBX 2 12 1 0
BITMAP
C0
C0
C0
C0
C0
C0
C0
C0
C0
C0
C0
C0
ENDCHAR
STARTCHAR 004A
ENCODING 74
SWIDTH 540 0
DWIDTH 9 0
BBX 6 12 1 0
BITMAP
0C
0C
0C
0C
0C
0C
0C
0C
0C
0C
0C
F8
ENDCHAR
STARTCHAR 004B
ENCODING 75
SWIDTH 660 0
DWIDTH 11 0
BBX 9 12 1 0
BITMAP
C180
C300
C600
CC00
D800
F000
D800
CC00
C600
C300
C180
C180
ENDCHAR
STARTCHAR 004C
ENCODING 76
SWIDTH 540 0
DWIDTH 9 0
BBX 8 12 1 0
BITMAP
C0
C0
C0
C0
C0
C0
C0
C0
C0
C0
C0
FF
ENDCHAR
STARTCHAR 004D
ENCODING 77
SWIDTH 900 0
DWIDTH 15 0
BBX 13 12 1 0
BITMAP
6030
6050
5050
5050
4890
4890
C910
C510
C510
C218
C018
C018
ENDCHAR
STARTCHAR 004E
ENCODING 78
SWIDTH 720 0
DWIDTH 12 0
BBX 10 12 1 0
BITMAP
C0C0
E0C0
D0C0
D0C0
C8C0
C4C0
C4C0
C2C0
C1C0
C1C0
C0C0
C0C0
ENDCHAR
STARTCHAR 004F
ENCODING 79
SWIDTH 780 0
DWIDTH 13 0
BBX 11 12 1 0
BITMAP
1F00
31C0
6040
C060
C060
C060
C060
C060
C060
6040
31C0
1F00
ENDCHAR
STARTCHAR 0050
ENCODING 80
SWIDTH 600 0
DWIDTH 10 0
BBX 9 12 1 0
BITMAP
FE00
C300
C180
C180
C180
C180
C300
FE00
C000
C000
C000
C000
ENDCHAR
STARTCHAR 0051
ENCODING 81
SWIDTH 780 0
DWIDTH 13 0
BBX 11 15 1 -3
BITMAP
1F00
31C0
6040
C060
C060
C060
C060
C060
C060
6040
31C0
1F00
0600
0300
01C0
ENDCHAR
STARTCHAR 0052
ENCODING 82
SWIDTH 660 0
DWIDTH 11 0
BBX 9 12 1 0
BITMAP
FE00
C300
C180
C180
C180
C300
FE00
C600
C200
C300
C180
C180
ENDCHAR
STARTCHAR 0053
ENCODING 83
SWIDTH 540 0
DWIDTH 9 0
BBX 7 12 1 0
BITMAP
7C
C2
C0
C0
C0
70
0C
06
02
02
86
FC
ENDCHAR
STARTCHAR 0054
ENCODING 84
SWIDTH 600 0
DWIDTH 10 0
BBX 9 12 0 0
BITMAP
FF80
0C00
0C00
0C00
0C00
0C00
0C00
0C00
0C00
0C00
0C00
0C00
ENDCHAR
STARTCHAR 0055
ENCODING 85
SWIDTH 720 0
DWIDTH 12 0
BBX 9 12 1 0
BITMAP
C080
C080
C080
C080
C080
C080
C080
C080
C080
4180
6100
1E00
ENDCHAR
STARTCHAR 0056
ENCODING 86
SWIDTH 660 0
DWIDTH 11 0
BBX 11 12 0 0
BITMAP
C060
6040
60C0
60C0
3080
3180
1180
1900
1B00
0E00
0E00
0600
ENDCHAR
STARTCHAR 0057
ENCODING 87
SWIDTH 960 0
DWIDTH 16 0
BBX 14 12 1 0
BITMAP
8004
830C
C30C
C70C
C588
4488
4498
6CD8
6850
3850
3870
3030
ENDCHAR
STARTCHAR 0058
ENCODING 88
SWIDTH 660 0
DWIDTH 11 0
BBX 9 12 1 0
BITMAP
C180
4300
6200
3600
1C00
1800
1C00
3600
2600
6300
C180
8180
ENDCHAR
STARTCHAR 0059
ENCODING 89
SWIDTH 600 0
DWIDTH 10 0
BBX 10 12 0 0
BITMAP
C0C0
6180
2180
3300
1A00
1E00
0C00
0C00
0C00
0C00
0C00
0C00
ENDCHAR
STARTCHAR 005A
ENCODING 90
SWIDTH 600 0
DWIDTH 10 0
BBX 8 12 1 0
BITMAP
FF
03
06
0C
0C
18
30
30
60
C0
C0
FF
ENDCHAR
STARTCHAR 005B
ENCODING 91
SWIDTH 360 0
DWIDTH 6 0
BBX 3 16 2 -3
BITMAP
E0
80
80
80
80
80
80
80
80
80
80
80
80
80
80
E0
ENDCHAR
STARTCHAR 005C
ENCODING 92
SWIDTH 420 0
DWIDTH 7 0
BBX 7 16 0 -3
BITMAP
80
C0
C0
40
60
20
30
30
10
18
18
08
0C
0C
04
06
ENDCHAR
STARTCHAR 005D
ENCODING 93
SWIDTH 360 0
DWIDTH 6 0
BBX 4 16 0 -3
BITMAP
F0
30
30
30
30
30
30
30
30
30
30
30
30
30
30
F0
ENDCHAR
STARTCHAR 005E
ENCODING 94
SWIDTH 600 0
DWIDTH 10 0
BBX 8 6 1 6
BITMAP
18
38
24
46
C2
83
ENDCHAR
STARTCHAR 005F
ENCODING 95
SWIDTH 480 0
DWIDTH 8 0
BBX 8 1 0 -3
BITMAP
FF
ENDCHAR
STARTCHAR 0060
ENCODING 96
SWIDTH 360 0
DWIDTH 6 0
BBX 2 3 2 10
BITMAP
80
C0
40
ENDCHAR
STARTCHAR 0061
ENCODING 97
SWIDTH 540 0
DWIDTH 9 0
BBX 7 9 1 0
BITMAP
78
04
06
7E
C6
86
86
C6
7E
ENDCHAR
STARTCHAR 0062
ENCODING 98
SWIDTH 600 0
DWIDTH 10 0
BBX 8 13 1 0
BITMAP
C0
C0
C0
C0
DC
E6
C3
C3
C3
C3
C3
C6
FC
ENDCHAR
STARTCHAR 0063
ENCODING 99
SWIDTH 480 0
DWIDTH 8 0
BBX 7 9 1 0
BITMAP
3C
60
C0
C0
C0
C0
C0
60
3E
ENDCHAR
STARTCHAR 0064
ENCODING 100
SWIDTH 600 0
DWIDTH 10 0
BBX 8 13 1 0
BITMAP
03
03
03
03
3B
67
C3
C3
C3
C3
C3
63
3F
ENDCHAR
STARTCHAR 0065
ENCODING 101
SWIDTH 600 0
DWIDTH 10 0
BBX 8 9 1 0
BITMAP
3C
66
C2
C3
FF
C0
C0
60
3E
ENDCHAR
STARTCHAR 0066
ENCODING 102
SWIDTH 420 0
DWIDTH 7 0
BBX 6 13 1 0
BITMAP
3C
60
C0
C0
F8
C0
C0
C0
C0
C0
C0
C0
C0
ENDCHAR
STARTCHAR 0067
ENCODING 103
SWIDTH 600 0
DWIDTH 10 0
BBX 7 12 1 -3
BITMAP
3E
62
C2
C2
C2
C2
C2
66
3A
02
06
FC
ENDCHAR
STARTCHAR 0068
ENCODING 104
SWIDTH 600 0
DWIDTH 10 0
BBX 8 13 1 0
BITMAP
C0
C0
C0
C0
FC
C6
C2
C2
C3
C3
C3
C3
C3
ENDCHAR
STARTCHAR 0069
ENCODING 105
SWIDTH 240 0
DWIDTH 4 0
BBX 2 13 1 0
BITMAP
C0
C0
00
00
C0
C0
C0
C0
C0
C0
C0
C0
C0
ENDCHAR
STARTCHAR 006A
ENCODING 106
SWIDTH 240 0
DWIDTH 4 0
BBX 4 16 -1 -3
BITMAP
30
30
00
00
30
30
30
30
30
30
30
30
30
30
30
E0
ENDCHAR
STARTCHAR 006B
ENCODING 107
SWIDTH 540 0
DWIDTH 9 0
BBX 7 13 1 0
BITMAP
C0
C0
C0
C0
C6
CC
D8
F0
F0
D8
CC
C6
C6
ENDCHAR
STARTCHAR 006C
ENCODING 108
SWIDTH 300 0
DWIDTH 5 0
BBX 3 13 1 0
BITMAP
C0
C0
C0
C0
C0
C0
C0
C0
C0
C0
C0
C0
60
ENDCHAR
STARTCHAR 006D
ENCODING 109
SWIDTH 900 0
DWIDTH 15 0
BBX 12 9 1 0
BITMAP
FDE0
C630
C610
C210
C210
C210
C210
C210
C210
ENDCHAR
STARTCHAR 006E
ENCODING 110
SWIDTH 600 0
DWIDTH 10 0
BBX 8 9 1 0
BITMAP
FC
C6
C2
C2
C3
C3
C3
C3
C3
ENDCHAR
STARTCHAR 006F
ENCODING 111
SWIDTH 600 0
DWIDTH 10 0
BBX 8 9 1 0
BITMAP
3C
66
C3
C3
C1
C3
C3
66
3C
ENDCHAR
STARTCHAR 0070
ENCODING 112
SWIDTH 600 0
DWIDTH 10 0
BBX 8 12 1 -3
BITMAP
FC
C6
C3
C3
C3
C3
C3
E6
DC
C0
C0
C0
ENDCHAR
STARTCHAR 0071
ENCODING 113
SWIDTH 600 0
DWIDTH 10 0
BBX 8 12 1 -3
BITMAP
3F
43
C3
C3
C3
C3
C3
67
3B
03
03
03
ENDCHAR
STARTCHAR 0072
ENCODING 114
SWIDTH 420 0
DWIDTH 7 0
BBX 5 9 1 0
BITMAP
78
C0
C0
C0
C0
C0
C0
C0
C0
ENDCHAR
STARTCHAR 0073
ENCODING 115
SWIDTH 480 0
DWIDTH 8 0
BBX 6 9 1 0
BITMAP
78
C0
80
C0
30
18
0C
0C
F8
ENDCHAR
STARTCHAR 0074
ENCODING 116
SWIDTH 420 0
DWIDTH 7 0
BBX 6 12 1 0
BITMAP
C0
C0
C0
F8
C0
C0
C0
C0
C0
C0
40
7C
ENDCHAR
STARTCHAR 0075
ENCODING 117
SWIDTH 600 0
DWIDTH 10 0
BBX 7 9 1 0
BITMAP
C2
C2
C2
C2
C2
C2
C2
62
3E
ENDCHAR
STARTCHAR 0076
ENCODING 118
SWIDTH 540 0
DWIDTH 9 0
BBX 8 9 0 0
BITMAP
C3
43
63
62
26
34
3C
1C
18
ENDCHAR
STARTCHAR 0077
ENCODING 119
SWIDTH 780 0
DWIDTH 13 0
BBX 13 9 0 0
BITMAP
C218
4318
6510
6530
2530
25A0
38E0
18E0
18C0
ENDCHAR
STARTCHAR 0078
ENCODING 120
SWIDTH 540 0
DWIDTH 9 0
BBX 7 9 1 0
BITMAP
C6
CC
68
38
30
38
6C
C4
86
ENDCHAR
STARTCHAR 0079
ENCODING 121
SWIDTH 480 0
DWIDTH 8 0
BBX 8 12 0 -3
BITMAP
C3
43
62
62
26
36
14
1C
08
08
10
E0
ENDCHAR
STARTCHAR 007A
ENCODING 122
SWIDTH 480 0
DWIDTH 8 0
BBX 6 9 1 0
BITMAP
FC
0C
18
30
30
60
C0
C0
FC
ENDCHAR
STARTCHAR 007B
ENCODING 123
SWIDTH 360 0
DWIDTH 6 0
BBX 5 16 1 -3
BITMAP
38
60
60
60
60
60
40
C0
40
60
60
60
60
60
60
38
ENDCHAR
STARTCHAR 007C
ENCODING 124
SWIDTH 300 0
DWIDTH 5 0
BBX 1 16 2 -3
BITMAP
80
80
80
80
80
80
80
80
80
80
80
80
80
80
80
80
ENDCHAR
STARTCHAR 007D
ENCODING 125
SWIDTH 360 0
DWIDTH 6 0
BBX 5 16 0 -3
BITMAP
C0
20
20
20
20
20
30
18
30
20
20
20
20
20
20
C0
ENDCHAR
STARTCHAR 007E
ENCODING 126
SWIDTH 600 0
DWIDTH 10 0
BBX 8 2 1 4
BITMAP
F1
8E
ENDCHAR
STARTCHAR 00A0
ENCODING 160
SWIDTH 240 0
DWIDTH 4 0
BBX 0 0 0 0
BITMAP
ENDCHAR
STARTCHAR 00A1
ENCODING 161
SWIDTH 300 0
DWIDTH 5 0
BBX 2 12 1 -3
BITMAP
C0
C0
00
00
40
40
40
40
40
C0
C0
C0
ENDCHAR
STARTCHAR 00A2
ENCODING 162
SWIDTH 600 0
DWIDTH 10 0
BBX 7 13 1 -2
BITMAP
08
08
1E
60
40
40
C0
40
40
60
1E
08
08
ENDCHAR
STARTCHAR 00A3
ENCODING 163
SWIDTH 600 0
DWIDTH 10 0
BBX 8 12 1 0
BITMAP
1E
30
20
20
20
20
FC
20
20
60
60
7F
ENDCHAR
STARTCHAR 00A4
ENCODING 164
SWIDTH 600 0
DWIDTH 10 0
BBX 7 9 1 2
BITMAP
82
FA
66
42
42
42
66
FA
82
ENDCHAR
STARTCHAR 00A5
ENCODING 165
SWIDTH 600 0
DWIDTH 10 0
BBX 8 12 1 0
BITMAP
83
C3
46
64
2C
38
FE
18
18
FE
18
18
ENDCHAR
STARTCHAR 00A6
ENCODING 166
SWIDTH 300 0
DWIDTH 5 0
BBX 1 16 2 -3
BITMAP
80
80
80
80
80
80
80
00
00
00
80
80
80
80
80
80
ENDCHAR
STARTCHAR 00A7
ENCODING 167
SWIDTH 480 0
DWIDTH 8 0
BBX 7 14 1 -1
BITMAP
7C
40
C0
40
78
CC
86
86
64
38
0C
04
0C
F8
ENDCHAR
STARTCHAR 00A8
ENCODING 168
SWIDTH 360 0
DWIDTH 6 0
BBX 5 2 1 10
BITMAP
98
98
ENDCHAR
STARTCHAR 00A9
ENCODING 169
SWIDTH 840 0
DWIDTH 14 0
BBX 12 12 1 0
BITMAP
1F00
20C0
4060
4F20
9830
9030
9030
9830
4F20
4060
20C0
1F00
ENDCHAR
STARTCHAR 00AA
ENCODING 170
SWIDTH 420 0
DWIDTH 7 0
BBX 5 6 1 6
BITMAP
F0
18
F8
88
88
F8
ENDCHAR
STARTCHAR 00AB
ENCODING 171
SWIDTH 480 0
DWIDTH 8 0
BBX 7 7 1 1
BITMAP
26
64
CC
98
CC
64
26
ENDCHAR
STARTCHAR 00AC
ENCODING 172
SWIDTH 600 0
DWIDTH 10 0
BBX 8 5 1 1
BITMAP
FF
03
03
03
03
ENDCHAR
STARTCHAR 00AD
ENCODING 173
SWIDTH 300 0
DWIDTH 5 0
BBX 5 1 0 4
BITMAP
F8
ENDCHAR
STARTCHAR 00AE
ENCODING 174
SWIDTH 840 0
DWIDTH 14 0
BBX 12 12 1 0
BITMAP
1F00
20C0
4060
4F20
8930
8930
8F30
8B30
49A0
4060
20C0
1F00
ENDCHAR
STARTCHAR 00AF
ENCODING 175
SWIDTH 360 0
DWIDTH 6 0
BBX 5 1 1 11
BITMAP
F8
ENDCHAR
STARTCHAR 00B0
ENCODING 176
SWIDTH 360 0
DWIDTH 6 0
BBX 5 5 0 8
BITMAP
70
48
C8
48
70
ENDCHAR
STARTCHAR 00B1
ENCODING 177
SWIDTH 600 0
DWIDTH 10 0
BBX 8 10 1 0
BITMAP
10
10
10
FF
10
10
10
00
00
FF
ENDCHAR
STARTCHAR 00B2
ENCODING 178
SWIDTH 360 0
DWIDTH 6 0
BBX 4 7 1 5
BITMAP
E0
10
10
20
40
80
F0
ENDCHAR
STARTCHAR 00B3
ENCODING 179
SWIDTH 360 0
DWIDTH 6 0
BBX 4 7 1 5
BITMAP
E0
10
10
60
10
10
F0
ENDCHAR
STARTCHAR 00B4
ENCODING 180
SWIDTH 360 0
DWIDTH 6 0
BBX 2 3 3 10
BITMAP
40
C0
80
ENDCHAR
STARTCHAR 00B5
ENCODING 181
SWIDTH 600 0
DWIDTH 10 0
BBX 8 12 1 -3
BITMAP
C3
C3
C3
C3
C3
C3
C3
E3
DF
C0
C0
C0
ENDCHAR
STARTCHAR 00B6
ENCODING 182
SWIDTH 660 0
DWIDTH 11 0
BBX 8 15 1 -3
BITMAP
3F
79
F9
F9
F9
F9
79
09
09
09
09
09
09
09
09
ENDCHAR
STARTCHAR 00B7
ENCODING 183
SWIDTH 240 0
DWIDTH 4 0
BBX 2 2 1 4
BITMAP
C0
C0
ENDCHAR
STARTCHAR 00B8
ENCODING 184
SWIDTH 360 0
DWIDTH 6 0
BBX 3 3 1 -3
BITMAP
40
20
E0
ENDCHAR
STARTCHAR 00B9
ENCODING 185
SWIDTH 360 0
DWIDTH 6 0
BBX 3 7 1 5
BITMAP
60
A0
20
20
20
20
20
ENDCHAR
STARTCHAR 00BA
ENCODING 186
SWIDTH 480 0
DWIDTH 8 0
BBX 6 6 1 6
BITMAP
78
C8
84
84
C8
78
ENDCHAR
STARTCHAR 00BB
ENCODING 187
SWIDTH 480 0
DWIDTH 8 0
BBX 7 7 1 1
BITMAP
98
C8
6C
26
6C
C8
98
ENDCHAR
STARTCHAR 00BC
ENCODING 188
SWIDTH 900 0
DWIDTH 15 0
BBX 13 12 1 0
BITMAP
6040
A0C0
2080
2180
2300
2218
2638
0458
0C58
08F8
1818
1018
ENDCHAR
STARTCHAR 00BD
ENCODING 189
SWIDTH 900 0
DWIDTH 15 0
BBX 13 12 1 0
BITMAP
60C0
A080
2180
2100
2300
2270
2418
0C18
0810
1860
1040
3078
ENDCHAR
STARTCHAR 00BE
ENCODING 190
SWIDTH 900 0
DWIDTH 15 0
BBX 13 12 1 0
BITMAP
E040
10C0
1080
6180
1100
1318
F238
0658
0458
08F8
1818
1018
ENDCHAR
STARTCHAR 00BF
ENCODING 191
SWIDTH 420 0
DWIDTH 7 0
BBX 6 12 0 -3
BITMAP
18
18
00
00
18
18
30
60
40
C0
60
3C
ENDCHAR
STARTCHAR 00C0
ENCODING 192
SWIDTH 660 0
DWIDTH 11 0
BBX 11 16 0 0
BITMAP
0800
0C00
0400
0000
0600
0E00
0A00
1B00
1900
1180
3180
3080
7FC0
60C0
4060
C060
ENDCHAR
STARTCHAR 00C1
ENCODING 193
SWIDTH 660 0
DWIDTH 11 0
BBX 11 16 0 0
BITMAP
0200
0600
0400
0000
0600
0E00
0A00
1B00
1900
1180
3180
3080
7FC0
60C0
4060
C060
ENDCHAR
STARTCHAR 00C2
ENCODING 194
SWIDTH 660 0
DWIDTH 11 0
BBX 11 16 0 0
BITMAP
0400
0A00
1100
0000
0600
0E00
0A00
1B00
1900
1180
3180
3080
7FC0
60C0
4060
C060
ENDCHAR
STARTCHAR 00C3
ENCODING 195
SWIDTH 660 0
DWIDTH 11 0
BBX 11 16 0 0
BITMAP
0D00
1300
0000
0000
0600
0E00
0A00
1B00
1900
1180
3180
3080
7FC0
60C0
4060
C060
ENDCHAR
STARTCHAR 00C4
ENCODING 196
SWIDTH 660 0
DWIDTH 11 0
BBX 11 15 0 0
BITMAP
1B00
1B00
0000
0600
0E00
0A00
1B00
1900
1180
3180
3080
7FC0
60C0
4060
C060
ENDCHAR
STARTCHAR 00C5
ENCODING 197
SWIDTH 660 0
DWIDTH 11 0
BBX 11 15 0 0
BITMAP
0600
0A00
0A00
0E00
0E00
0A00
1B00
1900
1180
3180
3080
7FC0
60C0
4060
C060
ENDCHAR
STARTCHAR 00C6
ENCODING 198
SWIDTH 960 0
DWIDTH 16 0
BBX 15 12 0 0
BITMAP
01FE
03C0
02C0
06C0
0CC0
08FC
18C0
10C0
3FC0
60C0
60C0
C0FE
ENDCHAR
STARTCHAR 00C7
ENCODING 199
SWIDTH 660 0
DWIDTH 11 0
BBX 9 15 1 -3
BITMAP
1F80
3080
6000
C000
C000
C000
C000
C000
C000
6000
3080
1F80
0C00
0400
1C00
ENDCHAR
STARTCHAR 00C8
ENCODING 200
SWIDTH 600 0
DWIDTH 10 0
BBX 8 16 1 0
BITMAP
10
18
08
00
FF
C0
C0
C0
C0
FE
C0
C0
C0
C0
C0
FF
ENDCHAR
STARTCHAR 00C9
ENCODING 201
SWIDTH 600 0
DWIDTH 10 0
BBX 8 16 1 0
BITMAP
04
0C
08
00
FF
C0
C0
C0
C0
FE
C0
C0
C0
C0
C0
FF
ENDCHAR
STARTCHAR 00CA
ENCODING 202
SWIDTH 600 0
DWIDTH 10 0
BBX 8 16 1 0
BITMAP
08
1C
24
00
FF
C0
C0
C0
C0
FE
C0
C0
C0
C0
C0
FF
ENDCHAR
STARTCHAR 00CB
ENCODING 203
SWIDTH 600 0
DWIDTH 10 0
BBX 8 15 1 0
BITMAP
26
26
00
FF
C0
C0
C0
C0
FE
C0
C0
C0
C0
C0
FF
ENDCHAR
STARTCHAR 00CC
ENCODING 204
SWIDTH 300 0
DWIDTH 5 0
BBX 2 16 1 0
BITMAP
80
C0
40
00
C0
C0
C0
C0
C0
C0
C0
C0
C0
C0
C0
C0
ENDCHAR
STARTCHAR 00CD
ENCODING 205
SWIDTH 300 0
DWIDTH 5 0
BBX 3 16 1 0
BITMAP
20
60
40
00
C0
C0
C0
C0
C0
C0
C0
C0
C0
C0
C0
C0
ENDCHAR
STARTCHAR 00CE
ENCODING 206
SWIDTH 300 0
DWIDTH 5 0
BBX 4 16 0 0
BITMAP
20
50
90
00
60
60
60
60
60
60
60
60
60
60
60
60
ENDCHAR
STARTCHAR 00CF
ENCODING 207
SWIDTH 300 0
DWIDTH 5 0
BBX 5 15 0 0
BITMAP
D8
D8
00
60
60
60
60
60
60
60
60
60
60
60
60
ENDCHAR
STARTCHAR 00D0
ENCODING 208
SWIDTH 720 0
DWIDTH 12 0
BBX 11 12 0 0
BITMAP
3F00
21C0
2040
2060
2060
FC20
2020
2060
2060
2040
21C0
3F00
ENDCHAR
STARTCHAR 00D1
ENCODING 209
SWIDTH 720 0
DWIDTH 12 0
BBX 10 16 1 0
BITMAP
1900
2600
0000
0000
C0C0
E0C0
D0C0
D0C0
C8C0
C4C0
C4C0
C2C0
C1C0
C1C0
C0C0
C0C0
ENDCHAR
STARTCHAR 00D2
ENCODING 210
SWIDTH 780 0
DWIDTH 13 0
BBX 11 16 1 0
BITMAP
0800
0C00
0400
0000
1F00
31C0
6040
C060
C060
C060
C060
C060
C060
6040
31C0
1F00
ENDCHAR
STARTCHAR 00D3
ENCODING 211
SWIDTH 780 0
DWIDTH 13 0
BBX 11 16 1 0
BITMAP
0200
0600
0400
0000
1F00
31C0
6040
C060
C060
C060
C060
C060
C060
6040
31C0
1F00
ENDCHAR
STARTCHAR 00D4
ENCODING 212
SWIDTH 780 0
DWIDTH 13 0
BBX 11 16 1 0
BITMAP
0400
0A00
1100
0000
1F00
31C0
6040
C060
C060
C060
C060
C060
C060
6040
31C0
1F00
ENDCHAR
STARTCHAR 00D5
ENCODING 213
SWIDTH 780 0
DWIDTH 13 0
BBX 11 16 1 0
BITMAP
1D00
1300
0000
0000
1F00
31C0
6040
C060
C060
C060
C060
C060
C060
6040
31C0
1F00
ENDCHAR
STARTCHAR 00D6
ENCODING 214
SWIDTH 780 0
DWIDTH 13 0
BBX 11 15 1 0
BITMAP
1B00
1B00
0000
1F00
31C0
6040
C060
C060
C060
C060
C060
C060
6040
31C0
1F00
ENDCHAR
STARTCHAR 00D7
ENCODING 215
SWIDTH 600 0
DWIDTH 10 0
BBX 6 5 2 3
BITMAP
CC
78
30
78
CC
ENDCHAR
STARTCHAR 00D8
ENCODING 216
SWIDTH 780 0
DWIDTH 13 0
BBX 11 12 1 0
BITMAP
1F60
30C0
61C0
C160
C360
C660
CC60
C860
D860
7040
71C0
DF00
ENDCHAR
STARTCHAR 00D9
ENCODING 217
SWIDTH 720 0
DWIDTH 12 0
BBX 9 16 1 0
BITMAP
1000
1800
0400
0000
C080
C080
C080
C080
C080
C080
C080
C080
C080
4180
6100
1E00
ENDCHAR
STARTCHAR 00DA
ENCODING 218
SWIDTH 720 0
DWIDTH 12 0
BBX 9 16 1 0
BITMAP
0400
0C00
0800
0000
C080
C080
C080
C080
C080
C080
C080
C080
C080
4180
6100
1E00
ENDCHAR
STARTCHAR 00DB
ENCODING 219
SWIDTH 720 0
DWIDTH 12 0
BBX 9 16 1 0
BITMAP
0800
1400
1200
0000
C080
C080
C080
C080
C080
C080
C080
C080
C080
4180
6100
1E00
ENDCHAR
STARTCHAR 00DC
ENCODING 220
SWIDTH 720 0
DWIDTH 12 0
BBX 9 15 1 0
BITMAP
3200
3200
0000
C080
C080
C080
C080
C080
C080
C080
C080
C080
4180
6100
1E00
ENDCHAR
STARTCHAR 00DD
ENCODING 221
SWIDTH 600 0
DWIDTH 10 0
BBX 10 16 0 0
BITMAP
0200
0E00
0800
0000
C0C0
6180
2180
3300
1A00
1E00
0C00
0C00
0C00
0C00
0C00
0C00
ENDCHAR
STARTCHAR 00DE
ENCODING 222
SWIDTH 600 0
DWIDTH 10 0
BBX 9 12 1 0
BITMAP
C000
C000
FE00
C300
C100
C180
C180
C180
C300
FE00
C000
C000
ENDCHAR
STARTCHAR 00DF
ENCODING 223
SWIDTH 660 0
DWIDTH 11 0
BBX 9 13 1 0
BITMAP
3C00
6200
4200
C600
C400
CC00
C800
CE00
C300
C180
C180
C180
DF00
ENDCHAR
STARTCHAR 00E0
ENCODING 224
SWIDTH 540 0
DWIDTH 9 0
BBX 7 13 1 0
BITMAP
20
30
10
00
78
04
06
7E
C6
86
86
C6
7E
ENDCHAR
STARTCHAR 00E1
ENCODING 225
SWIDTH 540 0
DWIDTH 9 0
BBX 7 13 1 0
BITMAP
08
18
10
00
78
04
06
7E
C6
86
86
C6
7E
ENDCHAR
STARTCHAR 00E2
ENCODING 226
SWIDTH 540 0
DWIDTH 9 0
BBX 7 13 1 0
BITMAP
10
28
44
00
78
04
06
7E
C6
86
86
C6
7E
ENDCHAR
STARTCHAR 00E3
ENCODING 227
SWIDTH 540 0
DWIDTH 9 0
BBX 7 13 1 0
BITMAP
74
5C
00
00
78
04
06
7E
C6
86
86
C6
7E
ENDCHAR
STARTCHAR 00E4
ENCODING 228
SWIDTH 540 0
DWIDTH 9 0
BBX 7 12 1 0
BITMAP
6C
6C
00
78
04
06
7E
C6
86
86
C6
7E
ENDCHAR
STARTCHAR 00E5
ENCODING 229
SWIDTH 540 0
DWIDTH 9 0
BBX 7 14 1 0
BITMAP
38
28
28
38
00
78
04
06
7E
C6
86
86
C6
7E
ENDCHAR
STARTCHAR 00E6
ENCODING 230
SWIDTH 900 0
DWIDTH 15 0
BBX 13 9 1 0
BITMAP
79E0
0F30
0610
0618
7FF8
C600
8600
C700
7DF0
ENDCHAR
STARTCHAR 00E7
ENCODING 231
SWIDTH 480 0
DWIDTH 8 0
BBX 7 12 1 -3
BITMAP
3C
60
C0
C0
C0
C0
C0
60
3E
18
08
38
ENDCHAR
STARTCHAR 00E8
ENCODING 232
SWIDTH 600 0
DWIDTH 10 0
BBX 8 13 1 0
BITMAP
20
30
08
00
3C
66
C2
C3
FF
C0
C0
60
3E
ENDCHAR
STARTCHAR 00E9
ENCODING 233
SWIDTH 600 0
DWIDTH 10 0
BBX 8 13 1 0
BITMAP
08
18
10
00
3C
66
C2
C3
FF
C0
C0
60
3E
ENDCHAR
STARTCHAR 00EA
ENCODING 234
SWIDTH 600 0
DWIDTH 10 0
BBX 8 13 1 0
BITMAP
10
28
24
00
3C
66
C2
C3
FF
C0
C0
60
3E
ENDCHAR
STARTCHAR 00EB
ENCODING 235
SWIDTH 600 0
DWIDTH 10 0
BBX 8 12 1 0
BITMAP
64
64
00
3C
66
C2
C3
FF
C0
C0
60
3E
ENDCHAR
STARTCHAR 00EC
ENCODING 236
SWIDTH 240 0
DWIDTH 4 0
BBX 2 13 1 0
BITMAP
80
C0
40
00
C0
C0
C0
C0
C0
C0
C0
C0
C0
ENDCHAR
STARTCHAR 00ED
ENCODING 237
SWIDTH 240 0
DWIDTH 4 0
BBX 3 13 1 0
BITMAP
20
60
80
00
C0
C0
C0
C0
C0
C0
C0
C0
C0
ENDCHAR
STARTCHAR 00EE
ENCODING 238
SWIDTH 240 0
DWIDTH 4 0
BBX 4 13 0 0
BITMAP
20
50
90
00
60
60
60
60
60
60
60
60
60
ENDCHAR
STARTCHAR 00EF
ENCODING 239
SWIDTH 240 0
DWIDTH 4 0
BBX 5 12 0 0
BITMAP
98
98
00
60
60
60
60
60
60
60
60
60
ENDCHAR
STARTCHAR 00F0
ENCODING 240
SWIDTH 600 0
DWIDTH 10 0
BBX 8 13 1 0
BITMAP
0D
0F
1E
03
03
3F
43
C3
83
C3
C3
46
3C
ENDCHAR
STARTCHAR 00F1
ENCODING 241
SWIDTH 600 0
DWIDTH 10 0
BBX 8 13 1 0
BITMAP
32
4C
00
00
FC
C6
C2
C2
C3
C3
C3
C3
C3
ENDCHAR
STARTCHAR 00F2
ENCODING 242
SWIDTH 600 0
DWIDTH 10 0
BBX 8 13 1 0
BITMAP
30
18
08
00
3C
66
C3
C3
C1
C3
C3
66
3C
ENDCHAR
STARTCHAR 00F3
ENCODING 243
SWIDTH 600 0
DWIDTH 10 0
BBX 8 13 1 0
BITMAP
04
18
10
00
3C
66
C3
C3
C1
C3
C3
66
3C
ENDCHAR
STARTCHAR 00F4
ENCODING 244
SWIDTH 600 0
DWIDTH 10 0
BBX 8 13 1 0
BITMAP
08
1C
24
00
3C
66
C3
C3
C1
C3
C3
66
3C
ENDCHAR
STARTCHAR 00F5
ENCODING 245
SWIDTH 600 0
DWIDTH 10 0
BBX 8 13 1 0
BITMAP
32
4C
00
00
3C
66
C3
C3
C1
C3
C3
66
3C
ENDCHAR
STARTCHAR 00F6
ENCODING 246
SWIDTH 600 0
DWIDTH 10 0
BBX 8 12 1 0
BITMAP
24
24
00
3C
66
C3
C3
C1
C3
C3
66
3C
ENDCHAR
STARTCHAR 00F7
ENCODING 247
SWIDTH 600 0
DWIDTH 10 0
BBX 8 9 1 0
BITMAP
18
18
00
00
FF
00
00
18
18
ENDCHAR
STARTCHAR 00F8
ENCODING 248
SWIDTH 600 0
DWIDTH 10 0
BBX 8 9 1 0
BITMAP
3D
66
C7
CB
D9
D3
E3
66
BC
ENDCHAR
STARTCHAR 00F9
ENCODING 249
SWIDTH 600 0
DWIDTH 10 0
BBX 7 13 1 0
BITMAP
20
30
08
00
C2
C2
C2
C2
C2
C2
C2
62
3E
ENDCHAR
STARTCHAR 00FA
ENCODING 250
SWIDTH 600 0
DWIDTH 10 0
BBX 7 13 1 0
BITMAP
08
18
10
00
C2
C2
C2
C2
C2
C2
C2
62
3E
ENDCHAR
STARTCHAR 00FB
ENCODING 251
SWIDTH 600 0
DWIDTH 10 0
BBX 7 13 1 0
BITMAP
10
28
24
00
C2
C2
C2
C2
C2
C2
C2
62
3E
ENDCHAR
STARTCHAR 00FC
ENCODING 252
SWIDTH 600 0
DWIDTH 10 0
BBX 7 12 1 0
BITMAP
64
64
00
C2
C2
C2
C2
C2
C2
C2
62
3E
ENDCHAR
STARTCHAR 00FD
ENCODING 253
SWIDTH 480 0
DWIDTH 8 0
BBX 8 16 0 -3
BITMAP
04
0C
08
00
C3
43
62
62
26
36
14
1C
08
08
10
E0
ENDCHAR
STARTCHAR 00FE
ENCODING 254
SWIDTH 600 0
DWIDTH 10 0
BBX 8 16 1 -3
BITMAP
C0
C0
C0
C0
FC
C6
C3
C3
C3
C3
C3
E6
DC
C0
C0
C0
ENDCHAR
STARTCHAR 00FF
ENCODING 255
SWIDTH 480 0
DWIDTH 8 0
BBX 8 15 0 -3
BITMAP
36
36
00
C3
43
62
62
26
36
14
1C
08
08
10
E0
ENDCHAR
STARTCHAR 0100
ENCODING 256
SWIDTH 660 0
DWIDTH 11 0
BBX 11 15 0 0
BITMAP
1F00
0000
0000
0600
0E00
0A00
1B00
1900
1180
3180
3080
7FC0
60C0
4060
C060
ENDCHAR
STARTCHAR 0101
ENCODING 257
SWIDTH 540 0
DWIDTH 9 0
BBX 7 12 1 0
BITMAP
7C
00
00
78
04
06
7E
C6
86
86
C6
7E
ENDCHAR
STARTCHAR 0102
ENCODING 258
SWIDTH 660 0
DWIDTH 11 0
BBX 11 15 0 0
BITMAP
1900
0E00
0000
0600
0E00
0A00
1B00
1900
1180
3180
3080
7FC0
60C0
4060
C060
ENDCHAR
STARTCHAR 0103
ENCODING 259
SWIDTH 540 0
DWIDTH 9 0
BBX 7 12 1 0
BITMAP
44
38
00
78
04
06
7E
C6
86
86
C6
7E
ENDCHAR
STARTCHAR 0104
ENCODING 260
SWIDTH 660 0
DWIDTH 11 0
BBX 11 15 0 -3
BITMAP
0600
0E00
0A00
1B00
1900
1180
3180
3080
7FC0
60C0
4060
C060
0040
00C0
00E0
ENDCHAR
STARTCHAR 0105
ENCODING 261
SWIDTH 540 0
DWIDTH 9 0
BBX 7 12 1 -3
BITMAP
78
04
06
7E
C6
86
86
C6
7E
0C
08
0E
ENDCHAR
STARTCHAR 0106
ENCODING 262
SWIDTH 660 0
DWIDTH 11 0
BBX 9 16 1 0
BITMAP
0200
0600
0800
0000
1F80
3080
6000
C000
C000
C000
C000
C000
C000
6000
3080
1F80
ENDCHAR
STARTCHAR 0107
ENCODING 263
SWIDTH 480 0
DWIDTH 8 0
BBX 7 13 1 0
BITMAP
08
18
10
00
3C
60
C0
C0
C0
C0
C0
60
3E
ENDCHAR
STARTCHAR 0108
ENCODING 264
SWIDTH 660 0
DWIDTH 11 0
BBX 9 16 1 0
BITMAP
0400
0A00
1200
0000
1F80
3080
6000
C000
C000
C000
C000
C000
C000
6000
3080
1F80
ENDCHAR
STARTCHAR 0109
ENCODING 265
SWIDTH 480 0
DWIDTH 8 0
BBX 7 13 1 0
BITMAP
10
28
24
00
3C
60
C0
C0
C0
C0
C0
60
3E
ENDCHAR
STARTCHAR 010A
ENCODING 266
SWIDTH 660 0
DWIDTH 11 0
BBX 9 15 1 0
BITMAP
0C00
0C00
0000
1F80
3080
6000
C000
C000
C000
C000
C000
C000
6000
3080
1F80
ENDCHAR
STARTCHAR 010B
ENCODING 267
SWIDTH 480 0
DWIDTH 8 0
BBX 7 12 1 0
BITMAP
18
18
00
3C
60
C0
C0
C0
C0
C0
60
3E
ENDCHAR
STARTCHAR 010C
ENCODING 268
SWIDTH 660 0
DWIDTH 11 0
BBX 9 16 1 0
BITMAP
1200
0A00
0400
0000
1F80
3080
6000
C000
C000
C000
C000
C000
C000
6000
3080
1F80
ENDCHAR
STARTCHAR 010D
ENCODING 269
SWIDTH 480 0
DWIDTH 8 0
BBX 7 13 1 0
BITMAP
24
28
10
00
3C
60
C0
C0
C0
C0
C0
60
3E
ENDCHAR
STARTCHAR 010E
ENCODING 270
SWIDTH 720 0
DWIDTH 12 0
BBX 10 16 1 0
BITMAP
2200
1400
0800
0000
FE00
C300
C180
C0C0
C0C0
C0C0
C0C0
C0C0
C0C0
C180
C300
FE00
ENDCHAR
STARTCHAR 010F
ENCODING 271
SWIDTH 660 0
DWIDTH 11 0
BBX 10 13 1 0
BITMAP
0340
0340
0340
0340
3B00
6700
C300
C300
C300
C300
C300
6300
3F00
ENDCHAR
STARTCHAR 0110
ENCODING 272
SWIDTH 720 0
DWIDTH 12 0
BBX 11 12 0 0
BITMAP
3F00
21C0
2040
2060
2060
FC20
2020
2060
2060
2040
21C0
3F00
ENDCHAR
STARTCHAR 0111
ENCODING 273
SWIDTH 600 0
DWIDTH 10 0
BBX 9 13 1 0
BITMAP
0300
0300
1F80
0300
3B00
6700
C300
C300
C300
C300
C300
6300
3F00
ENDCHAR
STARTCHAR 0112
ENCODING 274
SWIDTH 600 0
DWIDTH 10 0
BBX 8 15 1 0
BITMAP
3C
00
00
FF
C0
C0
C0
C0
FE
C0
C0
C0
C0
C0
FF
ENDCHAR
STARTCHAR 0113
ENCODING 275
SWIDTH 600 0
DWIDTH 10 0
BBX 8 12 1 0
BITMAP
7C
00
00
3C
66
C2
C3
FF
C0
C0
60
3E
ENDCHAR
STARTCHAR 0114
ENCODING 276
SWIDTH 600 0
DWIDTH 10 0
BBX 8 15 1 0
BITMAP
24
3C
00
FF
C0
C0
C0
C0
FE
C0
C0
C0
C0
C0
FF
ENDCHAR
STARTCHAR 0115
ENCODING 277
SWIDTH 600 0
DWIDTH 10 0
BBX 8 12 1 0
BITMAP
24
38
00
3C
66
C2
C3
FF
C0
C0
60
3E
ENDCHAR
STARTCHAR 0116
ENCODING 278
SWIDTH 600 0
DWIDTH 10 0
BBX 8 15 1 0
BITMAP
18
18
00
FF
C0
C0
C0
C0
FE
C0
C0
C0
C0
C0
FF
ENDCHAR
STARTCHAR 0117
ENCODING 279
SWIDTH 600 0
DWIDTH 10 0
BBX 8 12 1 0
BITMAP
18
18
00
3C
66
C2
C3
FF
C0
C0
60
3E
ENDCHAR
STARTCHAR 0118
ENCODING 280
SWIDTH 600 0
DWIDTH 10 0
BBX 8 15 1 -3
BITMAP
FF
C0
C0
C0
C0
FE
C0
C0
C0
C0
C0
FF
02
06
07
ENDCHAR
STARTCHAR 0119
ENCODING 281
SWIDTH 600 0
DWIDTH 10 0
BBX 8 12 1 -3
BITMAP
3C
66
C2
C3
FF
C0
C0
60
3E
0C
08
0E
ENDCHAR
STARTCHAR 011A
ENCODING 282
SWIDTH 600 0
DWIDTH 10 0
BBX 8 16 1 0
BITMAP
24
28
10
00
FF
C0
C0
C0
C0
FE
C0
C0
C0
C0
C0
FF
ENDCHAR
STARTCHAR 011B
ENCODING 283
SWIDTH 600 0
DWIDTH 10 0
BBX 8 14 1 0
BITMAP
24
28
10
00
00
3C
66
C2
C3
FF
C0
C0
60
3E
ENDCHAR
STARTCHAR 011C
ENCODING 284
SWIDTH 660 0
DWIDTH 11 0
BBX 9 16 1 0
BITMAP
0400
0A00
1100
0000
1F80
3080
6000
C000
C000
C000
C080
C080
C080
6080
3080
1F80
ENDCHAR
STARTCHAR 011D
ENCODING 285
SWIDTH 600 0
DWIDTH 10 0
BBX 7 16 1 -3
BITMAP
08
14
24
00
3E
62
C2
C2
C2
C2
C2
66
3A
02
06
FC
ENDCHAR
STARTCHAR 011E
ENCODING 286
SWIDTH 660 0
DWIDTH 11 0
BBX 9 15 1 0
BITMAP
1300
0E00
0000
1F80
3080
6000
C000
C000
C000
C080
C080
C080
6080
3080
1F80
ENDCHAR
STARTCHAR 011F
ENCODING 287
SWIDTH 600 0
DWIDTH 10 0
BBX 7 15 1 -3
BITMAP
24
1C
00
3E
62
C2
C2
C2
C2
C2
66
3A
02
06
FC
ENDCHAR
STARTCHAR 0120
ENCODING 288
SWIDTH 660 0
DWIDTH 11 0
BBX 9 15 1 0
BITMAP
0C00
0C00
0000
1F80
3080
6000
C000
C000
C000
C080
C080
C080
6080
3080
1F80
ENDCHAR
STARTCHAR 0121
ENCODING 289
SWIDTH 600 0
DWIDTH 10 0
BBX 7 15 1 -3
BITMAP
18
18
00
3E
62
C2
C2
C2
C2
C2
66
3A
02
06
FC
ENDCHAR
STARTCHAR 0122
ENCODING 290
SWIDTH 660 0
DWIDTH 11 0
BBX 9 15 1 -3
BITMAP
1F80
3080
6000
C000
C000
C000
C080
C080
C080
6080
3080
1F80
0000
0400
0C00
ENDCHAR
STARTCHAR 0123
ENCODING 291
SWIDTH 600 0
DWIDTH 10 0
BBX 7 16 1 -3
BITMAP
0C
08
18
00
3E
62
C2
C2
C2
C2
C2
66
3A
02
06
FC
ENDCHAR
STARTCHAR 0124
ENCODING 292
SWIDTH 720 0
DWIDTH 12 0
BBX 10 16 1 0
BITMAP
0800
1C00
1200
0000
C0C0
C0C0
C0C0
C0C0
C0C0
FFC0
C0C0
C0C0
C0C0
C0C0
C0C0
C0C0
ENDCHAR
STARTCHAR 0125
ENCODING 293
SWIDTH 600 0
DWIDTH 10 0
BBX 8 16 1 0
BITMAP
60
90
00
C0
C0
C0
C0
FC
C6
C2
C2
C3
C3
C3
C3
C3
ENDCHAR
STARTCHAR 0126
ENCODING 294
SWIDTH 720 0
DWIDTH 12 0
BBX 12 12 0 0
BITMAP
2060
2060
FFF0
2060
2060
3FE0
2060
2060
2060
2060
2060
2060
ENDCHAR
STARTCHAR 0127
ENCODING 295
SWIDTH 600 0
DWIDTH 10 0
BBX 9 13 0 0
BITMAP
6000
6000
FC00
6000
7E00
6300
6100
6100
6180
6180
6180
6180
6180
ENDCHAR
STARTCHAR 0128
ENCODING 296
SWIDTH 300 0
DWIDTH 5 0
BBX 5 16 0 0
BITMAP
C8
B0
00
00
60
60
60
60
60
60
60
60
60
60
60
60
ENDCHAR
STARTCHAR 0129
ENCODING 297
SWIDTH 240 0
DWIDTH 4 0
BBX 6 13 -1 0
BITMAP
64
98
00
00
30
30
30
30
30
30
30
30
30
ENDCHAR
STARTCHAR 012A
ENCODING 298
SWIDTH 300 0
DWIDTH 5 0
BBX 5 15 0 0
BITMAP
F8
00
00
60
60
60
60
60
60
60
60
60
60
60
60
ENDCHAR
STARTCHAR 012B
ENCODING 299
SWIDTH 240 0
DWIDTH 4 0
BBX 5 12 0 0
BITMAP
F8
00
00
60
60
60
60
60
60
60
60
60
ENDCHAR
STARTCHAR 012C
ENCODING 300
SWIDTH 300 0
DWIDTH 5 0
BBX 5 15 0 0
BITMAP
98
70
00
60
60
60
60
60
60
60
60
60
60
60
60
ENDCHAR
STARTCHAR 012D
ENCODING 301
SWIDTH 240 0
DWIDTH 4 0
BBX 4 12 0 0
BITMAP
90
70
00
60
60
60
60
60
60
60
60
60
ENDCHAR
STARTCHAR 012E
ENCODING 302
SWIDTH 300 0
DWIDTH 5 0
BBX 3 15 0 -3
BITMAP
60
60
60
60
60
60
60
60
60
60
60
60
40
C0
60
ENDCHAR
STARTCHAR 012F
ENCODING 303
SWIDTH 240 0
DWIDTH 4 0
BBX 3 16 0 -3
BITMAP
60
60
00
00
60
60
60
60
60
60
60
60
60
40
C0
E0
ENDCHAR
STARTCHAR 0130
ENCODING 304
SWIDTH 300 0
DWIDTH 5 0
BBX 2 15 1 0
BITMAP
C0
C0
00
C0
C0
C0
C0
C0
C0
C0
C0
C0
C0
C0
C0
ENDCHAR
STARTCHAR 0131
ENCODING 305
SWIDTH 240 0
DWIDTH 4 0
BBX 2 9 1 0
BITMAP
C0
C0
C0
C0
C0
C0
C0
C0
C0
ENDCHAR
STARTCHAR 0132
ENCODING 306
SWIDTH 780 0
DWIDTH 13 0
BBX 11 12 1 0
BITMAP
C060
C060
C060
C060
C060
C060
C060
C060
C060
C060
C8C0
C780
ENDCHAR
STARTCHAR 0133
ENCODING 307
SWIDTH 540 0
DWIDTH 9 0
BBX 6 16 1 -3
BITMAP
C4
C4
00
00
C4
C4
C4
C4
C4
C4
C4
C4
C4
04
0C
38
ENDCHAR
STARTCHAR 0134
ENCODING 308
SWIDTH 540 0
DWIDTH 9 0
BBX 7 16 1 0
BITMAP
04
0A
12
00
0C
0C
0C
0C
0C
0C
0C
0C
0C
0C
0C
F8
ENDCHAR
STARTCHAR 0135
ENCODING 309
SWIDTH 240 0
DWIDTH 4 0
BBX 5 16 -1 -3
BITMAP
10
28
48
00
30
30
30
30
30
30
30
30
30
30
30
E0
ENDCHAR
STARTCHAR 0136
ENCODING 310
SWIDTH 660 0
DWIDTH 11 0
BBX 9 15 1 -3
BITMAP
C180
C300
C600
CC00
D800
F000
D800
CC00
C600
C300
C180
C180
0000
0800
1800
ENDCHAR
STARTCHAR 0137
ENCODING 311
SWIDTH 540 0
DWIDTH 9 0
BBX 7 16 1 -3
BITMAP
C0
C0
C0
C0
C6
CC
D8
F0
F0
D8
CC
C6
C6
00
10
30
ENDCHAR
STARTCHAR 0138
ENCODING 312
SWIDTH 540 0
DWIDTH 9 0
BBX 8 9 1 0
BITMAP
C6
CC
D8
F0
F0
D8
CC
C6
C3
ENDCHAR
STARTCHAR 0139
ENCODING 313
SWIDTH 540 0
DWIDTH 9 0
BBX 8 16 1 0
BITMAP
20
60
40
00
C0
C0
C0
C0
C0
C0
C0
C0
C0
C0
C0
FF
ENDCHAR
STARTCHAR 013A
ENCODING 314
SWIDTH 300 0
DWIDTH 5 0
BBX 3 16 1 0
BITMAP
60
C0
00
C0
C0
C0
C0
C0
C0
C0
C0
C0
C0
C0
C0
60
ENDCHAR
STARTCHAR 013B
ENCODING 315
SWIDTH 540 0
DWIDTH 9 0
BBX 8 15 1 -3
BITMAP
C0
C0
C0
C0
C0
C0
C0
C0
C0
C0
C0
FF
00
18
30
ENDCHAR
STARTCHAR 013C
ENCODING 316
SWIDTH 300 0
DWIDTH 5 0
BBX 3 16 1 -3
BITMAP
C0
C0
C0
C0
C0
C0
C0
C0
C0
C0
C0
C0
60
00
40
C0
ENDCHAR
STARTCHAR 013D
ENCODING 317
SWIDTH 540 0
DWIDTH 9 0
BBX 8 12 1 0
BITMAP
C8
C8
C8
C8
C0
C0
C0
C0
C0
C0
C0
FF
ENDCHAR
STARTCHAR 013E
ENCODING 318
SWIDTH 300 0
DWIDTH 5 0
BBX 5 13 1 0
BITMAP
D8
D0
D0
D0
C0
C0
C0
C0
C0
C0
C0
C0
60
ENDCHAR
STARTCHAR 013F
ENCODING 319
SWIDTH 540 0
DWIDTH 9 0
BBX 8 12 1 0
BITMAP
C0
C0
C0
C0
C0
C6
C6
C0
C0
C0
C0
FF
ENDCHAR
STARTCHAR 0140
ENCODING 320
SWIDTH 360 0
DWIDTH 6 0
BBX 5 13 1 0
BITMAP
C0
C0
C0
C0
C0
C0
D8
D8
C0
C0
C0
C0
60
ENDCHAR
STARTCHAR 0141
ENCODING 321
SWIDTH 540 0
DWIDTH 9 0
BBX 9 12 0 0
BITMAP
2000
2000
2000
2000
2C00
3800
E000
2000
2000
2000
2000
3F80
ENDCHAR
STARTCHAR 0142
ENCODING 322
SWIDTH 300 0
DWIDTH 5 0
BBX 5 13 0 0
BITMAP
20
20
20
20
20
38
E0
20
20
20
20
20
30
ENDCHAR
STARTCHAR 0143
ENCODING 323
SWIDTH 720 0
DWIDTH 12 0
BBX 10 16 1 0
BITMAP
0200
0600
0800
0000
C0C0
E0C0
D0C0
D0C0
C8C0
C4C0
C4C0
C2C0
C1C0
C1C0
C0C0
C0C0
ENDCHAR
STARTCHAR 0144
ENCODING 324
SWIDTH 600 0
DWIDTH 10 0
BBX 8 13 1 0
BITMAP
08
18
10
00
FC
C6
C2
C2
C3
C3
C3
C3
C3
ENDCHAR
STARTCHAR 0145
ENCODING 325
SWIDTH 720 0
DWIDTH 12 0
BBX 10 15 1 -3
BITMAP
C0C0
E0C0
D0C0
D0C0
C8C0
C4C0
C4C0
C2C0
C1C0
C1C0
C0C0
C0C0
0000
0C00
1C00
ENDCHAR
STARTCHAR 0146
ENCODING 326
SWIDTH 600 0
DWIDTH 10 0
BBX 8 12 1 -3
BITMAP
FC
C6
C2
C2
C3
C3
C3
C3
C3
00
18
30
ENDCHAR
STARTCHAR 0147
ENCODING 327
SWIDTH 720 0
DWIDTH 12 0
BBX 10 16 1 0
BITMAP
1200
0A00
0400
0000
C0C0
E0C0
D0C0
D0C0
C8C0
C4C0
C4C0
C2C0
C1C0
C1C0
C0C0
C0C0
ENDCHAR
STARTCHAR 0148
ENCODING 328
SWIDTH 600 0
DWIDTH 10 0
BBX 8 13 1 0
BITMAP
24
38
10
00
FC
C6
C2
C2
C3
C3
C3
C3
C3
ENDCHAR
STARTCHAR 0149
ENCODING 329
SWIDTH 600 0
DWIDTH 10 0
BBX 9 14 0 0
BITMAP
4000
4000
4000
C000
0000
7E00
6300
6100
6100
6180
6180
6180
6180
6180
ENDCHAR
STARTCHAR 014A
ENCODING 330
SWIDTH 720 0
DWIDTH 12 0
BBX 10 15 1 -3
BITMAP
C0C0
E0C0
D0C0
D0C0
C8C0
C4C0
C4C0
C2C0
C1C0
C1C0
C0C0
C0C0
00C0
00C0
0380
ENDCHAR
STARTCHAR 014B
ENCODING 331
SWIDTH 600 0
DWIDTH 10 0
BBX 8 12 1 -3
BITMAP
FC
C6
C2
C2
C3
C3
C3
C3
C3
02
02
0E
ENDCHAR
STARTCHAR 014C
ENCODING 332
SWIDTH 780 0
DWIDTH 13 0
BBX 11 15 1 0
BITMAP
1F00
0000
0000
1F00
31C0
6040
C060
C060
C060
C060
C060
C060
6040
31C0
1F00
ENDCHAR
STARTCHAR 014D
ENCODING 333
SWIDTH 600 0
DWIDTH 10 0
BBX 8 12 1 0
BITMAP
3C
00
00
3C
66
C3
C3
C1
C3
C3
66
3C
ENDCHAR
STARTCHAR 014E
ENCODING 334
SWIDTH 780 0
DWIDTH 13 0
BBX 11 15 1 0
BITMAP
1900
0E00
0000
1F00
31C0
6040
C060
C060
C060
C060
C060
C060
6040
31C0
1F00
ENDCHAR
STARTCHAR 014F
ENCODING 335
SWIDTH 600 0
DWIDTH 10 0
BBX 8 12 1 0
BITMAP
24
3C
00
3C
66
C3
C3
C1
C3
C3
66
3C
ENDCHAR
STARTCHAR 0150
ENCODING 336
SWIDTH 780 0
DWIDTH 13 0
BBX 11 16 1 0
BITMAP
0480
0D80
0900
0000
1F00
31C0
6040
C060
C060
C060
C060
C060
C060
6040
31C0
1F00
ENDCHAR
STARTCHAR 0151
ENCODING 337
SWIDTH 600 0
DWIDTH 10 0
BBX 8 13 1 0
BITMAP
12
36
24
00
3C
66
C3
C3
C1
C3
C3
66
3C
ENDCHAR
STARTCHAR 0152
ENCODING 338
SWIDTH 1020 0
DWIDTH 17 0
BBX 15 12 1 0
BITMAP
0FFE
30C0
60C0
C0C0
C0C0
C0FC
C0C0
C0C0
C0C0
60C0
30C0
1FFE
ENDCHAR
STARTCHAR 0153
ENCODING 339
SWIDTH 960 0
DWIDTH 16 0
BBX 14 9 1 0
BITMAP
3C78
668C
C30C
C304
C1FC
C300
C300
6680
3C7C
ENDCHAR
STARTCHAR 0154
ENCODING 340
SWIDTH 660 0
DWIDTH 11 0
BBX 9 16 1 0
BITMAP
0C00
1800
1000
0000
FE00
C300
C180
C180
C180
C300
FE00
C600
C200
C300
C180
C180
ENDCHAR
STARTCHAR 0155
ENCODING 341
SWIDTH 420 0
DWIDTH 7 0
BBX 5 13 1 0
BITMAP
10
30
20
00
78
C0
C0
C0
C0
C0
C0
C0
C0
ENDCHAR
STARTCHAR 0156
ENCODING 342
SWIDTH 660 0
DWIDTH 11 0
BBX 9 15 1 -3
BITMAP
FE00
C300
C180
C180
C180
C300
FE00
C600
C200
C300
C180
C180
0000
0800
1800
ENDCHAR
STARTCHAR 0157
ENCODING 343
SWIDTH 420 0
DWIDTH 7 0
BBX 6 12 0 -3
BITMAP
3C
60
60
60
60
60
60
60
60
00
60
C0
ENDCHAR
STARTCHAR 0158
ENCODING 344
SWIDTH 660 0
DWIDTH 11 0
BBX 9 16 1 0
BITMAP
2400
3C00
1000
0000
FE00
C300
C180
C180
C180
C300
FE00
C600
C200
C300
C180
C180
ENDCHAR
STARTCHAR 0159
ENCODING 345
SWIDTH 420 0
DWIDTH 7 0
BBX 5 13 1 0
BITMAP
48
50
20
00
78
C0
C0
C0
C0
C0
C0
C0
C0
ENDCHAR
STARTCHAR 015A
ENCODING 346
SWIDTH 540 0
DWIDTH 9 0
BBX 7 16 1 0
BITMAP
08
18
10
00
7C
C2
C0
C0
C0
70
0C
06
02
02
86
FC
ENDCHAR
STARTCHAR 015B
ENCODING 347
SWIDTH 480 0
DWIDTH 8 0
BBX 6 13 1 0
BITMAP
10
30
20
00
78
C0
80
C0
30
18
0C
0C
F8
ENDCHAR
STARTCHAR 015C
ENCODING 348
SWIDTH 540 0
DWIDTH 9 0
BBX 7 16 1 0
BITMAP
10
28
24
00
7C
C2
C0
C0
C0
70
0C
06
02
02
86
FC
ENDCHAR
STARTCHAR 015D
ENCODING 349
SWIDTH 480 0
DWIDTH 8 0
BBX 6 13 1 0
BITMAP
20
50
48
00
78
C0
80
C0
30
18
0C
0C
F8
ENDCHAR
STARTCHAR 015E
ENCODING 350
SWIDTH 540 0
DWIDTH 9 0
BBX 7 15 1 -3
BITMAP
7C
C2
C0
C0
C0
70
0C
06
02
02
86
FC
10
18
30
ENDCHAR
STARTCHAR 015F
ENCODING 351
SWIDTH 480 0
DWIDTH 8 0
BBX 6 12 1 -3
BITMAP
78
C0
80
C0
38
0C
0C
0C
F8
20
10
70
ENDCHAR
STARTCHAR 0160
ENCODING 352
SWIDTH 540 0
DWIDTH 9 0
BBX 7 16 1 0
BITMAP
24
28
10
00
7C
C2
C0
C0
C0
70
0C
06
02
02
86
FC
ENDCHAR
STARTCHAR 0161
ENCODING 353
SWIDTH 480 0
DWIDTH 8 0
BBX 6 13 1 0
BITMAP
48
50
20
00
78
C0
80
C0
30
18
0C
0C
F8
ENDCHAR
STARTCHAR 0162
ENCODING 354
SWIDTH 600 0
DWIDTH 10 0
BBX 9 15 0 -3
BITMAP
FF80
0C00
0C00
0C00
0C00
0C00
0C00
0C00
0C00
0C00
0C00
0C00
0800
0400
1C00
ENDCHAR
STARTCHAR 0163
ENCODING 355
SWIDTH 420 0
DWIDTH 7 0
BBX 6 15 1 -3
BITMAP
C0
C0
C0
F8
C0
C0
C0
C0
C0
C0
40
7C
30
10
70
ENDCHAR
STARTCHAR 0164
ENCODING 356
SWIDTH 600 0
DWIDTH 10 0
BBX 9 16 0 0
BITMAP
1200
1400
0800
0000
FF80
0C00
0C00
0C00
0C00
0C00
0C00
0C00
0C00
0C00
0C00
0C00
ENDCHAR
STARTCHAR 0165
ENCODING 357
SWIDTH 420 0
DWIDTH 7 0
BBX 6 13 1 0
BITMAP
10
D0
D0
C0
F8
C0
C0
C0
C0
C0
C0
40
7C
ENDCHAR
STARTCHAR 0166
ENCODING 358
SWIDTH 600 0
DWIDTH 10 0
BBX 9 12 0 0
BITMAP
FF80
0C00
0C00
0C00
0C00
3F00
0C00
0C00
0C00
0C00
0C00
0C00
ENDCHAR
STARTCHAR 0167
ENCODING 359
SWIDTH 420 0
DWIDTH 7 0
BBX 6 12 1 0
BITMAP
C0
C0
C0
F8
C0
C0
C0
F8
C0
C0
40
7C
ENDCHAR
STARTCHAR 0168
ENCODING 360
SWIDTH 720 0
DWIDTH 12 0
BBX 9 16 1 0
BITMAP
1900
2600
0000
0000
C080
C080
C080
C080
C080
C080
C080
C080
C080
4180
6100
1E00
ENDCHAR
STARTCHAR 0169
ENCODING 361
SWIDTH 600 0
DWIDTH 10 0
BBX 7 13 1 0
BITMAP
32
4C
00
00
C2
C2
C2
C2
C2
C2
C2
62
3E
ENDCHAR
STARTCHAR 016A
ENCODING 362
SWIDTH 720 0
DWIDTH 12 0
BBX 9 15 1 0
BITMAP
3E00
0000
0000
C080
C080
C080
C080
C080
C080
C080
C080
C080
4180
6100
1E00
ENDCHAR
STARTCHAR 016B
ENCODING 363
SWIDTH 600 0
DWIDTH 10 0
BBX 7 12 1 0
BITMAP
7C
00
00
C2
C2
C2
C2
C2
C2
C2
62
3E
ENDCHAR
STARTCHAR 016C
ENCODING 364
SWIDTH 720 0
DWIDTH 12 0
BBX 9 15 1 0
BITMAP
1200
1C00
0000
C080
C080
C080
C080
C080
C080
C080
C080
C080
4180
6100
1E00
ENDCHAR
STARTCHAR 016D
ENCODING 365
SWIDTH 600 0
DWIDTH 10 0
BBX 7 12 1 0
BITMAP
24
38
00
C2
C2
C2
C2
C2
C2
C2
62
3E
ENDCHAR
STARTCHAR 016E
ENCODING 366
SWIDTH 720 0
DWIDTH 12 0
BBX 9 17 1 0
BITMAP
0C00
1200
1200
0C00
0000
C080
C080
C080
C080
C080
C080
C080
C080
C080
4180
6100
1E00
ENDCHAR
STARTCHAR 016F
ENCODING 367
SWIDTH 600 0
DWIDTH 10 0
BBX 7 14 1 0
BITMAP
18
24
24
18
00
C2
C2
C2
C2
C2
C2
C2
62
3E
ENDCHAR
STARTCHAR 0170
ENCODING 368
SWIDTH 720 0
DWIDTH 12 0
BBX 9 16 1 0
BITMAP
0900
1B00
1200
0000
C080
C080
C080
C080
C080
C080
C080
C080
C080
4180
6100
1E00
ENDCHAR
STARTCHAR 0171
ENCODING 369
SWIDTH 600 0
DWIDTH 10 0
BBX 7 13 1 0
BITMAP
12
36
24
00
C2
C2
C2
C2
C2
C2
C2
62
3E
ENDCHAR
STARTCHAR 0172
ENCODING 370
SWIDTH 720 0
DWIDTH 12 0
BBX 9 15 1 -3
BITMAP
C080
C080
C080
C080
C080
C080
C080
C080
C080
4180
6100
1E00
0C00
0800
0E00
ENDCHAR
STARTCHAR 0173
ENCODING 371
SWIDTH 600 0
DWIDTH 10 0
BBX 7 12 1 -3
BITMAP
C2
C2
C2
C2
C2
C2
C2
62
3E
06
0C
06
ENDCHAR
STARTCHAR 0174
ENCODING 372
SWIDTH 960 0
DWIDTH 16 0
BBX 14 16 1 0
BITMAP
0200
0500
0480
0000
8004
830C
C30C
C70C
C588
4488
4498
6CD8
6850
3850
3870
3030
ENDCHAR
STARTCHAR 0175
ENCODING 373
SWIDTH 780 0
DWIDTH 13 0
BBX 13 13 0 0
BITMAP
0200
0500
0880
0000
C218
4318
6510
6530
2530
25A0
38E0
18E0
18C0
ENDCHAR
STARTCHAR 0176
ENCODING 374
SWIDTH 600 0
DWIDTH 10 0
BBX 10 16 0 0
BITMAP
0400
0A00
1200
0000
C0C0
6180
2180
3300
1A00
1E00
0C00
0C00
0C00
0C00
0C00
0C00
ENDCHAR
STARTCHAR 0177
ENCODING 375
SWIDTH 480 0
DWIDTH 8 0
BBX 8 16 0 -3
BITMAP
08
14
22
00
C3
43
62
62
26
36
14
1C
08
08
10
E0
ENDCHAR
STARTCHAR 0178
ENCODING 376
SWIDTH 600 0
DWIDTH 10 0
BBX 10 15 0 0
BITMAP
1300
1300
0000
C0C0
6180
2180
3300
1A00
1E00
0C00
0C00
0C00
0C00
0C00
0C00
ENDCHAR
STARTCHAR 0179
ENCODING 377
SWIDTH 600 0
DWIDTH 10 0
BBX 8 16 1 0
BITMAP
0C
18
10
00
FF
03
06
0C
0C
18
30
30
60
C0
C0
FF
ENDCHAR
STARTCHAR 017A
ENCODING 378
SWIDTH 480 0
DWIDTH 8 0
BBX 6 13 1 0
BITMAP
10
30
20
00
FC
0C
18
30
30
60
C0
C0
FC
ENDCHAR
STARTCHAR 017B
ENCODING 379
SWIDTH 600 0
DWIDTH 10 0
BBX 8 15 1 0
BITMAP
18
18
00
FF
03
06
0C
0C
18
30
30
60
C0
C0
FF
ENDCHAR
STARTCHAR 017C
ENCODING 380
SWIDTH 480 0
DWIDTH 8 0
BBX 6 12 1 0
BITMAP
30
30
00
FC
0C
18
30
30
60
C0
C0
FC
ENDCHAR
STARTCHAR 017D
ENCODING 381
SWIDTH 600 0
DWIDTH 10 0
BBX 8 16 1 0
BITMAP
24
38
10
00
FF
03
06
0C
0C
18
30
30
60
C0
C0
FF
ENDCHAR
STARTCHAR 017E
ENCODING 382
SWIDTH 480 0
DWIDTH 8 0
BBX 6 13 1 0
BITMAP
48
70
20
00
FC
0C
18
30
30
60
C0
C0
FC
ENDCHAR
STARTCHAR 017F
ENCODING 383
SWIDTH 300 0
DWIDTH 5 0
BBX 6 13 1 0
BITMAP
7C
40
C0
C0
C0
C0
C0
C0
C0
C0
C0
C0
C0
ENDCHAR
STARTCHAR 0180
ENCODING 384
SWIDTH 600 0
DWIDTH 10 0
BBX 9 13 0 0
BITMAP
6000
6000
FC00
6000
6E00
7300
6180
6180
6180
6180
6180
6300
7E00
ENDCHAR
STARTCHAR 0181
ENCODING 385
SWIDTH 780 0
DWIDTH 13 0
BBX 12 12 0 0
BITMAP
7FC0
D860
D820
1820
1860
1FC0
1860
1830
1830
1830
1860
1FC0
ENDCHAR
STARTCHAR 0182
ENCODING 386
SWIDTH 660 0
DWIDTH 11 0
BBX 9 12 1 0
BITMAP
FF00
C000
C000
C000
C000
FE00
C300
C180
C180
C180
C300
FE00
ENDCHAR
STARTCHAR 0183
ENCODING 387
SWIDTH 600 0
DWIDTH 10 0
BBX 8 13 1 0
BITMAP
FE
C0
C0
C0
FC
C6
C3
C3
C3
C3
C3
C6
FC
ENDCHAR
STARTCHAR 0184
ENCODING 388
SWIDTH 600 0
DWIDTH 10 0
BBX 9 13 0 0
BITMAP
2000
E000
6000
6000
6E00
7300
6180
6180
6180
6180
6180
6300
7E00
ENDCHAR
STARTCHAR 0185
ENCODING 389
SWIDTH 660 0
DWIDTH 11 0
BBX 10 12 0 0
BITMAP
2000
E000
6000
2000
2000
3F00
2180
20C0
20C0
20C0
2180
3F00
ENDCHAR
STARTCHAR 0186
ENCODING 390
SWIDTH 660 0
DWIDTH 11 0
BBX 9 12 1 0
BITMAP
F800
0600
0300
0300
0100
0180
0180
0100
0300
0300
0600
F800
ENDCHAR
STARTCHAR 0187
ENCODING 391
SWIDTH 660 0
DWIDTH 11 0
BBX 11 13 1 0
BITMAP
00E0
1F80
3080
6000
C000
C000
C000
C000
C000
C000
6000
3080
1F80
ENDCHAR
STARTCHAR 0188
ENCODING 392
SWIDTH 540 0
DWIDTH 9 0
BBX 8 11 1 0
BITMAP
03
06
3C
60
C0
C0
C0
C0
C0
60
3E
ENDCHAR
STARTCHAR 0189
ENCODING 393
SWIDTH 720 0
DWIDTH 12 0
BBX 11 12 0 0
BITMAP
3F00
21C0
2040
2060
2060
FC20
2020
2060
2060
2040
21C0
3F00
ENDCHAR
STARTCHAR 018A
ENCODING 394
SWIDTH 840 0
DWIDTH 14 0
BBX 13 12 0 0
BITMAP
3F80
5860
D830
D810
1818
1818
1818
1818
1810
1830
1860
1F80
ENDCHAR
STARTCHAR 018B
ENCODING 395
SWIDTH 660 0
DWIDTH 11 0
BBX 8 12 1 0
BITMAP
7F
01
01
01
01
3F
E1
C1
C1
C1
E1
3F
ENDCHAR
STARTCHAR 018C
ENCODING 396
SWIDTH 600 0
DWIDTH 10 0
BBX 8 13 1 0
BITMAP
7F
03
03
03
3F
63
C3
C3
C3
C3
C3
43
3F
ENDCHAR
STARTCHAR 018D
ENCODING 397
SWIDTH 600 0
DWIDTH 10 0
BBX 8 12 1 -3
BITMAP
3C
66
C3
C3
83
C3
46
3C
0C
06
04
7C
ENDCHAR
STARTCHAR 018E
ENCODING 398
SWIDTH 600 0
DWIDTH 10 0
BBX 7 12 1 0
BITMAP
FE
02
02
02
02
7E
02
02
02
02
02
FE
ENDCHAR
STARTCHAR 018F
ENCODING 399
SWIDTH 720 0
DWIDTH 12 0
BBX 10 12 1 0
BITMAP
7E00
4300
0180
00C0
00C0
00C0
FFC0
C0C0
C0C0
C180
6300
3E00
ENDCHAR
STARTCHAR 0190
ENCODING 400
SWIDTH 600 0
DWIDTH 10 0
BBX 8 12 1 0
BITMAP
3E
60
C0
C0
60
3C
60
C0
C0
C0
C1
3E
ENDCHAR
STARTCHAR 0191
ENCODING 401
SWIDTH 540 0
DWIDTH 9 0
BBX 9 15 0 -3
BITMAP
7F80
6000
6000
6000
6000
7F00
6000
6000
6000
6000
6000
6000
6000
6000
C000
ENDCHAR
STARTCHAR 0192
ENCODING 402
SWIDTH 420 0
DWIDTH 7 0
BBX 8 16 -1 -3
BITMAP
0F
10
30
30
3E
30
30
30
30
30
30
30
30
30
30
E0
ENDCHAR
STARTCHAR 0193
ENCODING 403
SWIDTH 660 0
DWIDTH 11 0
BBX 11 13 1 0
BITMAP
00E0
1F80
3080
6000
C000
C000
C000
C080
C080
C080
6080
3080
1F80
ENDCHAR
STARTCHAR 0194
ENCODING 404
SWIDTH 660 0
DWIDTH 11 0
BBX 11 15 0 -3
BITMAP
C060
6040
60C0
3080
3180
1900
1B00
0E00
0400
0E00
0A00
1B00
1900
1B00
0E00
ENDCHAR
STARTCHAR 0195
ENCODING 405
SWIDTH 900 0
DWIDTH 15 0
BBX 13 13 1 0
BITMAP
C000
C000
C000
C000
F818
C618
C218
C218
C218
C218
C218
C330
C0E0
ENDCHAR
STARTCHAR 0196
ENCODING 406
SWIDTH 360 0
DWIDTH 6 0
BBX 5 12 1 0
BITMAP
C0
C0
C0
C0
C0
C0
C0
C0
C0
40
40
38
ENDCHAR
STARTCHAR 0197
ENCODING 407
SWIDTH 360 0
DWIDTH 6 0
BBX 5 12 0 0
BITMAP
30
30
30
30
30
F8
30
30
30
30
30
30
ENDCHAR
STARTCHAR 0198
ENCODING 408
SWIDTH 660 0
DWIDTH 11 0
BBX 10 12 1 0
BITMAP
C180
C640
C400
C800
D800
F000
D800
CC00
C600
C300
C180
C180
ENDCHAR
STARTCHAR 0199
ENCODING 409
SWIDTH 540 0
DWIDTH 9 0
BBX 7 13 1 0
BITMAP
70
40
C0
C0
C6
CC
D8
F0
F0
D8
CC
C6
C6
ENDCHAR
STARTCHAR 019A
ENCODING 410
SWIDTH 300 0
DWIDTH 5 0
BBX 5 13 0 0
BITMAP
20
20
20
20
20
20
F8
20
20
20
20
20
30
ENDCHAR
STARTCHAR 019B
ENCODING 411
SWIDTH 540 0
DWIDTH 9 0
BBX 8 13 0 0
BITMAP
60
36
18
78
18
1C
14
36
26
62
63
43
C1
ENDCHAR
STARTCHAR 019C
ENCODING 412
SWIDTH 1020 0
DWIDTH 17 0
BBX 14 12 1 0
BITMAP
C30C
C30C
C30C
C30C
C30C
C30C
C30C
C30C
430C
410C
638C
3EFC
ENDCHAR
STARTCHAR 019D
ENCODING 413
SWIDTH 720 0
DWIDTH 12 0
BBX 11 15 0 -3
BITMAP
6060
7060
6860
6860
6460
6260
6260
6160
60E0
60E0
6060
6060
6000
6000
C000
ENDCHAR
STARTCHAR 019E
ENCODING 414
SWIDTH 600 0
DWIDTH 10 0
BBX 8 12 1 -3
BITMAP
FC
C6
C2
C2
C3
C3
C3
C3
C3
03
03
03
ENDCHAR
STARTCHAR 019F
ENCODING 415
SWIDTH 780 0
DWIDTH 13 0
BBX 11 12 1 0
BITMAP
1F00
30C0
6040
C060
C060
FFE0
C060
C060
C060
60C0
31C0
1F00
ENDCHAR
STARTCHAR 01A0
ENCODING 416
SWIDTH 780 0
DWIDTH 13 0
BBX 11 14 1 0
BITMAP
0020
0020
1F60
31C0
6040
C060
C060
C060
C060
C060
C060
6040
31C0
1F00
ENDCHAR
STARTCHAR 01A1
ENCODING 417
SWIDTH 600 0
DWIDTH 10 0
BBX 9 11 1 0
BITMAP
0180
0180
3D80
6700
C300
C300
C100
C300
C300
6600
3C00
ENDCHAR
STARTCHAR 01A2
ENCODING 418
SWIDTH 1020 0
DWIDTH 17 0
BBX 15 12 1 0
BITMAP
1E38
31CC
60C6
C046
C066
C066
C066
C066
C046
60C6
3186
1F06
ENDCHAR
STARTCHAR 01A3
ENCODING 419
SWIDTH 840 0
DWIDTH 14 0
BBX 12 12 1 -3
BITMAP
3DC0
6660
C330
C330
C330
C330
C330
6630
3C30
0030
0030
0030
ENDCHAR
STARTCHAR 01A4
ENCODING 420
SWIDTH 720 0
DWIDTH 12 0
BBX 11 12 0 0
BITMAP
3F80
5860
D860
D820
1820
1860
1860
1F80
1800
1800
1800
1800
ENDCHAR
STARTCHAR 01A5
ENCODING 421
SWIDTH 600 0
DWIDTH 10 0
BBX 8 16 1 -3
BITMAP
70
40
C0
C0
FC
C6
C3
C3
C3
C3
C3
E6
DC
C0
C0
C0
ENDCHAR
STARTCHAR 01A6
ENCODING 422
SWIDTH 660 0
DWIDTH 11 0
BBX 10 16 1 -2
BITMAP
C000
C000
FE00
C300
C180
C180
C180
C300
FE00
C600
C200
C300
C180
C180
00C0
00C0
ENDCHAR
STARTCHAR 01A7
ENCODING 423
SWIDTH 540 0
DWIDTH 9 0
BBX 7 12 1 0
BITMAP
78
86
06
06
06
18
60
C0
80
80
C2
7E
ENDCHAR
STARTCHAR 01A8
ENCODING 424
SWIDTH 480 0
DWIDTH 8 0
BBX 6 9 1 0
BITMAP
F8
0C
0C
18
30
C0
80
80
7C
ENDCHAR
STARTCHAR 01A9
ENCODING 425
SWIDTH 600 0
DWIDTH 10 0
BBX 8 12 1 0
BITMAP
FF
C0
60
20
30
18
18
30
60
60
C0
FF
ENDCHAR
STARTCHAR 01AA
ENCODING 426
SWIDTH 300 0
DWIDTH 5 0
BBX 7 16 -2 -3
BITMAP
78
48
C8
7C
0C
0C
0C
0C
0C
0C
0C
0C
0C
0C
0C
06
ENDCHAR
STARTCHAR 01AB
ENCODING 427
SWIDTH 420 0
DWIDTH 7 0
BBX 5 15 1 -3
BITMAP
C0
C0
C0
F8
C0
C0
C0
C0
C0
C0
40
78
08
08
38
ENDCHAR
STARTCHAR 01AC
ENCODING 428
SWIDTH 600 0
DWIDTH 10 0
BBX 10 12 0 0
BITMAP
7FC0
CC00
CC00
0C00
0C00
0C00
0C00
0C00
0C00
0C00
0C00
0C00
ENDCHAR
STARTCHAR 01AD
ENCODING 429
SWIDTH 420 0
DWIDTH 7 0
BBX 6 13 1 0
BITMAP
3C
40
C0
C0
F8
C0
C0
C0
C0
C0
C0
40
7C
ENDCHAR
STARTCHAR 01AE
ENCODING 430
SWIDTH 600 0
DWIDTH 10 0
BBX 9 15 0 -3
BITMAP
FF80
0C00
0C00
0C00
0C00
0C00
0C00
0C00
0C00
0C00
0C00
0C00
0C00
0C00
0700
ENDCHAR
STARTCHAR 01AF
ENCODING 431
SWIDTH 720 0
DWIDTH 12 0
BBX 11 14 1 0
BITMAP
0020
0020
C0E0
C080
C080
C080
C080
C080
C080
C080
C080
4180
6100
1E00
ENDCHAR
STARTCHAR 01B0
ENCODING 432
SWIDTH 600 0
DWIDTH 10 0
BBX 10 11 1 0
BITMAP
00C0
0080
C380
C200
C200
C200
C200
C200
C200
6200
3E00
ENDCHAR
STARTCHAR 01B1
ENCODING 433
SWIDTH 780 0
DWIDTH 13 0
BBX 11 12 1 0
BITMAP
F1E0
3080
60C0
4060
C060
C060
C060
C060
4060
6040
30C0
1F00
ENDCHAR
STARTCHAR 01B2
ENCODING 434
SWIDTH 720 0
DWIDTH 12 0
BBX 10 12 1 0
BITMAP
C700
C180
C080
C080
C0C0
C0C0
C0C0
C0C0
C080
4180
6300
3E00
ENDCHAR
STARTCHAR 01B3
ENCODING 435
SWIDTH 660 0
DWIDTH 11 0
BBX 11 12 0 0
BITMAP
C0E0
6180
6100
3300
1200
1E00
0C00
0C00
0C00
0C00
0C00
0C00
ENDCHAR
STARTCHAR 01B4
ENCODING 436
SWIDTH 600 0
DWIDTH 10 0
BBX 10 12 0 -3
BITMAP
C1C0
4300
6200
6200
2600
3400
1400
1C00
0800
0800
1000
E000
ENDCHAR
STARTCHAR 01B5
ENCODING 437
SWIDTH 600 0
DWIDTH 10 0
BBX 8 12 1 0
BITMAP
FF
03
06
0C
08
FF
30
60
60
C0
C0
FF
ENDCHAR
STARTCHAR 01B6
ENCODING 438
SWIDTH 480 0
DWIDTH 8 0
BBX 6 9 1 0
BITMAP
FC
0C
18
18
FC
60
40
C0
FC
ENDCHAR
STARTCHAR 01B7
ENCODING 439
SWIDTH 600 0
DWIDTH 10 0
BBX 8 12 1 0
BITMAP
FF
06
0C
08
10
3C
06
03
03
03
86
FC
ENDCHAR
STARTCHAR 01B8
ENCODING 440
SWIDTH 600 0
DWIDTH 10 0
BBX 8 12 1 0
BITMAP
FF
60
60
30
18
3C
E0
C0
C0
C0
C1
3E
ENDCHAR
STARTCHAR 01B9
ENCODING 441
SWIDTH 480 0
DWIDTH 8 0
BBX 7 12 1 -3
BITMAP
FE
40
60
30
10
78
C0
80
80
80
C0
3E
ENDCHAR
STARTCHAR 01BA
ENCODING 442
SWIDTH 480 0
DWIDTH 8 0
BBX 7 12 0 -3
BITMAP
FE
04
08
10
3C
06
02
06
1C
70
C0
C0
ENDCHAR
STARTCHAR 01BB
ENCODING 443
SWIDTH 540 0
DWIDTH 9 0
BBX 7 12 1 0
BITMAP
78
84
06
06
06
0C
FE
30
60
40
C0
FE
ENDCHAR
STARTCHAR 01BC
ENCODING 444
SWIDTH 540 0
DWIDTH 9 0
BBX 9 12 0 0
BITMAP
FF00
3000
3000
2000
2000
3E00
0300
0100
0180
0100
4300
3C00
ENDCHAR
STARTCHAR 01BD
ENCODING 445
SWIDTH 480 0
DWIDTH 8 0
BBX 8 9 0 0
BITMAP
FE
20
20
20
3E
02
03
02
7C
ENDCHAR
STARTCHAR 01BE
ENCODING 446
SWIDTH 480 0
DWIDTH 8 0
BBX 6 12 1 0
BITMAP
C0
C0
C0
F8
C0
C0
60
38
0C
04
0C
F8
ENDCHAR
STARTCHAR 01BF
ENCODING 447
SWIDTH 600 0
DWIDTH 10 0
BBX 8 12 1 -3
BITMAP
7C
C6
C3
C3
C3
C3
C6
C6
D8
E0
C0
C0
ENDCHAR
STARTCHAR 01C0
ENCODING 448
SWIDTH 300 0
DWIDTH 5 0
BBX 1 16 2 -3
BITMAP
80
80
80
80
80
80
80
80
80
80
80
80
80
80
80
80
ENDCHAR
STARTCHAR 01C1
ENCODING 449
SWIDTH 480 0
DWIDTH 8 0
BBX 5 16 2 -3
BITMAP
98
98
98
98
98
98
98
98
98
98
98
98
98
98
98
98
ENDCHAR
STARTCHAR 01C2
ENCODING 450
SWIDTH 600 0
DWIDTH 10 0
BBX 8 16 1 -3
BITMAP
18
18
18
18
18
18
FF
18
18
FF
18
18
18
18
18
18
ENDCHAR
STARTCHAR 01C3
ENCODING 451
SWIDTH 300 0
DWIDTH 5 0
BBX 2 12 1 0
BITMAP
C0
C0
C0
40
40
40
40
40
00
00
C0
C0
ENDCHAR
STARTCHAR 01C4
ENCODING 452
SWIDTH 1320 0
DWIDTH 22 0
BBX 20 16 1 0
BITMAP
000240
000140
000080
000000
FE0FF0
C30030
C18060
C0C040
C0C0C0
C0C180
C0C300
C0C300
C0C600
C18600
C30C00
FE0FF0
ENDCHAR
STARTCHAR 01C5
ENCODING 453
SWIDTH 1200 0
DWIDTH 20 0
BBX 19 13 1 0
BITMAP
000480
FE0280
C30100
C18000
C0CFC0
C0C0C0
C0C180
C0C180
C0C300
C0C600
C18600
C30C00
FE0FE0
ENDCHAR
STARTCHAR 01C6
ENCODING 454
SWIDTH 1080 0
DWIDTH 18 0
BBX 16 13 1 0
BITMAP
0312
030E
0304
0300
3B3F
6703
C306
C30C
C30C
C318
C310
6330
3F3F
ENDCHAR
STARTCHAR 01C7
ENCODING 455
SWIDTH 1020 0
DWIDTH 17 0
BBX 15 12 1 0
BITMAP
C006
C006
C006
C006
C006
C006
C006
C006
C006
C006
C084
FF78
ENDCHAR
STARTCHAR 01C8
ENCODING 456
SWIDTH 780 0
DWIDTH 13 0
BBX 11 16 1 -3
BITMAP
0060
C060
C000
C000
C060
C060
C060
C060
C060
C060
C060
C060
FF60
0060
0060
01C0
ENDCHAR
STARTCHAR 01C9
ENCODING 457
SWIDTH 540 0
DWIDTH 9 0
BBX 7 16 1 -3
BITMAP
C6
C6
C0
C0
C6
C6
C6
C6
C6
C6
C6
C6
66
06
04
18
ENDCHAR
STARTCHAR 01CA
ENCODING 458
SWIDTH 1260 0
DWIDTH 21 0
BBX 19 12 1 0
BITMAP
C0C060
E0C060
D0C060
D0C060
C8C060
C4C060
C4C060
C2C060
C1C060
C1C040
C0C8C0
C0CF80
ENDCHAR
STARTCHAR 01CB
ENCODING 459
SWIDTH 1020 0
DWIDTH 17 0
BBX 14 16 1 -3
BITMAP
0004
C0C4
E0C0
D0C0
D0C4
C8C4
C4C4
C4C4
C2C4
C1C4
C1C4
C0C4
C0C4
0004
000C
0038
ENDCHAR
STARTCHAR 01CC
ENCODING 460
SWIDTH 840 0
DWIDTH 14 0
BBX 12 16 1 -3
BITMAP
0030
0030
0000
0000
FC30
C630
C230
C230
C330
C330
C330
C330
C330
0030
0020
00E0
ENDCHAR
STARTCHAR 01CD
ENCODING 461
SWIDTH 660 0
DWIDTH 11 0
BBX 11 16 0 0
BITMAP
1100
0A00
0400
0000
0600
0E00
0A00
1B00
1900
1180
3180
3080
7FC0
60C0
4060
C060
ENDCHAR
STARTCHAR 01CE
ENCODING 462
SWIDTH 540 0
DWIDTH 9 0
BBX 7 13 1 0
BITMAP
44
28
10
00
78
04
06
7E
C6
86
86
C6
7E
ENDCHAR
STARTCHAR 01CF
ENCODING 463
SWIDTH 300 0
DWIDTH 5 0
BBX 4 16 0 0
BITMAP
90
50
20
00
60
60
60
60
60
60
60
60
60
60
60
60
ENDCHAR
STARTCHAR 01D0
ENCODING 464
SWIDTH 240 0
DWIDTH 4 0
BBX 4 13 0 0
BITMAP
90
50
20
00
60
60
60
60
60
60
60
60
60
ENDCHAR
STARTCHAR 01D1
ENCODING 465
SWIDTH 780 0
DWIDTH 13 0
BBX 11 16 1 0
BITMAP
1100
0A00
0400
0000
1F00
31C0
6040
C060
C060
C060
C060
C060
C060
6040
31C0
1F00
ENDCHAR
STARTCHAR 01D2
ENCODING 466
SWIDTH 600 0
DWIDTH 10 0
BBX 8 13 1 0
BITMAP
24
1C
08
00
3C
66
C3
C3
C1
C3
C3
66
3C
ENDCHAR
STARTCHAR 01D3
ENCODING 467
SWIDTH 720 0
DWIDTH 12 0
BBX 9 16 1 0
BITMAP
1200
1400
0800
0000
C080
C080
C080
C080
C080
C080
C080
C080
C080
4180
6100
1E00
ENDCHAR
STARTCHAR 01D4
ENCODING 468
SWIDTH 600 0
DWIDTH 10 0
BBX 7 13 1 0
BITMAP
24
28
10
00
C2
C2
C2
C2
C2
C2
C2
62
3E
ENDCHAR
STARTCHAR 01D5
ENCODING 469
SWIDTH 720 0
DWIDTH 12 0
BBX 9 17 1 0
BITMAP
1E00
0000
3200
3200
0000
C080
C080
C080
C080
C080
C080
C080
C080
C080
4180
6100
1E00
ENDCHAR
STARTCHAR 01D6
ENCODING 470
SWIDTH 600 0
DWIDTH 10 0
BBX 7 14 1 0
BITMAP
3C
00
64
64
00
C2
C2
C2
C2
C2
C2
C2
62
3E
ENDCHAR
STARTCHAR 01D7
ENCODING 471
SWIDTH 720 0
DWIDTH 12 0
BBX 9 17 1 0
BITMAP
0400
0C00
2B00
2300
0000
C080
C080
C080
C080
C080
C080
C080
C080
C080
4180
6100
1E00
ENDCHAR
STARTCHAR 01D8
ENCODING 472
SWIDTH 600 0
DWIDTH 10 0
BBX 7 16 1 0
BITMAP
08
18
10
00
64
64
00
C2
C2
C2
C2
C2
C2
C2
62
3E
ENDCHAR
STARTCHAR 01D9
ENCODING 473
SWIDTH 720 0
DWIDTH 12 0
BBX 9 18 1 0
BITMAP
1200
0C00
0000
2300
2300
0000
C080
C080
C080
C080
C080
C080
C080
C080
C080
4180
6100
1E00
ENDCHAR
STARTCHAR 01DA
ENCODING 474
SWIDTH 600 0
DWIDTH 10 0
BBX 7 15 1 0
BITMAP
24
18
00
64
64
00
C2
C2
C2
C2
C2
C2
C2
62
3E
ENDCHAR
STARTCHAR 01DB
ENCODING 475
SWIDTH 720 0
DWIDTH 12 0
BBX 9 17 1 0
BITMAP
0800
0800
2B00
2300
0000
C080
C080
C080
C080
C080
C080
C080
C080
C080
4180
6100
1E00
ENDCHAR
STARTCHAR 01DC
ENCODING 476
SWIDTH 600 0
DWIDTH 10 0
BBX 7 16 1 0
BITMAP
20
10
18
00
64
64
00
C2
C2
C2
C2
C2
C2
C2
62
3E
ENDCHAR
STARTCHAR 01DD
ENCODING 477
SWIDTH 600 0
DWIDTH 10 0
BBX 8 9 1 0
BITMAP
F8
06
02
03
FF
C2
C2
46
3C
ENDCHAR
STARTCHAR 01DE
ENCODING 478
SWIDTH 660 0
DWIDTH 11 0
BBX 11 17 0 0
BITMAP
1F00
0000
1900
1900
0000
0600
0E00
0A00
1B00
1900
1180
3180
3080
7FC0
60C0
4060
C060
ENDCHAR
STARTCHAR 01DF
ENCODING 479
SWIDTH 540 0
DWIDTH 9 0
BBX 7 14 1 0
BITMAP
7C
00
6C
6C
00
78
04
06
7E
C6
86
86
C6
7E
ENDCHAR
STARTCHAR 01E0
ENCODING 480
SWIDTH 660 0
DWIDTH 11 0
BBX 11 17 0 0
BITMAP
1F00
0000
0400
0400
0000
0600
0E00
0A00
1B00
1900
1180
3180
3080
7FC0
60C0
4060
C060
ENDCHAR
STARTCHAR 01E1
ENCODING 481
SWIDTH 540 0
DWIDTH 9 0
BBX 7 14 1 0
BITMAP
7C
00
10
10
00
78
04
06
7E
C6
86
86
C6
7E
ENDCHAR
STARTCHAR 01E2
ENCODING 482
SWIDTH 960 0
DWIDTH 16 0
BBX 15 15 0 0
BITMAP
01F0
0000
0000
01FE
03C0
02C0
06C0
0CC0
08FC
18C0
10C0
3FC0
60C0
60C0
C0FE
ENDCHAR
STARTCHAR 01E3
ENCODING 483
SWIDTH 900 0
DWIDTH 15 0
BBX 13 12 1 0
BITMAP
0F80
0000
0000
79E0
0F30
0610
0618
7FF8
C600
8600
C700
7DF0
ENDCHAR
STARTCHAR 01E4
ENCODING 484
SWIDTH 720 0
DWIDTH 12 0
BBX 11 12 1 0
BITMAP
1F80
3080
6000
C000
C000
C000
C080
C080
C3E0
6080
3080
1F80
ENDCHAR
STARTCHAR 01E5
ENCODING 485
SWIDTH 600 0
DWIDTH 10 0
BBX 9 12 1 -3
BITMAP
3E00
6200
C200
C200
CF80
C200
C200
6600
3A00
0200
0600
FC00
ENDCHAR
STARTCHAR 01E6
ENCODING 486
SWIDTH 660 0
DWIDTH 11 0
BBX 9 16 1 0
BITMAP
1100
0A00
0400
0000
1F80
3080
6000
C000
C000
C000
C080
C080
C080
6080
3080
1F80
ENDCHAR
STARTCHAR 01E7
ENCODING 487
SWIDTH 600 0
DWIDTH 10 0
BBX 7 16 1 -3
BITMAP
24
38
10
00
3E
62
C2
C2
C2
C2
C2
66
3A
02
06
FC
ENDCHAR
STARTCHAR 01E8
ENCODING 488
SWIDTH 660 0
DWIDTH 11 0
BBX 9 16 1 0
BITMAP
2200
1400
0800
0000
C180
C300
C600
CC00
D800
F000
D800
CC00
C600
C300
C180
C180
ENDCHAR
STARTCHAR 01E9
ENCODING 489
SWIDTH 540 0
DWIDTH 9 0
BBX 7 16 1 0
BITMAP
90
60
00
C0
C0
C0
C0
C6
CC
D8
F0
F0
D8
CC
C6
C6
ENDCHAR
STARTCHAR 01EA
ENCODING 490
SWIDTH 780 0
DWIDTH 13 0
BBX 11 15 1 -3
BITMAP
1F00
31C0
6040
C060
C060
C060
C060
C060
C060
6040
31C0
1F00
0600
0400
0700
ENDCHAR
STARTCHAR 01EB
ENCODING 491
SWIDTH 600 0
DWIDTH 10 0
BBX 8 12 1 -3
BITMAP
3C
66
C3
C3
C1
C3
C3
66
3C
18
10
1C
ENDCHAR
STARTCHAR 01EC
ENCODING 492
SWIDTH 780 0
DWIDTH 13 0
BBX 11 18 1 -3
BITMAP
1F00
0000
0000
1F00
31C0
6040
C060
C060
C060
C060
C060
C060
6040
31C0
1F00
0600
0400
0700
ENDCHAR
STARTCHAR 01ED
ENCODING 493
SWIDTH 600 0
DWIDTH 10 0
BBX 8 15 1 -3
BITMAP
3C
00
00
3C
66
C3
C3
C1
C3
C3
66
3C
18
10
1C
ENDCHAR
STARTCHAR 01EE
ENCODING 494
SWIDTH 600 0
DWIDTH 10 0
BBX 8 16 1 0
BITMAP
24
28
10
00
FF
06
0C
08
10
3C
06
03
03
03
86
FC
ENDCHAR
STARTCHAR 01EF
ENCODING 495
SWIDTH 480 0
DWIDTH 8 0
BBX 7 16 0 -3
BITMAP
44
28
10
00
FE
04
0C
08
10
3C
06
02
02
02
06
F8
ENDCHAR
STARTCHAR 01F0
ENCODING 496
SWIDTH 240 0
DWIDTH 4 0
BBX 5 16 -1 -3
BITMAP
48
28
10
00
30
30
30
30
30
30
30
30
30
30
30
E0
ENDCHAR
STARTCHAR 01F1
ENCODING 497
SWIDTH 1320 0
DWIDTH 22 0
BBX 20 12 1 0
BITMAP
FE0FF0
C30030
C18060
C0C040
C0C0C0
C0C180
C0C300
C0C300
C0C600
C18600
C30C00
FE0FF0
ENDCHAR
STARTCHAR 01F2
ENCODING 498
SWIDTH 1200 0
DWIDTH 20 0
BBX 19 12 1 0
BITMAP
FE0000
C30000
C18000
C0CFC0
C0C0C0
C0C180
C0C180
C0C300
C0C600
C18600
C30C00
FE0FE0
ENDCHAR
STARTCHAR 01F3
ENCODING 499
SWIDTH 1080 0
DWIDTH 18 0
BBX 16 13 1 0
BITMAP
0300
0300
0300
0300
3B3F
6703
C306
C30C
C30C
C318
C310
6330
3F3F
ENDCHAR
STARTCHAR 01F4
ENCODING 500
SWIDTH 660 0
DWIDTH 11 0
BBX 9 16 1 0
BITMAP
0200
0600
0400
0000
1F80
3080
6000
C000
C000
C000
C080
C080
C080
6080
3080
1F80
ENDCHAR
STARTCHAR 01F5
ENCODING 501
SWIDTH 600 0
DWIDTH 10 0
BBX 7 16 1 -3
BITMAP
0C
18
10
00
3E
62
C2
C2
C2
C2
C2
66
3A
02
06
FC
ENDCHAR
STARTCHAR 01F6
ENCODING 502
SWIDTH 1080 0
DWIDTH 18 0
BBX 16 12 1 0
BITMAP
C0C0
C0C0
C0C0
C0C3
C0C3
FFC3
C0C3
C0C3
C0C3
C0C3
C046
C03C
ENDCHAR
STARTCHAR 01F7
ENCODING 503
SWIDTH 660 0
DWIDTH 11 0
BBX 9 15 1 -3
BITMAP
7E00
C300
C180
C180
C180
C180
C180
C100
C300
C600
D800
E000
C000
C000
C000
ENDCHAR
STARTCHAR 01F8
ENCODING 504
SWIDTH 720 0
DWIDTH 12 0
BBX 10 16 1 0
BITMAP
0800
0C00
0400
0000
C0C0
E0C0
D0C0
D0C0
C8C0
C4C0
C4C0
C2C0
C1C0
C1C0
C0C0
C0C0
ENDCHAR
STARTCHAR 01F9
ENCODING 505
SWIDTH 600 0
DWIDTH 10 0
BBX 8 13 1 0
BITMAP
20
38
08
00
FC
C6
C2
C2
C3
C3
C3
C3
C3
ENDCHAR
STARTCHAR 01FA
ENCODING 506
SWIDTH 660 0
DWIDTH 11 0
BBX 11 17 0 0
BITMAP
0600
0C00
0400
0A00
0A00
0E00
0E00
0A00
1B00
1900
1180
3180
3080
7FC0
60C0
4060
C060
ENDCHAR
STARTCHAR 01FB
ENCODING 507
SWIDTH 540 0
DWIDTH 9 0
BBX 7 16 1 0
BITMAP
18
30
38
28
28
38
00
78
04
06
7E
C6
86
86
C6
7E
ENDCHAR
STARTCHAR 01FC
ENCODING 508
SWIDTH 960 0
DWIDTH 16 0
BBX 15 16 0 0
BITMAP
0020
0060
0040
0000
01FE
03C0
02C0
06C0
0CC0
08FC
18C0
10C0
3FC0
60C0
60C0
C0FE
ENDCHAR
STARTCHAR 01FD
ENCODING 509
SWIDTH 900 0
DWIDTH 15 0
BBX 13 13 1 0
BITMAP
0100
0300
0400
0000
79E0
0F30
0610
0618
7FF8
C600
8600
C700
7DF0
ENDCHAR
STARTCHAR 01FE
ENCODING 510
SWIDTH 780 0
DWIDTH 13 0
BBX 11 16 1 0
BITMAP
0200
0600
0400
0000
1F60
30C0
61C0
C160
C360
C660
CC60
C860
D860
7040
71C0
DF00
ENDCHAR
STARTCHAR 01FF
ENCODING 511
SWIDTH 600 0
DWIDTH 10 0
BBX 8 13 1 0
BITMAP
04
18
10
00
3D
66
C7
CB
D9
D3
E3
66
BC
ENDCHAR
STARTCHAR 0200
ENCODING 512
SWIDTH 660 0
DWIDTH 11 0
BBX 11 16 0 0
BITMAP
1400
1E00
0A00
0000
0600
0E00
0A00
1B00
1900
1180
3180
3080
7FC0
60C0
4060
C060
ENDCHAR
STARTCHAR 0201
ENCODING 513
SWIDTH 540 0
DWIDTH 9 0
BBX 7 13 1 0
BITMAP
90
D8
48
00
78
04
06
7E
C6
86
86
C6
7E
ENDCHAR
STARTCHAR 0202
ENCODING 514
SWIDTH 660 0
DWIDTH 11 0
BBX 11 15 0 0
BITMAP
0E00
1100
0000
0600
0E00
0A00
1B00
1900
1180
3180
3080
7FC0
60C0
4060
C060
ENDCHAR
STARTCHAR 0203
ENCODING 515
SWIDTH 540 0
DWIDTH 9 0
BBX 7 12 1 0
BITMAP
38
44
00
78
04
06
7E
C6
86
86
C6
7E
ENDCHAR
STARTCHAR 0204
ENCODING 516
SWIDTH 600 0
DWIDTH 10 0
BBX 8 16 1 0
BITMAP
48
6C
24
00
FF
C0
C0
C0
C0
FE
C0
C0
C0
C0
C0
FF
ENDCHAR
STARTCHAR 0205
ENCODING 517
SWIDTH 600 0
DWIDTH 10 0
BBX 8 13 1 0
BITMAP
48
6C
24
00
3C
66
C2
C3
FF
C0
C0
60
3E
ENDCHAR
STARTCHAR 0206
ENCODING 518
SWIDTH 600 0
DWIDTH 10 0
BBX 8 15 1 0
BITMAP
3C
24
00
FF
C0
C0
C0
C0
FE
C0
C0
C0
C0
C0
FF
ENDCHAR
STARTCHAR 0207
ENCODING 519
SWIDTH 600 0
DWIDTH 10 0
BBX 8 12 1 0
BITMAP
38
24
00
3C
66
C2
C3
FF
C0
C0
60
3E
ENDCHAR
STARTCHAR 0208
ENCODING 520
SWIDTH 300 0
DWIDTH 5 0
BBX 5 16 -1 0
BITMAP
90
D8
48
00
30
30
30
30
30
30
30
30
30
30
30
30
ENDCHAR
STARTCHAR 0209
ENCODING 521
SWIDTH 240 0
DWIDTH 4 0
BBX 5 13 -1 0
BITMAP
90
D8
48
00
30
30
30
30
30
30
30
30
30
ENDCHAR
STARTCHAR 020A
ENCODING 522
SWIDTH 300 0
DWIDTH 5 0
BBX 5 15 0 0
BITMAP
70
98
00
60
60
60
60
60
60
60
60
60
60
60
60
ENDCHAR
STARTCHAR 020B
ENCODING 523
SWIDTH 240 0
DWIDTH 4 0
BBX 4 12 0 0
BITMAP
70
90
00
60
60
60
60
60
60
60
60
60
ENDCHAR
STARTCHAR 020C
ENCODING 524
SWIDTH 780 0
DWIDTH 13 0
BBX 11 16 1 0
BITMAP
1400
1600
0A00
0000
1F00
31C0
6040
C060
C060
C060
C060
C060
C060
6040
31C0
1F00
ENDCHAR
STARTCHAR 020D
ENCODING 525
SWIDTH 600 0
DWIDTH 10 0
BBX 8 13 1 0
BITMAP
48
6C
24
00
3C
66
C3
C3
C1
C3
C3
66
3C
ENDCHAR
STARTCHAR 020E
ENCODING 526
SWIDTH 780 0
DWIDTH 13 0
BBX 11 15 1 0
BITMAP
0E00
1900
0000
1F00
31C0
6040
C060
C060
C060
C060
C060
C060
6040
31C0
1F00
ENDCHAR
STARTCHAR 020F
ENCODING 527
SWIDTH 600 0
DWIDTH 10 0
BBX 8 12 1 0
BITMAP
3C
24
00
3C
66
C3
C3
C1
C3
C3
66
3C
ENDCHAR
STARTCHAR 0210
ENCODING 528
SWIDTH 660 0
DWIDTH 11 0
BBX 9 16 1 0
BITMAP
4800
6C00
2400
0000
FE00
C300
C180
C180
C180
C300
FE00
C600
C200
C300
C180
C180
ENDCHAR
STARTCHAR 0211
ENCODING 529
SWIDTH 420 0
DWIDTH 7 0
BBX 5 13 1 0
BITMAP
90
D8
48
00
78
C0
C0
C0
C0
C0
C0
C0
C0
ENDCHAR
STARTCHAR 0212
ENCODING 530
SWIDTH 660 0
DWIDTH 11 0
BBX 9 15 1 0
BITMAP
3C00
2400
0000
FE00
C300
C180
C180
C180
C300
FE00
C600
C200
C300
C180
C180
ENDCHAR
STARTCHAR 0213
ENCODING 531
SWIDTH 420 0
DWIDTH 7 0
BBX 5 12 1 0
BITMAP
70
48
00
78
C0
C0
C0
C0
C0
C0
C0
C0
ENDCHAR
STARTCHAR 0214
ENCODING 532
SWIDTH 720 0
DWIDTH 12 0
BBX 9 16 1 0
BITMAP
2400
3400
1200
0000
C080
C080
C080
C080
C080
C080
C080
C080
C080
4180
6100
1E00
ENDCHAR
STARTCHAR 0215
ENCODING 533
SWIDTH 600 0
DWIDTH 10 0
BBX 7 13 1 0
BITMAP
48
68
24
00
C2
C2
C2
C2
C2
C2
C2
62
3E
ENDCHAR
STARTCHAR 0216
ENCODING 534
SWIDTH 720 0
DWIDTH 12 0
BBX 9 15 1 0
BITMAP
1C00
1200
0000
C080
C080
C080
C080
C080
C080
C080
C080
C080
4180
6100
1E00
ENDCHAR
STARTCHAR 0217
ENCODING 535
SWIDTH 600 0
DWIDTH 10 0
BBX 7 12 1 0
BITMAP
38
24
00
C2
C2
C2
C2
C2
C2
C2
62
3E
ENDCHAR
STARTCHAR 0218
ENCODING 536
SWIDTH 540 0
DWIDTH 9 0
BBX 7 15 1 -3
BITMAP
7C
C2
C0
C0
C0
70
0C
06
02
02
86
FC
00
10
30
ENDCHAR
STARTCHAR 0219
ENCODING 537
SWIDTH 480 0
DWIDTH 8 0
BBX 6 12 1 -3
BITMAP
78
C0
80
C0
30
18
0C
0C
F8
00
20
60
ENDCHAR
STARTCHAR 021A
ENCODING 538
SWIDTH 600 0
DWIDTH 10 0
BBX 9 15 0 -3
BITMAP
FF80
0C00
0C00
0C00
0C00
0C00
0C00
0C00
0C00
0C00
0C00
0C00
0000
0C00
1800
ENDCHAR
STARTCHAR 021B
ENCODING 539
SWIDTH 420 0
DWIDTH 7 0
BBX 6 15 1 -3
BITMAP
C0
C0
C0
F8
C0
C0
C0
C0
C0
C0
40
7C
00
30
60
ENDCHAR
STARTCHAR 021C
ENCODING 540
SWIDTH 540 0
DWIDTH 9 0
BBX 8 15 0 -3
BITMAP
7C
06
02
03
03
02
06
3C
06
03
03
03
03
06
F8
ENDCHAR
STARTCHAR 021D
ENCODING 541
SWIDTH 420 0
DWIDTH 7 0
BBX 7 12 0 -3
BITMAP
F8
8C
04
04
0C
30
0C
06
06
04
0C
F0
ENDCHAR
STARTCHAR 021E
ENCODING 542
SWIDTH 720 0
DWIDTH 12 0
BBX 10 16 1 0
BITMAP
1200
1C00
0800
0000
C0C0
C0C0
C0C0
C0C0
C0C0
FFC0
C0C0
C0C0
C0C0
C0C0
C0C0
C0C0
ENDCHAR
STARTCHAR 021F
ENCODING 543
SWIDTH 600 0
DWIDTH 10 0
BBX 8 16 1 0
BITMAP
90
60
00
C0
C0
C0
C0
FC
C6
C2
C2
C3
C3
C3
C3
C3
ENDCHAR
STARTCHAR 0220
ENCODING 544
SWIDTH 660 0
DWIDTH 11 0
BBX 9 15 1 -3
BITMAP
7E00
C300
C180
C180
C180
C180
C180
C180
C180
C180
C180
C180
0180
0180
0180
ENDCHAR
STARTCHAR 0221
ENCODING 545
SWIDTH 720 0
DWIDTH 12 0
BBX 11 16 1 -3
BITMAP
0300
0300
0300
0300
3F00
6300
C300
C300
C300
C300
C300
63E0
3F20
0320
0720
05E0
ENDCHAR
STARTCHAR 0222
ENCODING 546
SWIDTH 660 0
DWIDTH 11 0
BBX 10 12 1 0
BITMAP
4180
4180
4180
4180
6300
3E00
E180
C080
C0C0
C080
E180
3F00
ENDCHAR
STARTCHAR 0223
ENCODING 547
SWIDTH 600 0
DWIDTH 10 0
BBX 8 13 1 0
BITMAP
42
43
C3
43
42
3C
62
C3
C1
C1
C3
62
3C
ENDCHAR
STARTCHAR 0224
ENCODING 548
SWIDTH 600 0
DWIDTH 10 0
BBX 8 15 1 -3
BITMAP
FF
03
06
0C
08
18
30
20
60
C0
C0
FF
01
03
06
ENDCHAR
STARTCHAR 0225
ENCODING 549
SWIDTH 480 0
DWIDTH 8 0
BBX 6 12 1 -3
BITMAP
FC
0C
18
30
30
60
C0
C0
FC
04
04
1C
ENDCHAR
STARTCHAR 0226
ENCODING 550
SWIDTH 660 0
DWIDTH 11 0
BBX 11 15 0 0
BITMAP
0600
0600
0000
0600
0E00
0A00
1B00
1900
1180
3180
3080
7FC0
60C0
4060
C060
ENDCHAR
STARTCHAR 0227
ENCODING 551
SWIDTH 540 0
DWIDTH 9 0
BBX 7 12 1 0
BITMAP
10
10
00
78
04
06
7E
C6
86
86
C6
7E
ENDCHAR
STARTCHAR 0228
ENCODING 552
SWIDTH 600 0
DWIDTH 10 0
BBX 8 15 1 -3
BITMAP
FF
C0
C0
C0
C0
FE
C0
C0
C0
C0
C0
FF
08
0C
38
ENDCHAR
STARTCHAR 0229
ENCODING 553
SWIDTH 600 0
DWIDTH 10 0
BBX 8 12 1 -3
BITMAP
3C
66
C2
C3
FF
C0
C0
60
3E
18
08
38
ENDCHAR
STARTCHAR 022A
ENCODING 554
SWIDTH 780 0
DWIDTH 13 0
BBX 11 17 1 0
BITMAP
1F00
0000
1900
1900
0000
1F00
31C0
6040
C060
C060
C060
C060
C060
C060
6040
31C0
1F00
ENDCHAR
STARTCHAR 022B
ENCODING 555
SWIDTH 600 0
DWIDTH 10 0
BBX 8 14 1 0
BITMAP
3C
00
66
66
00
3C
66
C3
C3
C1
C3
C3
66
3C
ENDCHAR
STARTCHAR 022C
ENCODING 556
SWIDTH 780 0
DWIDTH 13 0
BBX 11 17 1 0
BITMAP
1F00
0000
0D00
1300
0000
1F00
31C0
6040
C060
C060
C060
C060
C060
C060
6040
31C0
1F00
ENDCHAR
STARTCHAR 022D
ENCODING 557
SWIDTH 600 0
DWIDTH 10 0
BBX 8 14 1 0
BITMAP
3C
00
32
4C
00
3C
66
C3
C3
C1
C3
C3
66
3C
ENDCHAR
STARTCHAR 022E
ENCODING 558
SWIDTH 780 0
DWIDTH 13 0
BBX 11 15 1 0
BITMAP
0600
0600
0000
1F00
31C0
6040
C060
C060
C060
C060
C060
C060
6040
31C0
1F00
ENDCHAR
STARTCHAR 022F
ENCODING 559
SWIDTH 600 0
DWIDTH 10 0
BBX 8 12 1 0
BITMAP
18
18
00
3C
66
C3
C3
C1
C3
C3
66
3C
ENDCHAR
STARTCHAR 0230
ENCODING 560
SWIDTH 780 0
DWIDTH 13 0
BBX 11 17 1 0
BITMAP
1F00
0000
0400
0400
0000
1F00
31C0
6040
C060
C060
C060
C060
C060
C060
6040
31C0
1F00
ENDCHAR
STARTCHAR 0231
ENCODING 561
SWIDTH 600 0
DWIDTH 10 0
BBX 8 14 1 0
BITMAP
3C
00
18
18
00
3C
66
C3
C3
C1
C3
C3
66
3C
ENDCHAR
STARTCHAR 0232
ENCODING 562
SWIDTH 600 0
DWIDTH 10 0
BBX 10 15 0 0
BITMAP
1F00
0000
0000
C0C0
6180
2180
3300
1A00
1E00
0C00
0C00
0C00
0C00
0C00
0C00
ENDCHAR
STARTCHAR 0233
ENCODING 563
SWIDTH 480 0
DWIDTH 8 0
BBX 8 15 0 -3
BITMAP
3E
00
00
C3
43
62
62
26
36
14
1C
08
08
10
E0
ENDCHAR
STARTCHAR 0234
ENCODING 564
SWIDTH 420 0
DWIDTH 7 0
BBX 7 16 0 -3
BITMAP
20
20
20
20
20
20
20
20
20
20
20
3C
22
62
76
9C
ENDCHAR
STARTCHAR 0235
ENCODING 565
SWIDTH 720 0
DWIDTH 12 0
BBX 11 12 1 -3
BITMAP
FC00
C600
C200
C200
C300
C300
C300
C300
C3E0
0320
0720
0DE0
ENDCHAR
STARTCHAR 0236
ENCODING 566
SWIDTH 420 0
DWIDTH 7 0
BBX 7 16 0 -3
BITMAP
20
20
20
20
3C
20
20
20
20
20
20
3C
22
62
76
9C
ENDCHAR
STARTCHAR 0237
ENCODING 567
SWIDTH 240 0
DWIDTH 4 0
BBX 4 12 -1 -3
BITMAP
30
30
30
30
30
30
30
30
30
30
30
E0
ENDCHAR
STARTCHAR 0238
ENCODING 568
SWIDTH 960 0
DWIDTH 16 0
BBX 14 13 1 0
BITMAP
0300
0300
0300
0300
3FF0
6318
C30C
C30C
C30C
C30C
C30C
6318
3FF0
ENDCHAR
STARTCHAR 0239
ENCODING 569
SWIDTH 960 0
DWIDTH 16 0
BBX 14 12 1 -3
BITMAP
3FF0
6318
C308
C30C
C30C
C30C
C30C
6318
3FF0
0300
0300
0300
ENDCHAR
STARTCHAR 023A
ENCODING 570
SWIDTH 660 0
DWIDTH 11 0
BBX 11 15 0 -2
BITMAP
0080
0680
0F80
0B00
1B00
1B00
1380
3380
3680
7FC0
6C40
4860
C860
1800
1000
ENDCHAR
STARTCHAR 023B
ENCODING 571
SWIDTH 660 0
DWIDTH 11 0
BBX 9 14 1 -1
BITMAP
0180
1F80
3380
6200
C200
C600
C400
CC00
C800
C800
7800
3080
3F80
2000
ENDCHAR
STARTCHAR 023C
ENCODING 572
SWIDTH 480 0
DWIDTH 8 0
BBX 7 11 1 -1
BITMAP
04
3E
48
C8
C8
D0
D0
D0
70
3E
20
ENDCHAR
STARTCHAR 023D
ENCODING 573
SWIDTH 540 0
DWIDTH 9 0
BBX 9 12 0 0
BITMAP
2000
2000
2000
2000
2000
FC00
2000
2000
2000
2000
2000
3F80
ENDCHAR
STARTCHAR 023E
ENCODING 574
SWIDTH 660 0
DWIDTH 11 0
BBX 10 14 0 -1
BITMAP
0040
FFC0
0C80
0D80
0F00
0E00
0E00
0C00
0C00
1C00
3C00
2C00
6C00
4000
ENDCHAR
STARTCHAR 023F
ENCODING 575
SWIDTH 480 0
DWIDTH 8 0
BBX 6 12 1 -3
BITMAP
78
C0
80
C0
30
18
0C
0C
F8
40
20
1C
ENDCHAR
STARTCHAR 0240
ENCODING 576
SWIDTH 480 0
DWIDTH 8 0
BBX 7 12 1 -3
BITMAP
FC
0C
18
30
30
60
C0
C0
E0
30
18
0E
ENDCHAR
STARTCHAR 0241
ENCODING 577
SWIDTH 480 0
DWIDTH 8 0
BBX 7 12 1 0
BITMAP
F8
0C
06
06
0C
18
30
60
60
60
60
60
ENDCHAR
STARTCHAR 0242
ENCODING 578
SWIDTH 420 0
DWIDTH 7 0
BBX 6 9 1 0
BITMAP
F8
08
0C
08
38
60
40
40
40
ENDCHAR
STARTCHAR 0243
ENCODING 579
SWIDTH 660 0
DWIDTH 11 0
BBX 10 12 0 0
BITMAP
3F00
2180
20C0
20C0
2180
3F00
20C0
20C0
F840
20C0
21C0
3F00
ENDCHAR
STARTCHAR 0244
ENCODING 580
SWIDTH 720 0
DWIDTH 12 0
BBX 12 12 0 0
BITMAP
2060
2060
2060
2060
2060
FFF0
2060
2060
2040
3040
10C0
0F00
ENDCHAR
STARTCHAR 0245
ENCODING 581
SWIDTH 660 0
DWIDTH 11 0
BBX 11 12 0 0
BITMAP
0600
0E00
0A00
1B00
1100
3180
3180
2080
60C0
60C0
4040
C060
ENDCHAR
STARTCHAR 0246
ENCODING 582
SWIDTH 600 0
DWIDTH 10 0
BBX 9 15 1 -2
BITMAP
0180
FF00
C300
C200
C600
C400
FE00
C800
C800
D800
D000
D000
FF00
2000
6000
ENDCHAR
STARTCHAR 0247
ENCODING 583
SWIDTH 600 0
DWIDTH 10 0
BBX 8 11 1 -1
BITMAP
04
3C
6E
CB
CB
FF
D0
D0
70
3E
60
ENDCHAR
STARTCHAR 0248
ENCODING 584
SWIDTH 540 0
DWIDTH 9 0
BBX 8 12 0 0
BITMAP
06
06
06
06
06
1F
06
06
06
06
84
78
ENDCHAR
STARTCHAR 0249
ENCODING 585
SWIDTH 300 0
DWIDTH 5 0
BBX 6 16 -1 -3
BITMAP
10
10
00
00
10
10
10
10
7C
10
10
10
10
10
30
E0
ENDCHAR
STARTCHAR 024A
ENCODING 586
SWIDTH 780 0
DWIDTH 13 0
BBX 13 15 1 -3
BITMAP
1F00
3180
6040
C060
C060
C060
C060
C060
C060
6060
31A0
1F20
0020
0020
0038
ENDCHAR
STARTCHAR 024B
ENCODING 587
SWIDTH 600 0
DWIDTH 10 0
BBX 10 12 1 -3
BITMAP
3F00
6300
C300
C300
C300
C300
C300
6300
3F00
0300
0300
01C0
ENDCHAR
STARTCHAR 024C
ENCODING 588
SWIDTH 660 0
DWIDTH 11 0
BBX 10 12 0 0
BITMAP
3F00
2180
20C0
20C0
20C0
2180
FF00
2300
2180
2180
20C0
2040
ENDCHAR
STARTCHAR 024D
ENCODING 589
SWIDTH 420 0
DWIDTH 7 0
BBX 6 9 0 0
BITMAP
3C
60
60
60
FC
60
60
60
60
ENDCHAR
STARTCHAR 024E
ENCODING 590
SWIDTH 660 0
DWIDTH 11 0
BBX 10 12 0 0
BITMAP
C0C0
6080
2180
FFC0
1B00
1A00
0E00
0C00
0C00
0C00
0C00
0C00
ENDCHAR
STARTCHAR 024F
ENCODING 591
SWIDTH 540 0
DWIDTH 9 0
BBX 9 12 0 -3
BITMAP
4100
6300
6300
2200
FF80
1600
1400
1C00
0C00
0800
1800
F000
ENDCHAR
STARTCHAR 0292
ENCODING 658
SWIDTH 480 0
DWIDTH 8 0
BBX 7 12 0 -3
BITMAP
FE
04
0C
08
10
3C
06
02
02
02
06
F8
ENDCHAR
STARTCHAR 02BC
ENCODING 700
SWIDTH 360 0
DWIDTH 6 0
BBX 2 4 2 9
BITMAP
40
40
C0
80
ENDCHAR
STARTCHAR 02C6
ENCODING 710
SWIDTH 360 0
DWIDTH 6 0
BBX 4 3 1 10
BITMAP
20
50
90
ENDCHAR
STARTCHAR 02C7
ENCODING 711
SWIDTH 360 0
DWIDTH 6 0
BBX 4 3 1 10
BITMAP
90
50
20
ENDCHAR
STARTCHAR 02C9
ENCODING 713
SWIDTH 360 0
DWIDTH 6 0
BBX 5 1 1 11
BITMAP
F8
ENDCHAR
STARTCHAR 02D8
ENCODING 728
SWIDTH 360 0
DWIDTH 6 0
BBX 4 2 1 10
BITMAP
90
70
ENDCHAR
STARTCHAR 02D9
ENCODING 729
SWIDTH 360 0
DWIDTH 6 0
BBX 2 2 2 10
BITMAP
C0
C0
ENDCHAR
STARTCHAR 02DA
ENCODING 730
SWIDTH 360 0
DWIDTH 6 0
BBX 4 4 1 10
BITMAP
60
90
90
60
ENDCHAR
STARTCHAR 02DB
ENCODING 731
SWIDTH 360 0
DWIDTH 6 0
BBX 3 3 1 -3
BITMAP
40
C0
E0
ENDCHAR
STARTCHAR 02DC
ENCODING 732
SWIDTH 360 0
DWIDTH 6 0
BBX 6 2 0 11
BITMAP
64
98
ENDCHAR
STARTCHAR 02DD
ENCODING 733
SWIDTH 360 0
DWIDTH 6 0
BBX 5 3 1 10
BITMAP
48
D8
90
ENDCHAR
STARTCHAR 0311
ENCODING 785
SWIDTH 360 0
DWIDTH 6 0
BBX 4 2 1 10
BITMAP
70
90
ENDCHAR
STARTCHAR 0384
ENCODING 900
SWIDTH 360 0
DWIDTH 6 0
BBX 2 4 3 10
BITMAP
40
C0
80
80
ENDCHAR
STARTCHAR 0385
ENCODING 901
SWIDTH 360 0
DWIDTH 6 0
BBX 6 4 0 10
BITMAP
10
D4
F4
20
ENDCHAR
STARTCHAR 0386
ENCODING 902
SWIDTH 660 0
DWIDTH 11 0
BBX 11 12 0 0
BITMAP
2600
6E00
4A00
1B00
1900
1180
3180
3080
7FC0
60C0
4060
C060
ENDCHAR
STARTCHAR 0388
ENCODING 904
SWIDTH 660 0
DWIDTH 11 0
BBX 10 12 0 0
BITMAP
DFC0
9000
9000
1000
1000
1F80
1000
1000
1000
1000
1000
1FC0
ENDCHAR
STARTCHAR 0389
ENCODING 905
SWIDTH 780 0
DWIDTH 13 0
BBX 12 12 0 0
BITMAP
D030
9030
9030
1030
1030
1FF0
1030
1030
1030
1030
1030
1030
ENDCHAR
STARTCHAR 038A
ENCODING 906
SWIDTH 360 0
DWIDTH 6 0
BBX 4 12 0 0
BITMAP
D0
90
90
10
10
10
10
10
10
10
10
10
ENDCHAR
STARTCHAR 038C
ENCODING 908
SWIDTH 840 0
DWIDTH 14 0
BBX 13 12 0 0
BITMAP
C780
9860
B030
3030
2018
6018
6018
2018
3030
3030
1860
0780
ENDCHAR
STARTCHAR 038E
ENCODING 910
SWIDTH 720 0
DWIDTH 12 0
BBX 12 12 0 0
BITMAP
D030
9820
8C60
0CC0
06C0
0780
0300
0300
0300
0300
0300
0300
ENDCHAR
STARTCHAR 038F
ENCODING 911
SWIDTH 840 0
DWIDTH 14 0
BBX 13 12 0 0
BITMAP
C780
9860
B030
3030
2010
2018
2018
2010
3030
1030
1860
7CF8
ENDCHAR
STARTCHAR 0390
ENCODING 912
SWIDTH 300 0
DWIDTH 5 0
BBX 6 14 -1 0
BITMAP
10
D4
F4
20
00
30
30
30
30
30
30
30
30
18
ENDCHAR
STARTCHAR 0391
ENCODING 913
SWIDTH 660 0
DWIDTH 11 0
BBX 11 12 0 0
BITMAP
0600
0E00
0A00
1B00
1900
1180
3180
3080
7FC0
60C0
4060
C060
ENDCHAR
STARTCHAR 0392
ENCODING 914
SWIDTH 660 0
DWIDTH 11 0
BBX 9 12 1 0
BITMAP
FE00
C300
C100
C100
C300
FE00
C380
C180
C180
C180
C300
FE00
ENDCHAR
STARTCHAR 0393
ENCODING 915
SWIDTH 540 0
DWIDTH 9 0
BBX 7 12 1 0
BITMAP
FE
C0
C0
C0
C0
C0
C0
C0
C0
C0
C0
C0
ENDCHAR
STARTCHAR 0394
ENCODING 916
SWIDTH 660 0
DWIDTH 11 0
BBX 11 12 0 0
BITMAP
0600
0A00
0A00
1B00
1100
3180
3180
2080
60C0
60C0
4040
FFE0
ENDCHAR
STARTCHAR 0395
ENCODING 917
SWIDTH 600 0
DWIDTH 10 0
BBX 8 12 1 0
BITMAP
FF
C0
C0
C0
C0
FE
C0
C0
C0
C0
C0
FF
ENDCHAR
STARTCHAR 0396
ENCODING 918
SWIDTH 600 0
DWIDTH 10 0
BBX 8 12 1 0
BITMAP
FF
03
06
0C
0C
18
30
30
60
C0
C0
FF
ENDCHAR
STARTCHAR 0397
ENCODING 919
SWIDTH 720 0
DWIDTH 12 0
BBX 10 12 1 0
BITMAP
C0C0
C0C0
C0C0
C0C0
C0C0
FFC0
C0C0
C0C0
C0C0
C0C0
C0C0
C0C0
ENDCHAR
STARTCHAR 0398
ENCODING 920
SWIDTH 780 0
DWIDTH 13 0
BBX 11 12 1 0
BITMAP
1F00
31C0
6040
C060
C060
DF60
C060
C060
C060
6040
31C0
1F00
ENDCHAR
STARTCHAR 0399
ENCODING 921
SWIDTH 300 0
DWIDTH 5 0
BBX 2 12 1 0
BITMAP
C0
C0
C0
C0
C0
C0
C0
C0
C0
C0
C0
C0
ENDCHAR
STARTCHAR 039A
ENCODING 922
SWIDTH 660 0
DWIDTH 11 0
BBX 9 12 1 0
BITMAP
C180
C300
C600
CC00
D800
F000
D800
CC00
C600
C300
C180
C180
ENDCHAR
STARTCHAR 039B
ENCODING 923
SWIDTH 660 0
DWIDTH 11 0
BBX 11 12 0 0
BITMAP
0600
0E00
0A00
1B00
1100
3180
3180
2080
60C0
60C0
4040
C060
ENDCHAR
STARTCHAR 039C
ENCODING 924
SWIDTH 900 0
DWIDTH 15 0
BBX 13 12 1 0
BITMAP
6030
6050
5050
5050
4890
4890
C910
C510
C510
C218
C018
C018
ENDCHAR
STARTCHAR 039D
ENCODING 925
SWIDTH 720 0
DWIDTH 12 0
BBX 10 12 1 0
BITMAP
C0C0
E0C0
D0C0
D0C0
C8C0
C4C0
C4C0
C2C0
C1C0
C1C0
C0C0
C0C0
ENDCHAR
STARTCHAR 039E
ENCODING 926
SWIDTH 540 0
DWIDTH 9 0
BBX 8 12 1 0
BITMAP
FF
00
00
00
00
7E
00
00
00
00
00
FF
ENDCHAR
STARTCHAR 039F
ENCODING 927
SWIDTH 780 0
DWIDTH 13 0
BBX 11 12 1 0
BITMAP
1F00
31C0
6040
C060
C060
C060
C060
C060
C060
6040
31C0
1F00
ENDCHAR
STARTCHAR 03A0
ENCODING 928
SWIDTH 720 0
DWIDTH 12 0
BBX 9 12 1 0
BITMAP
FF80
C080
C080
C080
C080
C080
C080
C080
C080
C080
C080
C080
ENDCHAR
STARTCHAR 03A1
ENCODING 929
SWIDTH 600 0
DWIDTH 10 0
BBX 9 12 1 0
BITMAP
FE00
C300
C180
C180
C180
C180
C300
FE00
C000
C000
C000
C000
ENDCHAR
STARTCHAR 03A3
ENCODING 931
SWIDTH 600 0
DWIDTH 10 0
BBX 8 12 1 0
BITMAP
FF
C0
60
20
30
18
18
30
60
60
C0
FF
ENDCHAR
STARTCHAR 03A4
ENCODING 932
SWIDTH 600 0
DWIDTH 10 0
BBX 9 12 0 0
BITMAP
FF80
0C00
0C00
0C00
0C00
0C00
0C00
0C00
0C00
0C00
0C00
0C00
ENDCHAR
STARTCHAR 03A5
ENCODING 933
SWIDTH 600 0
DWIDTH 10 0
BBX 10 12 0 0
BITMAP
C0C0
6180
2180
3300
1A00
1E00
0C00
0C00
0C00
0C00
0C00
0C00
ENDCHAR
STARTCHAR 03A6
ENCODING 934
SWIDTH 900 0
DWIDTH 15 0
BBX 13 13 1 0
BITMAP
0200
1FC0
2260
4230
C210
C218
C218
C218
C210
4230
2260
1FC0
0200
ENDCHAR
STARTCHAR 03A7
ENCODING 935
SWIDTH 660 0
DWIDTH 11 0
BBX 9 12 1 0
BITMAP
C180
4300
6200
3600
1C00
1800
1C00
3600
2600
6300
C180
8180
ENDCHAR
STARTCHAR 03A8
ENCODING 936
SWIDTH 840 0
DWIDTH 14 0
BBX 12 12 1 0
BITMAP
C630
C630
C630
C630
C630
C630
4620
6660
1F80
0600
0600
0600
ENDCHAR
STARTCHAR 03A9
ENCODING 937
SWIDTH 780 0
DWIDTH 13 0
BBX 11 12 1 0
BITMAP
1F00
30C0
6040
4060
C060
C060
C060
C060
4060
60C0
3080
F1E0
ENDCHAR
STARTCHAR 03AA
ENCODING 938
SWIDTH 300 0
DWIDTH 5 0
BBX 5 15 0 0
BITMAP
D8
D8
00
60
60
60
60
60
60
60
60
60
60
60
60
ENDCHAR
STARTCHAR 03AB
ENCODING 939
SWIDTH 600 0
DWIDTH 10 0
BBX 10 15 0 0
BITMAP
1300
1300
0000
C0C0
6180
2180
3300
1A00
1E00
0C00
0C00
0C00
0C00
0C00
0C00
ENDCHAR
STARTCHAR 03AC
ENCODING 940
SWIDTH 600 0
DWIDTH 10 0
BBX 9 14 1 0
BITMAP
0400
0C00
1800
1000
0000
3E00
6300
C300
C300
C300
C300
C300
6300
3D80
ENDCHAR
STARTCHAR 03AD
ENCODING 941
SWIDTH 540 0
DWIDTH 9 0
BBX 7 14 1 0
BITMAP
08
18
10
10
00
3E
40
C0
C0
78
C0
C0
C0
7E
ENDCHAR
STARTCHAR 03AE
ENCODING 942
SWIDTH 600 0
DWIDTH 10 0
BBX 8 17 1 -3
BITMAP
08
08
18
10
00
FC
C6
C2
C2
C3
C3
C3
C3
C3
03
03
03
ENDCHAR
STARTCHAR 03AF
ENCODING 943
SWIDTH 300 0
DWIDTH 5 0
BBX 3 14 1 0
BITMAP
20
60
C0
80
00
C0
C0
C0
C0
C0
C0
C0
C0
60
ENDCHAR
STARTCHAR 03B0
ENCODING 944
SWIDTH 600 0
DWIDTH 10 0
BBX 8 14 1 0
BITMAP
08
5A
52
10
00
C3
C3
C3
C3
C3
C3
C2
46
3C
ENDCHAR
STARTCHAR 03B1
ENCODING 945
SWIDTH 600 0
DWIDTH 10 0
BBX 9 9 1 0
BITMAP
3E00
6300
C300
C300
C300
C300
C300
6300
3D80
ENDCHAR
STARTCHAR 03B2
ENCODING 946
SWIDTH 600 0
DWIDTH 10 0
BBX 8 16 1 -3
BITMAP
3C
62
43
C3
C6
CC
C3
C1
C1
C1
C1
C3
FE
C0
C0
C0
ENDCHAR
STARTCHAR 03B3
ENCODING 947
SWIDTH 540 0
DWIDTH 9 0
BBX 7 12 1 -3
BITMAP
86
C6
C4
44
4C
68
68
30
30
30
30
30
ENDCHAR
STARTCHAR 03B4
ENCODING 948
SWIDTH 600 0
DWIDTH 10 0
BBX 8 13 1 0
BITMAP
3E
20
60
20
3C
42
C3
C3
C1
C3
C3
66
3C
ENDCHAR
STARTCHAR 03B5
ENCODING 949
SWIDTH 540 0
DWIDTH 9 0
BBX 7 9 1 0
BITMAP
3E
40
C0
C0
78
C0
C0
C0
7E
ENDCHAR
STARTCHAR 03B6
ENCODING 950
SWIDTH 480 0
DWIDTH 8 0
BBX 7 16 1 -3
BITMAP
FC
0C
18
30
60
60
C0
C0
C0
C0
C0
C0
3C
06
06
04
ENDCHAR
STARTCHAR 03B7
ENCODING 951
SWIDTH 600 0
DWIDTH 10 0
BBX 8 12 1 -3
BITMAP
FC
C6
C2
C2
C3
C3
C3
C3
C3
03
03
03
ENDCHAR
STARTCHAR 03B8
ENCODING 952
SWIDTH 600 0
DWIDTH 10 0
BBX 8 13 1 0
BITMAP
3C
66
43
C3
C1
C1
FF
C1
C1
C3
43
66
3C
ENDCHAR
STARTCHAR 03B9
ENCODING 953
SWIDTH 300 0
DWIDTH 5 0
BBX 3 9 1 0
BITMAP
C0
C0
C0
C0
C0
C0
C0
C0
60
ENDCHAR
STARTCHAR 03BA
ENCODING 954
SWIDTH 540 0
DWIDTH 9 0
BBX 8 9 1 0
BITMAP
C6
CC
D8
F0
F0
D8
CC
C6
C3
ENDCHAR
STARTCHAR 03BB
ENCODING 955
SWIDTH 540 0
DWIDTH 9 0
BBX 8 13 0 0
BITMAP
60
10
18
08
0C
1C
14
36
26
62
63
43
C1
ENDCHAR
STARTCHAR 03BC
ENCODING 956
SWIDTH 600 0
DWIDTH 10 0
BBX 8 12 1 -3
BITMAP
C3
C3
C3
C3
C3
C3
C3
E3
DF
C0
C0
C0
ENDCHAR
STARTCHAR 03BD
ENCODING 957
SWIDTH 540 0
DWIDTH 9 0
BBX 8 9 0 0
BITMAP
C3
43
63
62
26
34
3C
1C
18
ENDCHAR
STARTCHAR 03BE
ENCODING 958
SWIDTH 480 0
DWIDTH 8 0
BBX 7 16 1 -3
BITMAP
3C
60
40
C0
40
60
3C
60
C0
80
C0
E0
3C
06
06
04
ENDCHAR
STARTCHAR 03BF
ENCODING 959
SWIDTH 600 0
DWIDTH 10 0
BBX 8 9 1 0
BITMAP
3C
66
C3
C3
C1
C3
C3
66
3C
ENDCHAR
STARTCHAR 03C0
ENCODING 960
SWIDTH 600 0
DWIDTH 10 0
BBX 7 9 1 0
BITMAP
FE
C2
C2
C2
C2
C2
C2
C2
C2
ENDCHAR
STARTCHAR 03C1
ENCODING 961
SWIDTH 600 0
DWIDTH 10 0
BBX 8 12 1 -3
BITMAP
3C
62
C3
C1
C1
C1
C3
C6
FC
C0
C0
C0
ENDCHAR
STARTCHAR 03C2
ENCODING 962
SWIDTH 480 0
DWIDTH 8 0
BBX 6 12 1 -3
BITMAP
3C
60
C0
C0
C0
C0
C0
60
3C
04
04
0C
ENDCHAR
STARTCHAR 03C3
ENCODING 963
SWIDTH 600 0
DWIDTH 10 0
BBX 9 9 1 0
BITMAP
3F80
6600
C300
C300
C300
C300
C300
6600
3C00
ENDCHAR
STARTCHAR 03C4
ENCODING 964
SWIDTH 480 0
DWIDTH 8 0
BBX 7 9 0 0
BITMAP
FE
10
10
10
10
10
10
18
0E
ENDCHAR
STARTCHAR 03C5
ENCODING 965
SWIDTH 600 0
DWIDTH 10 0
BBX 8 9 1 0
BITMAP
C3
C3
C3
C3
C3
C3
C2
46
3C
ENDCHAR
STARTCHAR 03C6
ENCODING 966
SWIDTH 780 0
DWIDTH 13 0
BBX 11 12 1 -3
BITMAP
3F80
64C0
C460
C420
8420
C420
C460
64C0
3F80
0400
0400
0400
ENDCHAR
STARTCHAR 03C7
ENCODING 967
SWIDTH 540 0
DWIDTH 9 0
BBX 7 9 1 0
BITMAP
C6
CC
68
38
30
38
6C
C4
86
ENDCHAR
STARTCHAR 03C8
ENCODING 968
SWIDTH 780 0
DWIDTH 13 0
BBX 11 12 1 -3
BITMAP
C460
C460
C460
C460
C460
C460
4460
64C0
3F80
0400
0400
0400
ENDCHAR
STARTCHAR 03C9
ENCODING 969
SWIDTH 840 0
DWIDTH 14 0
BBX 12 9 1 0
BITMAP
6060
4030
C630
C610
C610
C610
C630
4730
39E0
ENDCHAR
STARTCHAR 03CA
ENCODING 970
SWIDTH 300 0
DWIDTH 5 0
BBX 5 12 0 0
BITMAP
98
98
00
60
60
60
60
60
60
60
60
30
ENDCHAR
STARTCHAR 03CB
ENCODING 971
SWIDTH 600 0
DWIDTH 10 0
BBX 8 12 1 0
BITMAP
64
64
00
C3
C3
C3
C3
C3
C3
C2
46
3C
ENDCHAR
STARTCHAR 03CC
ENCODING 972
SWIDTH 600 0
DWIDTH 10 0
BBX 8 14 1 0
BITMAP
08
0C
18
10
00
3C
66
C3
C3
C1
C3
C3
66
3C
ENDCHAR
STARTCHAR 03CD
ENCODING 973
SWIDTH 600 0
DWIDTH 10 0
BBX 8 14 1 0
BITMAP
08
08
18
10
00
C3
C3
C3
C3
C3
C3
C2
46
3C
ENDCHAR
STARTCHAR 03CE
ENCODING 974
SWIDTH 840 0
DWIDTH 14 0
BBX 12 14 1 0
BITMAP
0200
0300
0600
0400
0000
6060
4030
C630
C610
C610
C610
C630
4730
39E0
ENDCHAR
STARTCHAR 0400
ENCODING 1024
SWIDTH 600 0
DWIDTH 10 0
BBX 8 16 1 0
BITMAP
10
18
08
00
FF
C0
C0
C0
C0
FE
C0
C0
C0
C0
C0
FF
ENDCHAR
STARTCHAR 0401
ENCODING 1025
SWIDTH 600 0
DWIDTH 10 0
BBX 8 15 1 0
BITMAP
26
26
00
FF
C0
C0
C0
C0
FE
C0
C0
C0
C0
C0
FF
ENDCHAR
STARTCHAR 0402
ENCODING 1026
SWIDTH 780 0
DWIDTH 13 0
BBX 12 12 0 0
BITMAP
FF80
0800
0800
0800
0800
0FC0
0860
0830
0830
0830
0830
08E0
ENDCHAR
STARTCHAR 0403
ENCODING 1027
SWIDTH 540 0
DWIDTH 9 0
BBX 7 16 1 0
BITMAP
08
18
10
00
FE
C0
C0
C0
C0
C0
C0
C0
C0
C0
C0
C0
ENDCHAR
STARTCHAR 0404
ENCODING 1028
SWIDTH 660 0
DWIDTH 11 0
BBX 9 12 1 0
BITMAP
1F80
3000
6000
C000
C000
FE00
C000
C000
C000
6000
3080
1F80
ENDCHAR
STARTCHAR 0405
ENCODING 1029
SWIDTH 540 0
DWIDTH 9 0
BBX 7 12 1 0
BITMAP
7C
C2
C0
C0
C0
70
0C
06
02
02
86
FC
ENDCHAR
STARTCHAR 0406
ENCODING 1030
SWIDTH 300 0
DWIDTH 5 0
BBX 2 12 1 0
BITMAP
C0
C0
C0
C0
C0
C0
C0
C0
C0
C0
C0
C0
ENDCHAR
STARTCHAR 0407
ENCODING 1031
SWIDTH 300 0
DWIDTH 5 0
BBX 5 15 0 0
BITMAP
D8
D8
00
60
60
60
60
60
60
60
60
60
60
60
60
ENDCHAR
STARTCHAR 0408
ENCODING 1032
SWIDTH 540 0
DWIDTH 9 0
BBX 6 12 1 0
BITMAP
0C
0C
0C
0C
0C
0C
0C
0C
0C
0C
0C
F8
ENDCHAR
STARTCHAR 0409
ENCODING 1033
SWIDTH 1080 0
DWIDTH 18 0
BBX 17 12 0 0
BITMAP
0FE000
086000
086000
086000
086000
087E00
086300
186180
186180
106180
306300
C07E00
ENDCHAR
STARTCHAR 040A
ENCODING 1034
SWIDTH 1020 0
DWIDTH 17 0
BBX 16 12 1 0
BITMAP
C080
C080
C080
C080
C080
FFFC
C086
C083
C083
C083
C086
C0FC
ENDCHAR
STARTCHAR 040B
ENCODING 1035
SWIDTH 780 0
DWIDTH 13 0
BBX 12 12 0 0
BITMAP
FF80
0800
0800
0800
0800
0FC0
0860
0820
0830
0830
0830
0830
ENDCHAR
STARTCHAR 040C
ENCODING 1036
SWIDTH 660 0
DWIDTH 11 0
BBX 9 16 1 0
BITMAP
0400
0C00
0800
0000
C180
C300
C600
CC00
D800
F000
D800
CC00
C600
C300
C180
C180
ENDCHAR
STARTCHAR 040D
ENCODING 1037
SWIDTH 720 0
DWIDTH 12 0
BBX 10 16 1 0
BITMAP
0800
0C00
0400
0000
C0C0
C1C0
C1C0
C3C0
C6C0
C4C0
C8C0
D8C0
D0C0
E0C0
E0C0
C0C0
ENDCHAR
STARTCHAR 040E
ENCODING 1038
SWIDTH 600 0
DWIDTH 10 0
BBX 9 15 1 0
BITMAP
2600
1C00
0000
8180
C100
C300
6300
6200
3600
3400
1C00
0C00
0800
1000
E000
ENDCHAR
STARTCHAR 040F
ENCODING 1039
SWIDTH 720 0
DWIDTH 12 0
BBX 9 15 1 -3
BITMAP
C080
C080
C080
C080
C080
C080
C080
C080
C080
C080
C080
FF80
0C00
0C00
0C00
ENDCHAR
STARTCHAR 0410
ENCODING 1040
SWIDTH 660 0
DWIDTH 11 0
BBX 11 12 0 0
BITMAP
0600
0E00
0A00
1B00
1900
1180
3180
3080
7FC0
60C0
4060
C060
ENDCHAR
STARTCHAR 0411
ENCODING 1041
SWIDTH 660 0
DWIDTH 11 0
BBX 9 12 1 0
BITMAP
FF00
C000
C000
C000
C000
FE00
C300
C180
C180
C180
C300
FE00
ENDCHAR
STARTCHAR 0412
ENCODING 1042
SWIDTH 660 0
DWIDTH 11 0
BBX 9 12 1 0
BITMAP
FE00
C300
C100
C100
C300
FE00
C380
C180
C180
C180
C300
FE00
ENDCHAR
STARTCHAR 0413
ENCODING 1043
SWIDTH 540 0
DWIDTH 9 0
BBX 7 12 1 0
BITMAP
FE
C0
C0
C0
C0
C0
C0
C0
C0
C0
C0
C0
ENDCHAR
STARTCHAR 0414
ENCODING 1044
SWIDTH 720 0
DWIDTH 12 0
BBX 12 15 0 -3
BITMAP
0FE0
0860
0860
0860
0860
0860
1860
1860
1860
3060
3060
FFF0
C030
C030
C030
ENDCHAR
STARTCHAR 0415
ENCODING 1045
SWIDTH 600 0
DWIDTH 10 0
BBX 8 12 1 0
BITMAP
FF
C0
C0
C0
C0
FE
C0
C0
C0
C0
C0
FF
ENDCHAR
STARTCHAR 0416
ENCODING 1046
SWIDTH 900 0
DWIDTH 15 0
BBX 14 12 1 0
BITMAP
C218
6210
3230
1260
1FC0
0A80
1240
3220
2230
6210
C218
820C
ENDCHAR
STARTCHAR 0417
ENCODING 1047
SWIDTH 600 0
DWIDTH 10 0
BBX 8 12 1 0
BITMAP
7C
86
02
02
06
78
06
03
03
03
86
FC
ENDCHAR
STARTCHAR 0418
ENCODING 1048
SWIDTH 720 0
DWIDTH 12 0
BBX 10 12 1 0
BITMAP
C0C0
C1C0
C1C0
C3C0
C6C0
C4C0
C8C0
D8C0
D0C0
E0C0
E0C0
C0C0
ENDCHAR
STARTCHAR 0419
ENCODING 1049
SWIDTH 720 0
DWIDTH 12 0
BBX 10 15 1 0
BITMAP
1300
0E00
0000
C0C0
C1C0
C1C0
C3C0
C6C0
C4C0
C8C0
D8C0
D0C0
E0C0
E0C0
C0C0
ENDCHAR
STARTCHAR 041A
ENCODING 1050
SWIDTH 660 0
DWIDTH 11 0
BBX 9 12 1 0
BITMAP
C180
C300
C600
CC00
D800
F000
D800
CC00
C600
C300
C180
C180
ENDCHAR
STARTCHAR 041B
ENCODING 1051
SWIDTH 720 0
DWIDTH 12 0
BBX 11 12 0 0
BITMAP
0FE0
0860
0860
0860
0860
0860
0860
1860
1860
1060
3060
C060
ENDCHAR
STARTCHAR 041C
ENCODING 1052
SWIDTH 900 0
DWIDTH 15 0
BBX 13 12 1 0
BITMAP
6030
6050
5050
5050
4890
4890
C910
C510
C510
C218
C018
C018
ENDCHAR
STARTCHAR 041D
ENCODING 1053
SWIDTH 720 0
DWIDTH 12 0
BBX 10 12 1 0
BITMAP
C0C0
C0C0
C0C0
C0C0
C0C0
FFC0
C0C0
C0C0
C0C0
C0C0
C0C0
C0C0
ENDCHAR
STARTCHAR 041E
ENCODING 1054
SWIDTH 780 0
DWIDTH 13 0
BBX 11 12 1 0
BITMAP
1F00
31C0
6040
C060
C060
C060
C060
C060
C060
6040
31C0
1F00
ENDCHAR
STARTCHAR 041F
ENCODING 1055
SWIDTH 720 0
DWIDTH 12 0
BBX 9 12 1 0
BITMAP
FF80
C080
C080
C080
C080
C080
C080
C080
C080
C080
C080
C080
ENDCHAR
STARTCHAR 0420
ENCODING 1056
SWIDTH 600 0
DWIDTH 10 0
BBX 9 12 1 0
BITMAP
FE00
C300
C180
C180
C180
C180
C300
FE00
C000
C000
C000
C000
ENDCHAR
STARTCHAR 0421
ENCODING 1057
SWIDTH 660 0
DWIDTH 11 0
BBX 9 12 1 0
BITMAP
1F80
3080
6000
C000
C000
C000
C000
C000
C000
6000
3080
1F80
ENDCHAR
STARTCHAR 0422
ENCODING 1058
SWIDTH 600 0
DWIDTH 10 0
BBX 9 12 0 0
BITMAP
FF80
0C00
0C00
0C00
0C00
0C00
0C00
0C00
0C00
0C00
0C00
0C00
ENDCHAR
STARTCHAR 0423
ENCODING 1059
SWIDTH 600 0
DWIDTH 10 0
BBX 9 12 1 0
BITMAP
8180
C100
C300
6300
6200
3600
3400
1C00
0C00
0800
1000
E000
ENDCHAR
STARTCHAR 0424
ENCODING 1060
SWIDTH 900 0
DWIDTH 15 0
BBX 13 13 1 0
BITMAP
0200
1FC0
2260
4230
C210
C218
C218
C218
C210
4230
2260
1FC0
0200
ENDCHAR
STARTCHAR 0425
ENCODING 1061
SWIDTH 660 0
DWIDTH 11 0
BBX 9 12 1 0
BITMAP
C180
4300
6200
3600
1C00
1800
1C00
3600
2600
6300
C180
8180
ENDCHAR
STARTCHAR 0426
ENCODING 1062
SWIDTH 720 0
DWIDTH 12 0
BBX 11 15 1 -3
BITMAP
C080
C080
C080
C080
C080
C080
C080
C080
C080
C080
C080
FFE0
0060
0060
0060
ENDCHAR
STARTCHAR 0427
ENCODING 1063
SWIDTH 660 0
DWIDTH 11 0
BBX 8 12 1 0
BITMAP
C1
C1
C1
C1
C1
C1
41
3F
01
01
01
01
ENDCHAR
STARTCHAR 0428
ENCODING 1064
SWIDTH 1020 0
DWIDTH 17 0
BBX 14 12 1 0
BITMAP
C104
C104
C104
C104
C104
C104
C104
C104
C104
C104
C104
FFFC
ENDCHAR
STARTCHAR 0429
ENCODING 1065
SWIDTH 1020 0
DWIDTH 17 0
BBX 16 15 1 -3
BITMAP
C104
C104
C104
C104
C104
C104
C104
C104
C104
C104
C104
FFFF
0003
0003
0003
ENDCHAR
STARTCHAR 042A
ENCODING 1066
SWIDTH 720 0
DWIDTH 12 0
BBX 12 12 0 0
BITMAP
F800
1800
1800
1800
1800
1FC0
1860
1830
1830
1830
1860
1FC0
ENDCHAR
STARTCHAR 042B
ENCODING 1067
SWIDTH 900 0
DWIDTH 15 0
BBX 12 12 1 0
BITMAP
C030
C030
C030
C030
C030
FE30
C330
C1B0
C1B0
C1B0
C330
FE30
ENDCHAR
STARTCHAR 042C
ENCODING 1068
SWIDTH 600 0
DWIDTH 10 0
BBX 9 12 1 0
BITMAP
C000
C000
C000
C000
C000
FE00
C300
C180
C180
C180
C300
FE00
ENDCHAR
STARTCHAR 042D
ENCODING 1069
SWIDTH 660 0
DWIDTH 11 0
BBX 9 12 1 0
BITMAP
F800
0600
0300
0300
0100
3F80
0180
0100
0300
0300
0600
F800
ENDCHAR
STARTCHAR 042E
ENCODING 1070
SWIDTH 1080 0
DWIDTH 18 0
BBX 16 12 1 0
BITMAP
C0F0
C30C
C206
C606
C602
FC03
C403
C602
C606
C206
C30C
C0F8
ENDCHAR
STARTCHAR 042F
ENCODING 1071
SWIDTH 660 0
DWIDTH 11 0
BBX 8 12 1 0
BITMAP
3F
61
C1
C1
C1
61
3F
31
61
61
C1
C1
ENDCHAR
STARTCHAR 0430
ENCODING 1072
SWIDTH 540 0
DWIDTH 9 0
BBX 7 9 1 0
BITMAP
78
04
06
7E
C6
86
86
C6
7E
ENDCHAR
STARTCHAR 0431
ENCODING 1073
SWIDTH 600 0
DWIDTH 10 0
BBX 8 13 1 0
BITMAP
0F
30
60
40
FC
C3
C3
C1
C1
C1
C3
62
3C
ENDCHAR
STARTCHAR 0432
ENCODING 1074
SWIDTH 540 0
DWIDTH 9 0
BBX 8 9 1 0
BITMAP
FC
C6
C2
C6
FC
C2
C3
C2
FC
ENDCHAR
STARTCHAR 0433
ENCODING 1075
SWIDTH 420 0
DWIDTH 7 0
BBX 6 9 1 0
BITMAP
FC
C0
C0
C0
C0
C0
C0
C0
C0
ENDCHAR
STARTCHAR 0434
ENCODING 1076
SWIDTH 600 0
DWIDTH 10 0
BBX 10 11 0 -2
BITMAP
1F80
1180
1180
1180
1180
3180
3180
2180
FFC0
C0C0
C0C0
ENDCHAR
STARTCHAR 0435
ENCODING 1077
SWIDTH 600 0
DWIDTH 10 0
BBX 8 9 1 0
BITMAP
3C
66
C2
C3
FF
C0
C0
60
3E
ENDCHAR
STARTCHAR 0436
ENCODING 1078
SWIDTH 780 0
DWIDTH 13 0
BBX 11 9 1 0
BITMAP
C460
64C0
2480
3580
1F00
2480
64C0
C460
8420
ENDCHAR
STARTCHAR 0437
ENCODING 1079
SWIDTH 480 0
DWIDTH 8 0
BBX 6 9 1 0
BITMAP
F8
0C
04
0C
78
0C
04
04
F8
ENDCHAR
STARTCHAR 0438
ENCODING 1080
SWIDTH 600 0
DWIDTH 10 0
BBX 8 9 1 0
BITMAP
C3
C7
C7
CB
D3
D3
E3
E3
C3
ENDCHAR
STARTCHAR 0439
ENCODING 1081
SWIDTH 600 0
DWIDTH 10 0
BBX 8 12 1 0
BITMAP
24
3C
00
C3
C7
C7
CB
D3
D3
E3
E3
C3
ENDCHAR
STARTCHAR 043A
ENCODING 1082
SWIDTH 540 0
DWIDTH 9 0
BBX 8 9 1 0
BITMAP
C6
CC
D8
F0
F0
D8
CC
C6
C3
ENDCHAR
STARTCHAR 043B
ENCODING 1083
SWIDTH 600 0
DWIDTH 10 0
BBX 9 9 0 0
BITMAP
1F80
1180
1180
1180
1180
1180
3180
2180
C180
ENDCHAR
STARTCHAR 043C
ENCODING 1084
SWIDTH 720 0
DWIDTH 12 0
BBX 10 9 1 0
BITMAP
60C0
61C0
51C0
D140
D240
CA40
CC40
CC40
C040
ENDCHAR
STARTCHAR 043D
ENCODING 1085
SWIDTH 600 0
DWIDTH 10 0
BBX 8 9 1 0
BITMAP
C3
C3
C3
C3
FF
C3
C3
C3
C3
ENDCHAR
STARTCHAR 043E
ENCODING 1086
SWIDTH 600 0
DWIDTH 10 0
BBX 8 9 1 0
BITMAP
3C
66
C3
C3
C1
C3
C3
66
3C
ENDCHAR
STARTCHAR 043F
ENCODING 1087
SWIDTH 600 0
DWIDTH 10 0
BBX 7 9 1 0
BITMAP
FE
C2
C2
C2
C2
C2
C2
C2
C2
ENDCHAR
STARTCHAR 0440
ENCODING 1088
SWIDTH 600 0
DWIDTH 10 0
BBX 8 12 1 -3
BITMAP
FC
C6
C3
C3
C3
C3
C3
E6
DC
C0
C0
C0
ENDCHAR
STARTCHAR 0441
ENCODING 1089
SWIDTH 480 0
DWIDTH 8 0
BBX 7 9 1 0
BITMAP
3C
60
C0
C0
C0
C0
C0
60
3E
ENDCHAR
STARTCHAR 0442
ENCODING 1090
SWIDTH 480 0
DWIDTH 8 0
BBX 8 9 0 0
BITMAP
FF
18
18
18
18
18
18
18
18
ENDCHAR
STARTCHAR 0443
ENCODING 1091
SWIDTH 480 0
DWIDTH 8 0
BBX 8 12 0 -3
BITMAP
C3
43
62
62
26
36
14
1C
08
08
10
E0
ENDCHAR
STARTCHAR 0444
ENCODING 1092
SWIDTH 780 0
DWIDTH 13 0
BBX 11 16 1 -3
BITMAP
0400
0400
0400
0400
3F80
64C0
C460
C460
8420
C460
C460
64C0
3F80
0400
0400
0400
ENDCHAR
STARTCHAR 0445
ENCODING 1093
SWIDTH 540 0
DWIDTH 9 0
BBX 7 9 1 0
BITMAP
C6
CC
68
38
30
38
6C
C4
86
ENDCHAR
STARTCHAR 0446
ENCODING 1094
SWIDTH 600 0
DWIDTH 10 0
BBX 9 11 1 -2
BITMAP
C200
C200
C200
C200
C200
C200
C200
C200
FF80
0180
0180
ENDCHAR
STARTCHAR 0447
ENCODING 1095
SWIDTH 540 0
DWIDTH 9 0
BBX 7 9 1 0
BITMAP
86
86
86
86
C6
7E
06
06
06
ENDCHAR
STARTCHAR 0448
ENCODING 1096
SWIDTH 840 0
DWIDTH 14 0
BBX 12 9 1 0
BITMAP
C630
C630
C630
C630
C630
C630
C630
C630
FFF0
ENDCHAR
STARTCHAR 0449
ENCODING 1097
SWIDTH 840 0
DWIDTH 14 0
BBX 13 11 1 -2
BITMAP
C630
C630
C630
C630
C630
C630
C630
C630
FFF8
0018
0018
ENDCHAR
STARTCHAR 044A
ENCODING 1098
SWIDTH 600 0
DWIDTH 10 0
BBX 10 9 0 0
BITMAP
F000
1000
1000
1F00
1180
10C0
10C0
1080
1F00
ENDCHAR
STARTCHAR 044B
ENCODING 1099
SWIDTH 780 0
DWIDTH 13 0
BBX 11 9 1 0
BITMAP
C060
C060
C060
FC60
C660
C260
C260
C660
FC60
ENDCHAR
STARTCHAR 044C
ENCODING 1100
SWIDTH 540 0
DWIDTH 9 0
BBX 7 9 1 0
BITMAP
C0
C0
C0
FC
C6
C2
C2
C6
FC
ENDCHAR
STARTCHAR 044D
ENCODING 1101
SWIDTH 480 0
DWIDTH 8 0
BBX 7 9 1 0
BITMAP
F0
0C
04
06
7E
06
04
0C
F8
ENDCHAR
STARTCHAR 044E
ENCODING 1102
SWIDTH 840 0
DWIDTH 14 0
BBX 12 9 1 0
BITMAP
C3C0
C660
CC30
CC30
F830
CC30
CC30
C660
C3C0
ENDCHAR
STARTCHAR 044F
ENCODING 1103
SWIDTH 540 0
DWIDTH 9 0
BBX 7 9 1 0
BITMAP
3E
C6
C6
C6
C6
7E
66
C6
86
ENDCHAR
STARTCHAR 0450
ENCODING 1104
SWIDTH 600 0
DWIDTH 10 0
BBX 8 13 1 0
BITMAP
20
30
08
00
3C
66
C2
C3
FF
C0
C0
60
3E
ENDCHAR
STARTCHAR 0451
ENCODING 1105
SWIDTH 600 0
DWIDTH 10 0
BBX 8 12 1 0
BITMAP
64
64
00
3C
66
C2
C3
FF
C0
C0
60
3E
ENDCHAR
STARTCHAR 0452
ENCODING 1106
SWIDTH 600 0
DWIDTH 10 0
BBX 9 16 0 -3
BITMAP
6000
6000
FC00
6000
7E00
6300
6100
6100
6180
6180
6180
6180
6180
0100
0100
0700
ENDCHAR
STARTCHAR 0453
ENCODING 1107
SWIDTH 420 0
DWIDTH 7 0
BBX 6 13 1 0
BITMAP
08
18
10
00
FC
C0
C0
C0
C0
C0
C0
C0
C0
ENDCHAR
STARTCHAR 0454
ENCODING 1108
SWIDTH 480 0
DWIDTH 8 0
BBX 7 9 1 0
BITMAP
3E
60
C0
C0
F8
C0
C0
60
3E
ENDCHAR
STARTCHAR 0455
ENCODING 1109
SWIDTH 480 0
DWIDTH 8 0
BBX 6 9 1 0
BITMAP
78
C0
80
C0
30
18
0C
0C
F8
ENDCHAR
STARTCHAR 0456
ENCODING 1110
SWIDTH 240 0
DWIDTH 4 0
BBX 2 13 1 0
BITMAP
C0
C0
00
00
C0
C0
C0
C0
C0
C0
C0
C0
C0
ENDCHAR
STARTCHAR 0457
ENCODING 1111
SWIDTH 240 0
DWIDTH 4 0
BBX 5 12 0 0
BITMAP
98
98
00
60
60
60
60
60
60
60
60
60
ENDCHAR
STARTCHAR 0458
ENCODING 1112
SWIDTH 240 0
DWIDTH 4 0
BBX 4 16 -1 -3
BITMAP
30
30
00
00
30
30
30
30
30
30
30
30
30
30
30
E0
ENDCHAR
STARTCHAR 0459
ENCODING 1113
SWIDTH 900 0
DWIDTH 15 0
BBX 14 9 0 0
BITMAP
1F80
1180
1180
11F8
118C
1184
3184
218C
C1F8
ENDCHAR
STARTCHAR 045A
ENCODING 1114
SWIDTH 840 0
DWIDTH 14 0
BBX 13 9 1 0
BITMAP
C300
C300
C300
FFF0
C318
C318
C318
C318
C3F0
ENDCHAR
STARTCHAR 045B
ENCODING 1115
SWIDTH 600 0
DWIDTH 10 0
BBX 9 13 0 0
BITMAP
6000
6000
FC00
6000
7E00
6300
6100
6100
6180
6180
6180
6180
6180
ENDCHAR
STARTCHAR 045C
ENCODING 1116
SWIDTH 540 0
DWIDTH 9 0
BBX 8 13 1 0
BITMAP
08
18
10
00
C6
CC
D8
F0
F0
D8
CC
C6
C3
ENDCHAR
STARTCHAR 045D
ENCODING 1117
SWIDTH 600 0
DWIDTH 10 0
BBX 8 13 1 0
BITMAP
10
18
08
00
C3
C7
C7
CB
D3
D3
E3
E3
C3
ENDCHAR
STARTCHAR 045E
ENCODING 1118
SWIDTH 480 0
DWIDTH 8 0
BBX 8 15 0 -3
BITMAP
22
1C
00
C3
43
62
62
26
36
14
1C
08
08
10
E0
ENDCHAR
STARTCHAR 045F
ENCODING 1119
SWIDTH 600 0
DWIDTH 10 0
BBX 7 11 1 -2
BITMAP
C2
C2
C2
C2
C2
C2
C2
C2
FE
18
18
ENDCHAR
STARTCHAR 0462
ENCODING 1122
SWIDTH 720 0
DWIDTH 12 0
BBX 12 13 0 0
BITMAP
1800
1800
FF00
1800
1800
1800
1FC0
1860
1830
1830
1830
1860
1FC0
ENDCHAR
STARTCHAR 0463
ENCODING 1123
SWIDTH 600 0
DWIDTH 10 0
BBX 10 13 0 0
BITMAP
1000
1000
1000
1000
FE00
1000
1000
1F00
1180
10C0
10C0
1080
1F00
ENDCHAR
STARTCHAR 0472
ENCODING 1138
SWIDTH 780 0
DWIDTH 13 0
BBX 11 12 1 0
BITMAP
1F00
30C0
6040
C060
C060
FC60
C3E0
C060
C060
6040
30C0
1F00
ENDCHAR
STARTCHAR 0473
ENCODING 1139
SWIDTH 600 0
DWIDTH 10 0
BBX 8 9 1 0
BITMAP
3C
46
C3
F3
CF
C3
C3
42
3C
ENDCHAR
STARTCHAR 0474
ENCODING 1140
SWIDTH 780 0
DWIDTH 13 0
BBX 13 12 0 0
BITMAP
C078
6040
60C0
60C0
3080
3180
1100
1B00
1B00
0A00
0E00
0600
ENDCHAR
STARTCHAR 0475
ENCODING 1141
SWIDTH 600 0
DWIDTH 10 0
BBX 10 9 0 0
BITMAP
C1C0
4300
6200
6600
2600
3400
3C00
1C00
1800
ENDCHAR
STARTCHAR 048A
ENCODING 1162
SWIDTH 780 0
DWIDTH 13 0
BBX 11 18 1 -3
BITMAP
1300
0E00
0000
C0C0
C1C0
C1C0
C3C0
C6C0
C4C0
C8C0
D8C0
D0C0
E0C0
E0C0
C0E0
0020
0060
0040
ENDCHAR
STARTCHAR 048B
ENCODING 1163
SWIDTH 600 0
DWIDTH 10 0
BBX 9 15 1 -3
BITMAP
2400
3C00
0000
C300
C700
C700
CB00
D300
D300
E300
E300
C380
0080
0180
0100
ENDCHAR
STARTCHAR 048C
ENCODING 1164
SWIDTH 660 0
DWIDTH 11 0
BBX 10 13 0 0
BITMAP
2000
FC00
2000
2000
2000
3F00
2180
20C0
20C0
20C0
20C0
2180
3F00
ENDCHAR
STARTCHAR 048D
ENCODING 1165
SWIDTH 540 0
DWIDTH 9 0
BBX 8 9 0 0
BITMAP
60
60
FC
60
7E
63
61
61
7E
ENDCHAR
STARTCHAR 048E
ENCODING 1166
SWIDTH 600 0
DWIDTH 10 0
BBX 9 12 1 0
BITMAP
FE00
C300
C100
C180
C980
C980
CF00
FE00
C200
C200
C000
C000
ENDCHAR
STARTCHAR 048F
ENCODING 1167
SWIDTH 600 0
DWIDTH 10 0
BBX 8 12 1 -3
BITMAP
FC
C6
C3
C3
C3
C3
CB
EE
DC
C2
C2
C0
ENDCHAR
STARTCHAR 0490
ENCODING 1168
SWIDTH 540 0
DWIDTH 9 0
BBX 7 14 1 0
BITMAP
02
02
FE
C0
C0
C0
C0
C0
C0
C0
C0
C0
C0
C0
ENDCHAR
STARTCHAR 0491
ENCODING 1169
SWIDTH 420 0
DWIDTH 7 0
BBX 6 11 1 0
BITMAP
04
04
FC
C0
C0
C0
C0
C0
C0
C0
C0
ENDCHAR
STARTCHAR 0492
ENCODING 1170
SWIDTH 540 0
DWIDTH 9 0
BBX 9 12 0 0
BITMAP
3F80
2000
2000
2000
2000
FC00
2000
2000
2000
2000
2000
2000
ENDCHAR
STARTCHAR 0493
ENCODING 1171
SWIDTH 420 0
DWIDTH 7 0
BBX 7 9 0 0
BITMAP
7E
60
60
60
FC
60
60
60
60
ENDCHAR
STARTCHAR 0494
ENCODING 1172
SWIDTH 660 0
DWIDTH 11 0
BBX 9 15 1 -3
BITMAP
FE00
C000
C000
C000
FE00
C300
C100
C180
C180
C180
C180
C180
0100
0300
1C00
ENDCHAR
STARTCHAR 0495
ENCODING 1173
SWIDTH 540 0
DWIDTH 9 0
BBX 8 12 1 -3
BITMAP
FC
C0
C0
FC
C6
C2
C3
C3
C3
02
06
1C
ENDCHAR
STARTCHAR 0496
ENCODING 1174
SWIDTH 960 0
DWIDTH 16 0
BBX 15 15 1 -3
BITMAP
C218
6210
3230
1260
1FC0
0A80
1240
3220
2230
6210
C218
820E
0006
0006
0006
ENDCHAR
STARTCHAR 0497
ENCODING 1175
SWIDTH 780 0
DWIDTH 13 0
BBX 12 11 1 -2
BITMAP
C460
64C0
2480
3580
1F00
2580
64C0
C440
8430
0010
0010
ENDCHAR
STARTCHAR 0498
ENCODING 1176
SWIDTH 600 0
DWIDTH 10 0
BBX 8 15 1 -3
BITMAP
7C
86
02
02
06
78
06
03
03
03
86
FC
10
18
38
ENDCHAR
STARTCHAR 0499
ENCODING 1177
SWIDTH 480 0
DWIDTH 8 0
BBX 6 12 1 -3
BITMAP
F8
0C
04
0C
78
0C
04
04
F8
20
10
70
ENDCHAR
STARTCHAR 049A
ENCODING 1178
SWIDTH 660 0
DWIDTH 11 0
BBX 10 15 1 -3
BITMAP
C180
C300
C600
CC00
C800
F000
D800
CC00
C600
C300
C100
C1C0
00C0
00C0
00C0
ENDCHAR
STARTCHAR 049B
ENCODING 1179
SWIDTH 540 0
DWIDTH 9 0
BBX 8 11 1 -2
BITMAP
C6
C4
C8
D0
F0
D8
CC
C6
C3
01
01
ENDCHAR
STARTCHAR 049C
ENCODING 1180
SWIDTH 720 0
DWIDTH 12 0
BBX 10 12 1 0
BITMAP
C0C0
C180
D100
D300
DE00
F400
D600
D200
D300
C180
C0C0
C0C0
ENDCHAR
STARTCHAR 049D
ENCODING 1181
SWIDTH 660 0
DWIDTH 11 0
BBX 9 9 1 0
BITMAP
C100
C300
D600
DC00
F800
D400
D200
C300
C180
ENDCHAR
STARTCHAR 049E
ENCODING 1182
SWIDTH 660 0
DWIDTH 11 0
BBX 11 12 0 0
BITMAP
20C0
F980
2300
2600
2C00
3800
2C00
2600
2300
2180
20C0
2060
ENDCHAR
STARTCHAR 049F
ENCODING 1183
SWIDTH 540 0
DWIDTH 9 0
BBX 9 9 0 0
BITMAP
6100
F300
6600
7C00
6800
6400
6600
6300
6180
ENDCHAR
STARTCHAR 04A0
ENCODING 1184
SWIDTH 780 0
DWIDTH 13 0
BBX 12 12 0 0
BITMAP
F830
1860
18C0
1980
1B00
1E00
1B00
1980
18C0
1860
1830
1830
ENDCHAR
STARTCHAR 04A1
ENCODING 1185
SWIDTH 600 0
DWIDTH 10 0
BBX 10 9 0 0
BITMAP
F180
1100
1200
1400
1C00
1600
1300
1180
10C0
ENDCHAR
STARTCHAR 04A2
ENCODING 1186
SWIDTH 720 0
DWIDTH 12 0
BBX 11 15 1 -3
BITMAP
C0C0
C0C0
C0C0
C0C0
C0C0
FFC0
C0C0
C0C0
C0C0
C0C0
C0C0
C0E0
0060
0060
0060
ENDCHAR
STARTCHAR 04A3
ENCODING 1187
SWIDTH 600 0
DWIDTH 10 0
BBX 9 11 1 -2
BITMAP
C300
C300
C300
C300
FF00
C300
C300
C300
C380
0180
0180
ENDCHAR
STARTCHAR 04A4
ENCODING 1188
SWIDTH 840 0
DWIDTH 14 0
BBX 13 12 1 0
BITMAP
C0F8
C0C0
C0C0
C0C0
C0C0
FFC0
C0C0
C0C0
C0C0
C0C0
C0C0
C0C0
ENDCHAR
STARTCHAR 04A5
ENCODING 1189
SWIDTH 660 0
DWIDTH 11 0
BBX 10 9 1 0
BITMAP
C3C0
C300
C300
C300
FF00
C300
C300
C300
C300
ENDCHAR
STARTCHAR 04A6
ENCODING 1190
SWIDTH 1080 0
DWIDTH 18 0
BBX 16 15 1 -3
BITMAP
FF80
C180
C180
C180
C1F8
C186
C182
C183
C183
C183
C183
C183
0002
0006
0038
ENDCHAR
STARTCHAR 04A7
ENCODING 1191
SWIDTH 900 0
DWIDTH 15 0
BBX 13 12 1 -3
BITMAP
FE00
C200
C200
C3E0
C210
C218
C218
C208
C218
0018
0010
0060
ENDCHAR
STARTCHAR 04A8
ENCODING 1192
SWIDTH 780 0
DWIDTH 13 0
BBX 11 15 1 -3
BITMAP
1F80
3000
6000
C000
C3C0
C660
C420
CC20
CC20
6460
24C0
1F80
0300
0180
00E0
ENDCHAR
STARTCHAR 04A9
ENCODING 1193
SWIDTH 600 0
DWIDTH 10 0
BBX 9 11 1 -2
BITMAP
3C00
6000
CF00
8900
9980
9980
D900
7B00
3E00
0C00
0300
ENDCHAR
STARTCHAR 04AA
ENCODING 1194
SWIDTH 660 0
DWIDTH 11 0
BBX 9 15 1 -3
BITMAP
1F80
3080
6000
C000
C000
C000
C000
C000
C000
6000
3080
1F80
0C00
0400
1C00
ENDCHAR
STARTCHAR 04AB
ENCODING 1195
SWIDTH 480 0
DWIDTH 8 0
BBX 7 12 1 -3
BITMAP
3C
60
C0
C0
C0
C0
C0
60
3E
18
08
38
ENDCHAR
STARTCHAR 04AC
ENCODING 1196
SWIDTH 600 0
DWIDTH 10 0
BBX 9 15 0 -3
BITMAP
FF80
0C00
0C00
0C00
0C00
0C00
0C00
0C00
0C00
0C00
0C00
0E00
0200
0200
0200
ENDCHAR
STARTCHAR 04AD
ENCODING 1197
SWIDTH 480 0
DWIDTH 8 0
BBX 8 11 0 -2
BITMAP
FF
18
18
18
18
18
18
18
1C
0C
0C
ENDCHAR
STARTCHAR 04AE
ENCODING 1198
SWIDTH 600 0
DWIDTH 10 0
BBX 10 12 0 0
BITMAP
C0C0
6180
2180
3300
1A00
1E00
0C00
0C00
0C00
0C00
0C00
0C00
ENDCHAR
STARTCHAR 04AF
ENCODING 1199
SWIDTH 540 0
DWIDTH 9 0
BBX 8 12 0 -3
BITMAP
C3
43
63
62
26
34
3C
1C
18
18
18
18
ENDCHAR
STARTCHAR 04B0
ENCODING 1200
SWIDTH 600 0
DWIDTH 10 0
BBX 10 12 0 0
BITMAP
C0C0
6180
6180
3300
1B00
1E00
0C00
3F00
0C00
0C00
0C00
0C00
ENDCHAR
STARTCHAR 04B1
ENCODING 1201
SWIDTH 540 0
DWIDTH 9 0
BBX 8 12 0 -3
BITMAP
C3
43
63
66
36
34
3C
1C
7E
18
18
18
ENDCHAR
STARTCHAR 04B2
ENCODING 1202
SWIDTH 660 0
DWIDTH 11 0
BBX 10 15 1 -3
BITMAP
C180
4300
6200
3600
1C00
1800
1C00
3400
2600
6300
C100
81C0
00C0
00C0
00C0
ENDCHAR
STARTCHAR 04B3
ENCODING 1203
SWIDTH 540 0
DWIDTH 9 0
BBX 8 11 1 -2
BITMAP
C6
CC
68
38
30
38
6C
C4
87
03
03
ENDCHAR
STARTCHAR 04B4
ENCODING 1204
SWIDTH 840 0
DWIDTH 14 0
BBX 14 15 0 -3
BITMAP
FF98
0818
0818
0818
0818
0818
0818
0818
0818
0818
0818
0FFC
0004
0004
0004
ENDCHAR
STARTCHAR 04B5
ENCODING 1205
SWIDTH 660 0
DWIDTH 11 0
BBX 11 11 0 -2
BITMAP
FEC0
10C0
10C0
10C0
10C0
10C0
10C0
10C0
1FE0
0060
0060
ENDCHAR
STARTCHAR 04B6
ENCODING 1206
SWIDTH 660 0
DWIDTH 11 0
BBX 10 15 1 -3
BITMAP
C100
C100
C100
C100
C100
C100
4100
3F00
0100
0100
0100
01C0
00C0
00C0
00C0
ENDCHAR
STARTCHAR 04B7
ENCODING 1207
SWIDTH 540 0
DWIDTH 9 0
BBX 8 11 1 -2
BITMAP
86
86
86
86
C6
7E
06
06
07
03
03
ENDCHAR
STARTCHAR 04B8
ENCODING 1208
SWIDTH 660 0
DWIDTH 11 0
BBX 8 12 1 0
BITMAP
C1
C1
C1
C1
C1
C9
49
3F
09
09
01
01
ENDCHAR
STARTCHAR 04B9
ENCODING 1209
SWIDTH 540 0
DWIDTH 9 0
BBX 7 9 1 0
BITMAP
86
86
86
96
D6
7E
16
16
06
ENDCHAR
STARTCHAR 04BA
ENCODING 1210
SWIDTH 660 0
DWIDTH 11 0
BBX 9 12 1 0
BITMAP
C000
C000
C000
C000
FE00
C300
C180
C180
C180
C180
C180
C180
ENDCHAR
STARTCHAR 04BB
ENCODING 1211
SWIDTH 600 0
DWIDTH 10 0
BBX 8 13 1 0
BITMAP
C0
C0
C0
C0
FC
C6
C2
C2
C3
C3
C3
C3
C3
ENDCHAR
STARTCHAR 04BC
ENCODING 1212
SWIDTH 840 0
DWIDTH 14 0
BBX 13 12 0 0
BITMAP
03E0
0630
0C18
C818
D818
7FF8
1800
1800
0800
0C00
0600
03F0
ENDCHAR
STARTCHAR 04BD
ENCODING 1213
SWIDTH 660 0
DWIDTH 11 0
BBX 10 9 0 0
BITMAP
0780
08C0
D840
D840
7FC0
1000
1800
0C00
07C0
ENDCHAR
STARTCHAR 04BE
ENCODING 1214
SWIDTH 840 0
DWIDTH 14 0
BBX 13 15 0 -3
BITMAP
03E0
0630
0C18
C818
D818
7FF8
1800
1800
0800
0C00
0600
03F0
0080
0080
0080
ENDCHAR
STARTCHAR 04BF
ENCODING 1215
SWIDTH 660 0
DWIDTH 11 0
BBX 10 11 0 -2
BITMAP
0780
08C0
D840
D840
7FC0
1000
1800
0C00
07C0
0300
0300
ENDCHAR
STARTCHAR 04C0
ENCODING 1216
SWIDTH 300 0
DWIDTH 5 0
BBX 2 12 1 0
BITMAP
C0
C0
C0
C0
C0
C0
C0
C0
C0
C0
C0
C0
ENDCHAR
STARTCHAR 04C1
ENCODING 1217
SWIDTH 900 0
DWIDTH 15 0
BBX 14 15 1 0
BITMAP
0C80
0700
0000
C218
6210
3230
1260
1FC0
0A80
1240
3220
2230
6210
C218
820C
ENDCHAR
STARTCHAR 04C2
ENCODING 1218
SWIDTH 780 0
DWIDTH 13 0
BBX 11 12 1 0
BITMAP
1100
0E00
0000
C460
64C0
2480
3580
1F00
2480
64C0
C460
8420
ENDCHAR
STARTCHAR 04C3
ENCODING 1219
SWIDTH 660 0
DWIDTH 11 0
BBX 9 15 1 -3
BITMAP
C180
C300
C600
CC00
D800
FC00
C300
C180
C180
C180
C180
C180
0100
0700
0C00
ENDCHAR
STARTCHAR 04C4
ENCODING 1220
SWIDTH 540 0
DWIDTH 9 0
BBX 8 12 1 -3
BITMAP
C6
CC
D8
D0
FC
C6
C2
C3
C3
02
06
1C
ENDCHAR
STARTCHAR 04C5
ENCODING 1221
SWIDTH 720 0
DWIDTH 12 0
BBX 12 15 0 -3
BITMAP
0FE0
0860
0860
0860
0860
0860
0860
1860
1860
1060
3060
C070
0030
0020
0060
ENDCHAR
STARTCHAR 04C6
ENCODING 1222
SWIDTH 600 0
DWIDTH 10 0
BBX 10 12 0 -3
BITMAP
1F80
1180
1180
1180
1180
1180
3180
2180
C1C0
0040
00C0
0080
ENDCHAR
STARTCHAR 04C7
ENCODING 1223
SWIDTH 720 0
DWIDTH 12 0
BBX 10 15 1 -3
BITMAP
C0C0
C0C0
C0C0
C0C0
C0C0
FFC0
C0C0
C0C0
C0C0
C0C0
C0C0
C0C0
0080
0080
0380
ENDCHAR
STARTCHAR 04C8
ENCODING 1224
SWIDTH 600 0
DWIDTH 10 0
BBX 8 12 1 -3
BITMAP
C3
C3
C3
C3
FF
C3
C3
C3
C3
03
02
0E
ENDCHAR
STARTCHAR 04C9
ENCODING 1225
SWIDTH 720 0
DWIDTH 12 0
BBX 11 15 1 -3
BITMAP
C0C0
C0C0
C0C0
C0C0
C0C0
FFC0
C0C0
C0C0
C0C0
C0C0
C0C0
C0E0
0060
0040
00C0
ENDCHAR
STARTCHAR 04CA
ENCODING 1226
SWIDTH 600 0
DWIDTH 10 0
BBX 9 12 1 -3
BITMAP
C300
C300
C300
C300
FF00
C300
C300
C300
C380
0180
0100
0100
ENDCHAR
STARTCHAR 04CB
ENCODING 1227
SWIDTH 660 0
DWIDTH 11 0
BBX 8 15 1 -3
BITMAP
C1
C1
C1
C1
C1
C1
61
3F
01
01
01
07
06
06
06
ENDCHAR
STARTCHAR 04CC
ENCODING 1228
SWIDTH 540 0
DWIDTH 9 0
BBX 7 11 1 -2
BITMAP
86
86
86
86
C6
7E
06
06
0E
08
08
ENDCHAR
STARTCHAR 04CD
ENCODING 1229
SWIDTH 900 0
DWIDTH 15 0
BBX 14 15 1 -3
BITMAP
6030
6050
5050
5050
4890
4890
C910
C510
C510
C218
C018
C01C
000C
0008
0018
ENDCHAR
STARTCHAR 04CE
ENCODING 1230
SWIDTH 780 0
DWIDTH 13 0
BBX 12 12 1 -3
BITMAP
60C0
61C0
51C0
D140
D240
CA40
CC40
CC40
C070
0030
0060
0040
ENDCHAR
STARTCHAR 04CF
ENCODING 1231
SWIDTH 300 0
DWIDTH 5 0
BBX 2 12 1 0
BITMAP
C0
C0
C0
C0
C0
C0
C0
C0
C0
C0
C0
C0
ENDCHAR
STARTCHAR 04D0
ENCODING 1232
SWIDTH 660 0
DWIDTH 11 0
BBX 11 15 0 0
BITMAP
1900
0E00
0000
0600
0E00
0A00
1B00
1900
1180
3180
3080
7FC0
60C0
4060
C060
ENDCHAR
STARTCHAR 04D1
ENCODING 1233
SWIDTH 540 0
DWIDTH 9 0
BBX 7 12 1 0
BITMAP
44
38
00
78
04
06
7E
C6
86
86
C6
7E
ENDCHAR
STARTCHAR 04D2
ENCODING 1234
SWIDTH 660 0
DWIDTH 11 0
BBX 11 15 0 0
BITMAP
1B00
1B00
0000
0600
0E00
0A00
1B00
1900
1180
3180
3080
7FC0
60C0
4060
C060
ENDCHAR
STARTCHAR 04D3
ENCODING 1235
SWIDTH 540 0
DWIDTH 9 0
BBX 7 12 1 0
BITMAP
6C
6C
00
78
04
06
7E
C6
86
86
C6
7E
ENDCHAR
STARTCHAR 04D4
ENCODING 1236
SWIDTH 960 0
DWIDTH 16 0
BBX 15 12 0 0
BITMAP
01FE
03C0
02C0
06C0
0CC0
08FC
18C0
10C0
3FC0
60C0
60C0
C0FE
ENDCHAR
STARTCHAR 04D5
ENCODING 1237
SWIDTH 900 0
DWIDTH 15 0
BBX 13 9 1 0
BITMAP
79E0
0F30
0610
0618
7FF8
C600
8600
C700
7DF0
ENDCHAR
STARTCHAR 04D6
ENCODING 1238
SWIDTH 600 0
DWIDTH 10 0
BBX 8 15 1 0
BITMAP
64
3C
00
FF
C0
C0
C0
C0
FE
C0
C0
C0
C0
C0
FF
ENDCHAR
STARTCHAR 04D7
ENCODING 1239
SWIDTH 600 0
DWIDTH 10 0
BBX 8 12 1 0
BITMAP
64
3C
00
3C
66
C2
C3
FF
C0
C0
60
3E
ENDCHAR
STARTCHAR 04D8
ENCODING 1240
SWIDTH 720 0
DWIDTH 12 0
BBX 10 12 1 0
BITMAP
7E00
4300
0180
00C0
00C0
00C0
FFC0
C0C0
C0C0
C180
6300
3E00
ENDCHAR
STARTCHAR 04D9
ENCODING 1241
SWIDTH 600 0
DWIDTH 10 0
BBX 8 9 1 0
BITMAP
7C
06
02
03
FF
C3
C2
46
3C
ENDCHAR
STARTCHAR 04DA
ENCODING 1242
SWIDTH 720 0
DWIDTH 12 0
BBX 10 15 1 0
BITMAP
3200
3200
0000
7E00
4300
0180
00C0
00C0
00C0
FFC0
C0C0
C0C0
C180
6300
3E00
ENDCHAR
STARTCHAR 04DB
ENCODING 1243
SWIDTH 600 0
DWIDTH 10 0
BBX 8 12 1 0
BITMAP
6C
6C
00
7C
06
02
03
FF
C3
C2
46
3C
ENDCHAR
STARTCHAR 04DC
ENCODING 1244
SWIDTH 900 0
DWIDTH 15 0
BBX 14 15 1 0
BITMAP
0D80
0D80
0000
C218
6210
3230
1260
1FC0
0A80
1240
3220
2230
6210
C218
820C
ENDCHAR
STARTCHAR 04DD
ENCODING 1245
SWIDTH 780 0
DWIDTH 13 0
BBX 11 12 1 0
BITMAP
1B00
1B00
0000
C460
64C0
2480
3580
1F00
2480
64C0
C460
8420
ENDCHAR
STARTCHAR 04DE
ENCODING 1246
SWIDTH 600 0
DWIDTH 10 0
BBX 8 15 1 0
BITMAP
6C
6C
00
7C
86
02
02
06
78
06
03
03
03
86
FC
ENDCHAR
STARTCHAR 04DF
ENCODING 1247
SWIDTH 480 0
DWIDTH 8 0
BBX 6 12 1 0
BITMAP
C8
C8
00
F8
0C
04
0C
78
0C
04
04
F8
ENDCHAR
STARTCHAR 04E0
ENCODING 1248
SWIDTH 600 0
DWIDTH 10 0
BBX 8 12 1 0
BITMAP
FF
06
0C
08
10
3C
06
03
03
03
86
FC
ENDCHAR
STARTCHAR 04E1
ENCODING 1249
SWIDTH 480 0
DWIDTH 8 0
BBX 7 12 0 -3
BITMAP
FE
04
0C
08
10
3C
06
02
02
02
06
F8
ENDCHAR
STARTCHAR 04E2
ENCODING 1250
SWIDTH 720 0
DWIDTH 12 0
BBX 10 15 1 0
BITMAP
1F00
0000
0000
C0C0
C1C0
C1C0
C3C0
C6C0
C4C0
C8C0
D8C0
D0C0
E0C0
E0C0
C0C0
ENDCHAR
STARTCHAR 04E3
ENCODING 1251
SWIDTH 600 0
DWIDTH 10 0
BBX 8 12 1 0
BITMAP
3E
00
00
C3
C7
C7
CB
D3
D3
E3
E3
C3
ENDCHAR
STARTCHAR 04E4
ENCODING 1252
SWIDTH 720 0
DWIDTH 12 0
BBX 10 15 1 0
BITMAP
1300
1300
0000
C0C0
C1C0
C1C0
C3C0
C6C0
C4C0
C8C0
D8C0
D0C0
E0C0
E0C0
C0C0
ENDCHAR
STARTCHAR 04E5
ENCODING 1253
SWIDTH 600 0
DWIDTH 10 0
BBX 8 12 1 0
BITMAP
26
26
00
C3
C7
C7
CB
D3
D3
E3
E3
C3
ENDCHAR
STARTCHAR 04E6
ENCODING 1254
SWIDTH 780 0
DWIDTH 13 0
BBX 11 15 1 0
BITMAP
1B00
1B00
0000
1F00
31C0
6040
C060
C060
C060
C060
C060
C060
6040
31C0
1F00
ENDCHAR
STARTCHAR 04E7
ENCODING 1255
SWIDTH 600 0
DWIDTH 10 0
BBX 8 12 1 0
BITMAP
24
24
00
3C
66
C3
C3
C1
C3
C3
66
3C
ENDCHAR
STARTCHAR 04E8
ENCODING 1256
SWIDTH 780 0
DWIDTH 13 0
BBX 11 12 1 0
BITMAP
1F00
30C0
6040
C060
C060
FFE0
C060
C060
C060
60C0
31C0
1F00
ENDCHAR
STARTCHAR 04E9
ENCODING 1257
SWIDTH 600 0
DWIDTH 10 0
BBX 8 9 1 0
BITMAP
3C
66
C3
C3
FF
C3
C3
66
3C
ENDCHAR
STARTCHAR 04EA
ENCODING 1258
SWIDTH 780 0
DWIDTH 13 0
BBX 11 15 1 0
BITMAP
1B00
1B00
0000
1F00
30C0
6040
C060
C060
FFE0
C060
C060
C060
60C0
31C0
1F00
ENDCHAR
STARTCHAR 04EB
ENCODING 1259
SWIDTH 600 0
DWIDTH 10 0
BBX 8 12 1 0
BITMAP
24
24
00
3C
66
C3
C3
FF
C3
C3
66
3C
ENDCHAR
STARTCHAR 04EC
ENCODING 1260
SWIDTH 660 0
DWIDTH 11 0
BBX 9 15 1 0
BITMAP
4C00
4C00
0000
F800
0600
0300
0300
0100
3F80
0180
0100
0300
0300
0600
F800
ENDCHAR
STARTCHAR 04ED
ENCODING 1261
SWIDTH 480 0
DWIDTH 8 0
BBX 7 12 1 0
BITMAP
D8
D8
00
F0
0C
04
06
7E
06
04
0C
F8
ENDCHAR
STARTCHAR 04EE
ENCODING 1262
SWIDTH 600 0
DWIDTH 10 0
BBX 9 15 1 0
BITMAP
3E00
0000
0000
8180
C100
C300
6300
6200
3600
3400
1C00
0C00
0800
1000
E000
ENDCHAR
STARTCHAR 04EF
ENCODING 1263
SWIDTH 480 0
DWIDTH 8 0
BBX 8 15 0 -3
BITMAP
3E
00
00
C3
43
62
62
26
36
14
1C
08
08
10
E0
ENDCHAR
STARTCHAR 04F0
ENCODING 1264
SWIDTH 600 0
DWIDTH 10 0
BBX 9 15 1 0
BITMAP
2600
2600
0000
8180
C100
C300
6300
6200
3600
3400
1C00
0C00
0800
1000
E000
ENDCHAR
STARTCHAR 04F1
ENCODING 1265
SWIDTH 480 0
DWIDTH 8 0
BBX 8 15 0 -3
BITMAP
36
36
00
C3
43
62
62
26
36
14
1C
08
08
10
E0
ENDCHAR
STARTCHAR 04F2
ENCODING 1266
SWIDTH 600 0
DWIDTH 10 0
BBX 9 16 1 0
BITMAP
0A00
1600
2400
0000
8180
C100
C300
6300
6200
3600
3400
1C00
0C00
0800
1000
E000
ENDCHAR
STARTCHAR 04F3
ENCODING 1267
SWIDTH 480 0
DWIDTH 8 0
BBX 8 16 0 -3
BITMAP
09
1A
14
00
C3
43
62
62
26
36
14
1C
08
08
10
E0
ENDCHAR
STARTCHAR 04F4
ENCODING 1268
SWIDTH 660 0
DWIDTH 11 0
BBX 8 15 1 0
BITMAP
26
26
00
C1
C1
C1
C1
C1
C1
41
3F
01
01
01
01
ENDCHAR
STARTCHAR 04F5
ENCODING 1269
SWIDTH 540 0
DWIDTH 9 0
BBX 7 12 1 0
BITMAP
4C
4C
00
86
86
86
86
C6
7E
06
06
06
ENDCHAR
STARTCHAR 04F6
ENCODING 1270
SWIDTH 540 0
DWIDTH 9 0
BBX 7 15 1 -3
BITMAP
FE
C0
C0
C0
C0
C0
C0
C0
C0
C0
C0
F0
30
30
30
ENDCHAR
STARTCHAR 04F7
ENCODING 1271
SWIDTH 420 0
DWIDTH 7 0
BBX 6 11 1 -2
BITMAP
FC
C0
C0
C0
C0
C0
C0
C0
E0
20
20
ENDCHAR
STARTCHAR 04F8
ENCODING 1272
SWIDTH 900 0
DWIDTH 15 0
BBX 12 15 1 0
BITMAP
0D80
0D80
0000
C030
C030
C030
C030
C030
FE30
C330
C1B0
C1B0
C1B0
C330
FE30
ENDCHAR
STARTCHAR 04F9
ENCODING 1273
SWIDTH 780 0
DWIDTH 13 0
BBX 11 12 1 0
BITMAP
1B00
1B00
0000
C060
C060
C060
FC60
C660
C260
C260
C660
FC60
ENDCHAR
STARTCHAR 1E80
ENCODING 7808
SWIDTH 960 0
DWIDTH 16 0
BBX 14 16 1 0
BITMAP
0400
0700
0100
0000
8004
830C
C30C
C70C
C588
4488
4498
6CD8
6850
3850
3870
3030
ENDCHAR
STARTCHAR 1E81
ENCODING 7809
SWIDTH 780 0
DWIDTH 13 0
BBX 13 13 0 0
BITMAP
0400
0600
0200
0000
C218
4318
6510
6530
2530
25A0
38E0
18E0
18C0
ENDCHAR
STARTCHAR 1E82
ENCODING 7810
SWIDTH 960 0
DWIDTH 16 0
BBX 14 16 1 0
BITMAP
0100
0300
0200
0000
8004
830C
C30C
C70C
C588
4488
4498
6CD8
6850
3850
3870
3030
ENDCHAR
STARTCHAR 1E83
ENCODING 7811
SWIDTH 780 0
DWIDTH 13 0
BBX 13 13 0 0
BITMAP
0100
0300
0200
0000
C218
4318
6510
6530
2530
25A0
38E0
18E0
18C0
ENDCHAR
STARTCHAR 1E84
ENCODING 7812
SWIDTH 960 0
DWIDTH 16 0
BBX 14 15 1 0
BITMAP
0C80
0C80
0000
8004
830C
C30C
C70C
C588
4488
4498
6CD8
6850
3850
3870
3030
ENDCHAR
STARTCHAR 1E85
ENCODING 7813
SWIDTH 780 0
DWIDTH 13 0
BBX 13 12 0 0
BITMAP
0D80
0D80
0000
C218
4318
6510
6530
2530
25A0
38E0
18E0
18C0
ENDCHAR
STARTCHAR 1EF2
ENCODING 7922
SWIDTH 600 0
DWIDTH 10 0
BBX 10 16 0 0
BITMAP
0800
0C00
0400
0000
C0C0
6180
2180
3300
1A00
1E00
0C00
0C00
0C00
0C00
0C00
0C00
ENDCHAR
STARTCHAR 1EF3
ENCODING 7923
SWIDTH 480 0
DWIDTH 8 0
BBX 8 17 0 -3
BITMAP
10
18
08
00
00
C3
43
62
62
26
36
14
1C
08
08
10
E0
ENDCHAR
STARTCHAR 1F00
ENCODING 7936
SWIDTH 600 0
DWIDTH 10 0
BBX 9 14 1 0
BITMAP
0800
0800
0800
1000
0000
3E00
6300
C300
C300
C300
C300
C300
6300
3D80
ENDCHAR
STARTCHAR 1F01
ENCODING 7937
SWIDTH 600 0
DWIDTH 10 0
BBX 9 14 1 0
BITMAP
1800
1800
1000
0800
0000
3E00
6300
C300
C300
C300
C300
C300
6300
3D80
ENDCHAR
STARTCHAR 1F02
ENCODING 7938
SWIDTH 600 0
DWIDTH 10 0
BBX 9 14 1 0
BITMAP
3C00
3400
2600
4200
0000
3E00
6300
C300
C300
C300
C300
C300
6300
3D80
ENDCHAR
STARTCHAR 1F03
ENCODING 7939
SWIDTH 600 0
DWIDTH 10 0
BBX 9 14 1 0
BITMAP
7800
6800
6400
2400
0000
3E00
6300
C300
C300
C300
C300
C300
6300
3D80
ENDCHAR
STARTCHAR 1F04
ENCODING 7940
SWIDTH 600 0
DWIDTH 10 0
BBX 9 14 1 0
BITMAP
1300
1200
1400
2C00
0000
3E00
6300
C300
C300
C300
C300
C300
6300
3D80
ENDCHAR
STARTCHAR 1F05
ENCODING 7941
SWIDTH 600 0
DWIDTH 10 0
BBX 9 14 1 0
BITMAP
6200
6600
2400
1800
0000
3E00
6300
C300
C300
C300
C300
C300
6300
3D80
ENDCHAR
STARTCHAR 1F06
ENCODING 7942
SWIDTH 600 0
DWIDTH 10 0
BBX 9 16 1 0
BITMAP
1C00
2400
0000
1800
0800
1000
0000
3E00
6300
C300
C300
C300
C300
C300
6300
3D80
ENDCHAR
STARTCHAR 1F07
ENCODING 7943
SWIDTH 600 0
DWIDTH 10 0
BBX 9 16 1 0
BITMAP
1C00
2400
0000
1800
1800
0800
0000
3E00
6300
C300
C300
C300
C300
C300
6300
3D80
ENDCHAR
STARTCHAR 1F08
ENCODING 7944
SWIDTH 660 0
DWIDTH 11 0
BBX 11 12 0 0
BITMAP
2600
6E00
2A00
5B00
1900
1180
3180
3080
7FC0
60C0
4060
C060
ENDCHAR
STARTCHAR 1F09
ENCODING 7945
SWIDTH 660 0
DWIDTH 11 0
BBX 11 12 0 0
BITMAP
C600
CE00
4A00
3B00
1900
1180
3180
3080
7FC0
60C0
4060
C060
ENDCHAR
STARTCHAR 1F0A
ENCODING 7946
SWIDTH 780 0
DWIDTH 13 0
BBX 14 12 -1 0
BITMAP
78C0
69C0
4D40
8760
0320
0230
0630
0610
0FF8
0C18
080C
180C
ENDCHAR
STARTCHAR 1F0B
ENCODING 7947
SWIDTH 780 0
DWIDTH 13 0
BBX 14 12 -1 0
BITMAP
D180
D9C0
4940
2760
0260
0620
0630
0430
0FF8
0818
1808
180C
ENDCHAR
STARTCHAR 1F0C
ENCODING 7948
SWIDTH 720 0
DWIDTH 12 0
BBX 13 12 -1 0
BITMAP
6D80
6B80
5A80
96C0
0640
0460
0C60
0C20
1FF0
1830
1018
3018
ENDCHAR
STARTCHAR 1F0D
ENCODING 7949
SWIDTH 780 0
DWIDTH 13 0
BBX 13 13 -1 0
BITMAP
4400
CD80
49C0
33C0
0240
0260
0660
0430
0C30
0FF0
0818
1818
1808
ENDCHAR
STARTCHAR 1F0E
ENCODING 7950
SWIDTH 660 0
DWIDTH 11 0
BBX 12 14 -1 0
BITMAP
7000
8800
0300
2700
2500
4D80
0C80
08C0
18C0
1840
3FE0
3060
2030
6030
ENDCHAR
STARTCHAR 1F0F
ENCODING 7951
SWIDTH 660 0
DWIDTH 11 0
BBX 12 14 -1 0
BITMAP
7000
8800
0300
2700
2780
1580
0C80
08C0
18C0
1860
1FE0
3020
3030
6030
ENDCHAR
STARTCHAR 1F10
ENCODING 7952
SWIDTH 540 0
DWIDTH 9 0
BBX 7 14 1 0
BITMAP
18
18
10
10
00
3E
40
C0
C0
78
C0
C0
C0
7E
ENDCHAR
STARTCHAR 1F11
ENCODING 7953
SWIDTH 540 0
DWIDTH 9 0
BBX 7 14 1 0
BITMAP
30
30
10
08
00
3E
40
C0
C0
78
C0
C0
C0
7E
ENDCHAR
STARTCHAR 1F12
ENCODING 7954
SWIDTH 540 0
DWIDTH 9 0
BBX 7 14 1 0
BITMAP
68
6C
24
46
00
3E
40
C0
C0
78
C0
C0
C0
7E
ENDCHAR
STARTCHAR 1F13
ENCODING 7955
SWIDTH 540 0
DWIDTH 9 0
BBX 7 14 1 0
BITMAP
50
C8
48
24
00
3E
40
C0
C0
78
C0
C0
C0
7E
ENDCHAR
STARTCHAR 1F14
ENCODING 7956
SWIDTH 540 0
DWIDTH 9 0
BBX 7 14 1 0
BITMAP
32
34
2C
28
00
3E
40
C0
C0
78
C0
C0
C0
7E
ENDCHAR
STARTCHAR 1F15
ENCODING 7957
SWIDTH 540 0
DWIDTH 9 0
BBX 7 14 1 0
BITMAP
66
64
48
28
00
3E
40
C0
C0
78
C0
C0
C0
7E
ENDCHAR
STARTCHAR 1F18
ENCODING 7960
SWIDTH 660 0
DWIDTH 11 0
BBX 11 13 -1 0
BITMAP
6000
6FE0
4800
8800
0800
0800
0FC0
0800
0800
0800
0800
0800
0FE0
ENDCHAR
STARTCHAR 1F19
ENCODING 7961
SWIDTH 660 0
DWIDTH 11 0
BBX 11 13 -1 0
BITMAP
4000
CFE0
4800
2800
0800
0800
0FC0
0800
0800
0800
0800
0800
0FE0
ENDCHAR
STARTCHAR 1F1A
ENCODING 7962
SWIDTH 840 0
DWIDTH 14 0
BBX 14 13 -1 0
BITMAP
7800
69FC
4D00
8500
0100
0100
01F8
0100
0100
0100
0100
0100
01FC
ENDCHAR
STARTCHAR 1F1B
ENCODING 7963
SWIDTH 840 0
DWIDTH 14 0
BBX 14 13 -1 0
BITMAP
5000
D9FC
4900
2500
0100
0100
01F8
0100
0100
0100
0100
0100
01FC
ENDCHAR
STARTCHAR 1F1C
ENCODING 7964
SWIDTH 840 0
DWIDTH 14 0
BBX 14 13 -1 0
BITMAP
6C00
6BFC
5B00
9300
0300
0300
03F8
0300
0300
0300
0300
0300
03FC
ENDCHAR
STARTCHAR 1F1D
ENCODING 7965
SWIDTH 840 0
DWIDTH 14 0
BBX 14 13 -1 0
BITMAP
4400
CDFC
4980
3180
0180
0180
01F8
0180
0180
0180
0180
0180
01FC
ENDCHAR
STARTCHAR 1F20
ENCODING 7968
SWIDTH 600 0
DWIDTH 10 0
BBX 8 17 1 -3
BITMAP
18
18
08
10
00
FC
C6
C2
C2
C3
C3
C3
C3
C3
03
03
03
ENDCHAR
STARTCHAR 1F21
ENCODING 7969
SWIDTH 600 0
DWIDTH 10 0
BBX 8 17 1 -3
BITMAP
10
18
10
08
00
FC
C6
C2
C2
C3
C3
C3
C3
C3
03
03
03
ENDCHAR
STARTCHAR 1F22
ENCODING 7970
SWIDTH 600 0
DWIDTH 10 0
BBX 8 17 1 -3
BITMAP
28
24
24
42
00
FC
C6
C2
C2
C3
C3
C3
C3
C3
03
03
03
ENDCHAR
STARTCHAR 1F23
ENCODING 7971
SWIDTH 600 0
DWIDTH 10 0
BBX 8 17 1 -3
BITMAP
78
68
4C
24
00
FC
C6
C2
C2
C3
C3
C3
C3
C3
03
03
03
ENDCHAR
STARTCHAR 1F24
ENCODING 7972
SWIDTH 600 0
DWIDTH 10 0
BBX 8 17 1 -3
BITMAP
32
36
14
28
00
FC
C6
C2
C2
C3
C3
C3
C3
C3
03
03
03
ENDCHAR
STARTCHAR 1F25
ENCODING 7973
SWIDTH 600 0
DWIDTH 10 0
BBX 8 17 1 -3
BITMAP
66
64
2C
28
00
FC
C6
C2
C2
C3
C3
C3
C3
C3
03
03
03
ENDCHAR
STARTCHAR 1F26
ENCODING 7974
SWIDTH 600 0
DWIDTH 10 0
BBX 8 19 1 -3
BITMAP
3C
24
00
18
18
10
00
FC
C6
C2
C2
C3
C3
C3
C3
C3
03
03
03
ENDCHAR
STARTCHAR 1F27
ENCODING 7975
SWIDTH 600 0
DWIDTH 10 0
BBX 8 19 1 -3
BITMAP
3C
24
00
18
10
08
00
FC
C6
C2
C2
C3
C3
C3
C3
C3
03
03
03
ENDCHAR
STARTCHAR 1F28
ENCODING 7976
SWIDTH 780 0
DWIDTH 13 0
BBX 13 13 -1 0
BITMAP
6000
6818
4818
8818
0818
0818
0FF8
0818
0818
0818
0818
0818
0818
ENDCHAR
STARTCHAR 1F29
ENCODING 7977
SWIDTH 780 0
DWIDTH 13 0
BBX 13 13 -1 0
BITMAP
4000
C818
4818
2818
0818
0818
0FF8
0818
0818
0818
0818
0818
0818
ENDCHAR
STARTCHAR 1F2A
ENCODING 7978
SWIDTH 960 0
DWIDTH 16 0
BBX 16 13 -1 0
BITMAP
7800
6903
4D03
8503
0103
0103
01FF
0103
0103
0103
0103
0103
0103
ENDCHAR
STARTCHAR 1F2B
ENCODING 7979
SWIDTH 960 0
DWIDTH 16 0
BBX 16 13 -1 0
BITMAP
5000
D903
4903
2503
0103
0103
01FF
0103
0103
0103
0103
0103
0103
ENDCHAR
STARTCHAR 1F2C
ENCODING 7980
SWIDTH 960 0
DWIDTH 16 0
BBX 15 13 -1 0
BITMAP
6C00
6B02
5B02
9302
0302
0302
03FE
0302
0302
0302
0302
0302
0302
ENDCHAR
STARTCHAR 1F2D
ENCODING 7981
SWIDTH 960 0
DWIDTH 16 0
BBX 16 13 -1 0
BITMAP
4400
CD83
4983
3183
0183
0183
01FF
0183
0183
0183
0183
0183
0183
ENDCHAR
STARTCHAR 1F2E
ENCODING 7982
SWIDTH 900 0
DWIDTH 15 0
BBX 15 14 -1 0
BITMAP
7000
8800
0606
2606
2606
4606
0606
07FE
0606
0606
0606
0606
0606
0606
ENDCHAR
STARTCHAR 1F2F
ENCODING 7983
SWIDTH 900 0
DWIDTH 15 0
BBX 15 14 -1 0
BITMAP
7000
8800
0606
2606
2606
1606
0606
07FE
0606
0606
0606
0606
0606
0606
ENDCHAR
STARTCHAR 1F30
ENCODING 7984
SWIDTH 300 0
DWIDTH 5 0
BBX 3 14 1 0
BITMAP
40
40
40
80
00
C0
C0
C0
C0
C0
C0
C0
C0
60
ENDCHAR
STARTCHAR 1F31
ENCODING 7985
SWIDTH 300 0
DWIDTH 5 0
BBX 3 14 1 0
BITMAP
C0
C0
80
40
00
C0
C0
C0
C0
C0
C0
C0
C0
60
ENDCHAR
STARTCHAR 1F32
ENCODING 7986
SWIDTH 300 0
DWIDTH 5 0
BBX 6 14 -1 0
BITMAP
78
68
4C
84
00
30
30
30
30
30
30
30
30
18
ENDCHAR
STARTCHAR 1F33
ENCODING 7987
SWIDTH 300 0
DWIDTH 5 0
BBX 5 14 -1 0
BITMAP
F0
D0
C8
48
00
30
30
30
30
30
30
30
30
18
ENDCHAR
STARTCHAR 1F34
ENCODING 7988
SWIDTH 300 0
DWIDTH 5 0
BBX 6 14 0 0
BITMAP
4C
48
50
B0
00
60
60
60
60
60
60
60
60
30
ENDCHAR
STARTCHAR 1F35
ENCODING 7989
SWIDTH 300 0
DWIDTH 5 0
BBX 6 14 -1 0
BITMAP
C4
CC
48
30
00
30
30
30
30
30
30
30
30
18
ENDCHAR
STARTCHAR 1F36
ENCODING 7990
SWIDTH 300 0
DWIDTH 5 0
BBX 4 16 0 0
BITMAP
70
90
00
60
20
40
00
60
60
60
60
60
60
60
60
30
ENDCHAR
STARTCHAR 1F37
ENCODING 7991
SWIDTH 300 0
DWIDTH 5 0
BBX 4 16 0 0
BITMAP
70
90
00
60
60
20
00
60
60
60
60
60
60
60
60
30
ENDCHAR
STARTCHAR 1F38
ENCODING 7992
SWIDTH 360 0
DWIDTH 6 0
BBX 5 13 -1 0
BITMAP
60
68
48
88
08
08
08
08
08
08
08
08
08
ENDCHAR
STARTCHAR 1F39
ENCODING 7993
SWIDTH 360 0
DWIDTH 6 0
BBX 5 13 -1 0
BITMAP
40
C8
48
28
08
08
08
08
08
08
08
08
08
ENDCHAR
STARTCHAR 1F3A
ENCODING 7994
SWIDTH 540 0
DWIDTH 9 0
BBX 8 13 -1 0
BITMAP
78
69
4D
85
01
01
01
01
01
01
01
01
01
ENDCHAR
STARTCHAR 1F3B
ENCODING 7995
SWIDTH 540 0
DWIDTH 9 0
BBX 8 13 -1 0
BITMAP
50
D9
49
25
01
01
01
01
01
01
01
01
01
ENDCHAR
STARTCHAR 1F3C
ENCODING 7996
SWIDTH 540 0
DWIDTH 9 0
BBX 8 13 -1 0
BITMAP
6C
6B
5B
93
03
03
03
03
03
03
03
03
03
ENDCHAR
STARTCHAR 1F3D
ENCODING 7997
SWIDTH 540 0
DWIDTH 9 0
BBX 9 13 -1 0
BITMAP
4400
CD80
4980
3180
0180
0180
0180
0180
0180
0180
0180
0180
0180
ENDCHAR
STARTCHAR 1F3E
ENCODING 7998
SWIDTH 480 0
DWIDTH 8 0
BBX 7 14 -1 0
BITMAP
70
88
06
26
26
46
06
06
06
06
06
06
06
06
ENDCHAR
STARTCHAR 1F3F
ENCODING 7999
SWIDTH 480 0
DWIDTH 8 0
BBX 7 14 -1 0
BITMAP
70
88
06
26
26
16
06
06
06
06
06
06
06
06
ENDCHAR
STARTCHAR 1F40
ENCODING 8000
SWIDTH 600 0
DWIDTH 10 0
BBX 8 14 1 0
BITMAP
18
18
08
10
00
3C
66
C3
C3
C1
C3
C3
66
3C
ENDCHAR
STARTCHAR 1F41
ENCODING 8001
SWIDTH 600 0
DWIDTH 10 0
BBX 8 14 1 0
BITMAP
18
18
10
08
00
3C
66
C3
C3
C1
C3
C3
66
3C
ENDCHAR
STARTCHAR 1F42
ENCODING 8002
SWIDTH 600 0
DWIDTH 10 0
BBX 8 14 1 0
BITMAP
28
34
26
42
00
3C
66
C3
C3
C1
C3
C3
66
3C
ENDCHAR
STARTCHAR 1F43
ENCODING 8003
SWIDTH 600 0
DWIDTH 10 0
BBX 8 14 1 0
BITMAP
78
68
44
24
00
3C
66
C3
C3
C1
C3
C3
66
3C
ENDCHAR
STARTCHAR 1F44
ENCODING 8004
SWIDTH 600 0
DWIDTH 10 0
BBX 8 14 1 0
BITMAP
32
36
14
2C
00
3C
66
C3
C3
C1
C3
C3
66
3C
ENDCHAR
STARTCHAR 1F45
ENCODING 8005
SWIDTH 600 0
DWIDTH 10 0
BBX 8 14 1 0
BITMAP
62
66
24
18
00
3C
66
C3
C3
C1
C3
C3
66
3C
ENDCHAR
STARTCHAR 1F48
ENCODING 8008
SWIDTH 780 0
DWIDTH 13 0
BBX 13 13 -1 0
BITMAP
6000
67C0
4C30
9818
1018
3008
3008
3008
3008
1018
1818
0C30
07C0
ENDCHAR
STARTCHAR 1F49
ENCODING 8009
SWIDTH 840 0
DWIDTH 14 0
BBX 14 13 -1 0
BITMAP
4000
C3E0
4C30
2818
180C
180C
180C
180C
180C
180C
0818
0C30
03E0
ENDCHAR
STARTCHAR 1F4A
ENCODING 8010
SWIDTH 1020 0
DWIDTH 17 0
BBX 17 13 -1 0
BITMAP
780000
687C00
4CC300
858100
030180
030180
030180
030180
030180
030180
018100
00C300
007C00
ENDCHAR
STARTCHAR 1F4B
ENCODING 8011
SWIDTH 1020 0
DWIDTH 17 0
BBX 17 13 -1 0
BITMAP
500000
D87C00
498600
250300
030180
030180
020180
020180
030180
030180
010300
018600
007C00
ENDCHAR
STARTCHAR 1F4C
ENCODING 8012
SWIDTH 960 0
DWIDTH 16 0
BBX 16 13 -1 0
BITMAP
6C00
68F8
5B0C
9206
0603
0603
0403
0403
0603
0603
0206
030C
00F8
ENDCHAR
STARTCHAR 1F4D
ENCODING 8013
SWIDTH 960 0
DWIDTH 16 0
BBX 16 13 -1 0
BITMAP
4400
CCF8
4986
3303
0203
0601
0601
0601
0601
0203
0303
0186
00F8
ENDCHAR
STARTCHAR 1F50
ENCODING 8016
SWIDTH 600 0
DWIDTH 10 0
BBX 8 14 1 0
BITMAP
18
18
08
10
00
C3
C3
C3
C3
C3
C3
C2
46
3C
ENDCHAR
STARTCHAR 1F51
ENCODING 8017
SWIDTH 600 0
DWIDTH 10 0
BBX 8 14 1 0
BITMAP
10
10
10
08
00
C3
C3
C3
C3
C3
C3
C2
46
3C
ENDCHAR
STARTCHAR 1F52
ENCODING 8018
SWIDTH 600 0
DWIDTH 10 0
BBX 8 14 1 0
BITMAP
28
2C
24
42
00
C3
C3
C3
C3
C3
C3
C2
46
3C
ENDCHAR
STARTCHAR 1F53
ENCODING 8019
SWIDTH 600 0
DWIDTH 10 0
BBX 8 14 1 0
BITMAP
78
68
4C
24
00
C3
C3
C3
C3
C3
C3
C2
46
3C
ENDCHAR
STARTCHAR 1F54
ENCODING 8020
SWIDTH 600 0
DWIDTH 10 0
BBX 8 14 1 0
BITMAP
32
36
14
28
00
C3
C3
C3
C3
C3
C3
C2
46
3C
ENDCHAR
STARTCHAR 1F55
ENCODING 8021
SWIDTH 600 0
DWIDTH 10 0
BBX 8 14 1 0
BITMAP
66
64
6C
28
00
C3
C3
C3
C3
C3
C3
C2
46
3C
ENDCHAR
STARTCHAR 1F56
ENCODING 8022
SWIDTH 600 0
DWIDTH 10 0
BBX 8 16 1 0
BITMAP
38
24
00
18
18
10
00
C3
C3
C3
C3
C3
C3
C2
46
3C
ENDCHAR
STARTCHAR 1F57
ENCODING 8023
SWIDTH 600 0
DWIDTH 10 0
BBX 8 16 1 0
BITMAP
38
24
00
18
10
08
00
C3
C3
C3
C3
C3
C3
C2
46
3C
ENDCHAR
STARTCHAR 1F59
ENCODING 8025
SWIDTH 720 0
DWIDTH 12 0
BBX 13 13 -1 0
BITMAP
4000
D818
4C30
2C20
0660
06C0
03C0
0180
0180
0180
0180
0180
0180
ENDCHAR
STARTCHAR 1F5B
ENCODING 8027
SWIDTH 900 0
DWIDTH 15 0
BBX 15 13 -1 0
BITMAP
5000
DB02
4906
258C
00CC
00D8
0070
0030
0030
0030
0030
0030
0030
ENDCHAR
STARTCHAR 1F5D
ENCODING 8029
SWIDTH 960 0
DWIDTH 16 0
BBX 16 13 -1 0
BITMAP
4400
CD83
4983
30C6
0046
006C
0038
0038
0010
0010
0010
0010
0010
ENDCHAR
STARTCHAR 1F5F
ENCODING 8031
SWIDTH 840 0
DWIDTH 14 0
BBX 15 14 -1 0
BITMAP
7000
8800
0206
2304
218C
1188
00D8
0070
0060
0060
0060
0060
0060
0060
ENDCHAR
STARTCHAR 1F60
ENCODING 8032
SWIDTH 840 0
DWIDTH 14 0
BBX 12 14 1 0
BITMAP
0200
0200
0200
0400
0000
6060
4030
C630
C610
C610
C610
C630
4730
39E0
ENDCHAR
STARTCHAR 1F61
ENCODING 8033
SWIDTH 840 0
DWIDTH 14 0
BBX 12 14 1 0
BITMAP
0600
0600
0400
0200
0000
6060
4030
C630
C610
C610
C610
C630
4730
39E0
ENDCHAR
STARTCHAR 1F62
ENCODING 8034
SWIDTH 840 0
DWIDTH 14 0
BBX 12 14 1 0
BITMAP
0F00
0D00
0980
1080
0000
6060
4030
C630
C610
C610
C610
C630
4730
39E0
ENDCHAR
STARTCHAR 1F63
ENCODING 8035
SWIDTH 840 0
DWIDTH 14 0
BBX 12 14 1 0
BITMAP
1E00
1A00
1900
0900
0000
6060
4030
C630
C610
C610
C610
C630
4730
39E0
ENDCHAR
STARTCHAR 1F64
ENCODING 8036
SWIDTH 840 0
DWIDTH 14 0
BBX 12 14 1 0
BITMAP
04C0
0480
0500
0B00
0000
6060
4030
C630
C610
C610
C610
C630
4730
39E0
ENDCHAR
STARTCHAR 1F65
ENCODING 8037
SWIDTH 840 0
DWIDTH 14 0
BBX 12 14 1 0
BITMAP
1880
1980
0900
0600
0000
6060
4030
C630
C610
C610
C610
C630
4730
39E0
ENDCHAR
STARTCHAR 1F66
ENCODING 8038
SWIDTH 840 0
DWIDTH 14 0
BBX 12 16 1 0
BITMAP
0700
0900
0000
0600
0200
0400
0000
6060
4030
C630
C610
C610
C610
C630
4730
39E0
ENDCHAR
STARTCHAR 1F67
ENCODING 8039
SWIDTH 840 0
DWIDTH 14 0
BBX 12 16 1 0
BITMAP
0700
0900
0000
0600
0600
0200
0000
6060
4030
C630
C610
C610
C610
C630
4730
39E0
ENDCHAR
STARTCHAR 1F68
ENCODING 8040
SWIDTH 780 0
DWIDTH 13 0
BBX 14 13 -1 0
BITMAP
6000
67C0
4C30
9810
1018
3018
3008
3008
3018
1818
1810
0C30
3E7C
ENDCHAR
STARTCHAR 1F69
ENCODING 8041
SWIDTH 840 0
DWIDTH 14 0
BBX 14 13 -1 0
BITMAP
4000
C3E0
4430
2818
1808
180C
180C
180C
180C
1808
0C18
0430
1E3C
ENDCHAR
STARTCHAR 1F6A
ENCODING 8042
SWIDTH 1020 0
DWIDTH 17 0
BBX 17 13 -1 0
BITMAP
780000
687C00
4CC200
858100
030180
030180
030180
030180
030180
010180
018300
00C200
03C780
ENDCHAR
STARTCHAR 1F6B
ENCODING 8043
SWIDTH 1020 0
DWIDTH 17 0
BBX 17 13 -1 0
BITMAP
500000
D87C00
498600
250300
030100
030180
030180
030180
030180
030100
018300
008600
03C780
ENDCHAR
STARTCHAR 1F6C
ENCODING 8044
SWIDTH 960 0
DWIDTH 16 0
BBX 16 13 -1 0
BITMAP
6C00
68F8
590C
9206
0602
0603
0603
0603
0603
0602
0306
010C
078F
ENDCHAR
STARTCHAR 1F6D
ENCODING 8045
SWIDTH 960 0
DWIDTH 16 0
BBX 17 13 -1 0
BITMAP
440000
CCF800
498600
330200
020300
060100
060100
060100
020300
030300
030200
018600
07CF80
ENDCHAR
STARTCHAR 1F6E
ENCODING 8046
SWIDTH 900 0
DWIDTH 15 0
BBX 15 14 -1 0
BITMAP
7000
8800
01E0
2618
2C0C
4C04
0804
0806
0806
0C04
0C0C
040C
0618
1F3E
ENDCHAR
STARTCHAR 1F6F
ENCODING 8047
SWIDTH 900 0
DWIDTH 15 0
BBX 15 14 -1 0
BITMAP
7000
8800
01F0
2308
2604
1C06
0C06
0C06
0C06
0C06
0406
060C
0308
0F1E
ENDCHAR
STARTCHAR 1F70
ENCODING 8048
SWIDTH 600 0
DWIDTH 10 0
BBX 9 13 1 0
BITMAP
2000
1800
0800
0000
3E00
6300
C300
C300
C300
C300
C300
6300
3D80
ENDCHAR
STARTCHAR 1F71
ENCODING 8049
SWIDTH 600 0
DWIDTH 10 0
BBX 9 13 1 0
BITMAP
0400
1C00
1000
0000
3E00
6300
C300
C300
C300
C300
C300
6300
3D80
ENDCHAR
STARTCHAR 1F72
ENCODING 8050
SWIDTH 540 0
DWIDTH 9 0
BBX 7 13 1 0
BITMAP
20
30
08
00
3E
40
C0
C0
78
C0
C0
C0
7E
ENDCHAR
STARTCHAR 1F73
ENCODING 8051
SWIDTH 540 0
DWIDTH 9 0
BBX 7 13 1 0
BITMAP
08
18
10
00
3E
40
C0
C0
78
C0
C0
C0
7E
ENDCHAR
STARTCHAR 1F74
ENCODING 8052
SWIDTH 600 0
DWIDTH 10 0
BBX 8 16 1 -3
BITMAP
20
38
08
00
FC
C6
C2
C2
C3
C3
C3
C3
C3
03
03
03
ENDCHAR
STARTCHAR 1F75
ENCODING 8053
SWIDTH 600 0
DWIDTH 10 0
BBX 8 16 1 -3
BITMAP
04
18
10
00
FC
C6
C2
C2
C3
C3
C3
C3
C3
03
03
03
ENDCHAR
STARTCHAR 1F76
ENCODING 8054
SWIDTH 300 0
DWIDTH 5 0
BBX 4 13 0 0
BITMAP
80
60
20
00
60
60
60
60
60
60
60
60
30
ENDCHAR
STARTCHAR 1F77
ENCODING 8055
SWIDTH 300 0
DWIDTH 5 0
BBX 3 13 1 0
BITMAP
20
E0
80
00
C0
C0
C0
C0
C0
C0
C0
C0
60
ENDCHAR
STARTCHAR 1F78
ENCODING 8056
SWIDTH 600 0
DWIDTH 10 0
BBX 8 13 1 0
BITMAP
20
38
08
00
3C
66
C3
C3
C1
C3
C3
66
3C
ENDCHAR
STARTCHAR 1F79
ENCODING 8057
SWIDTH 600 0
DWIDTH 10 0
BBX 8 13 1 0
BITMAP
04
1C
10
00
3C
66
C3
C3
C1
C3
C3
66
3C
ENDCHAR
STARTCHAR 1F7A
ENCODING 8058
SWIDTH 600 0
DWIDTH 10 0
BBX 8 13 1 0
BITMAP
20
38
08
00
C3
C3
C3
C3
C3
C3
C2
46
3C
ENDCHAR
STARTCHAR 1F7B
ENCODING 8059
SWIDTH 600 0
DWIDTH 10 0
BBX 8 13 1 0
BITMAP
04
18
10
00
C3
C3
C3
C3
C3
C3
C2
46
3C
ENDCHAR
STARTCHAR 1F7C
ENCODING 8060
SWIDTH 840 0
DWIDTH 14 0
BBX 12 13 1 0
BITMAP
0800
0600
0200
0000
6060
4030
C630
C610
C610
C610
C630
4730
39E0
ENDCHAR
STARTCHAR 1F7D
ENCODING 8061
SWIDTH 840 0
DWIDTH 14 0
BBX 12 13 1 0
BITMAP
0100
0700
0400
0000
6060
4030
C630
C610
C610
C610
C630
4730
39E0
ENDCHAR
STARTCHAR 1F80
ENCODING 8064
SWIDTH 600 0
DWIDTH 10 0
BBX 9 17 1 -3
BITMAP
0800
0800
0800
1000
0000
3E00
6300
C300
C300
C300
C300
C300
6300
3D80
0000
1800
0C00
ENDCHAR
STARTCHAR 1F81
ENCODING 8065
SWIDTH 600 0
DWIDTH 10 0
BBX 9 17 1 -3
BITMAP
1800
1800
1000
0800
0000
3E00
6300
C300
C300
C300
C300
C300
6300
3D80
0000
1800
0C00
ENDCHAR
STARTCHAR 1F82
ENCODING 8066
SWIDTH 600 0
DWIDTH 10 0
BBX 9 17 1 -3
BITMAP
3C00
3400
2600
4200
0000
3E00
6300
C300
C300
C300
C300
C300
6300
3D80
0000
1800
0C00
ENDCHAR
STARTCHAR 1F83
ENCODING 8067
SWIDTH 600 0
DWIDTH 10 0
BBX 9 17 1 -3
BITMAP
7800
6800
6400
2400
0000
3E00
6300
C300
C300
C300
C300
C300
6300
3D80
0000
1800
0C00
ENDCHAR
STARTCHAR 1F84
ENCODING 8068
SWIDTH 600 0
DWIDTH 10 0
BBX 9 17 1 -3
BITMAP
1300
1200
1400
2C00
0000
3E00
6300
C300
C300
C300
C300
C300
6300
3D80
0000
1800
0C00
ENDCHAR
STARTCHAR 1F85
ENCODING 8069
SWIDTH 600 0
DWIDTH 10 0
BBX 9 17 1 -3
BITMAP
6200
6600
2400
1800
0000
3E00
6300
C300
C300
C300
C300
C300
6300
3D80
0000
1800
0C00
ENDCHAR
STARTCHAR 1F86
ENCODING 8070
SWIDTH 600 0
DWIDTH 10 0
BBX 9 19 1 -3
BITMAP
1C00
2400
0000
1800
0800
1000
0000
3E00
6300
C300
C300
C300
C300
C300
6300
3D80
0000
1800
0C00
ENDCHAR
STARTCHAR 1F87
ENCODING 8071
SWIDTH 600 0
DWIDTH 10 0
BBX 9 19 1 -3
BITMAP
1C00
2400
0000
1800
1800
0800
0000
3E00
6300
C300
C300
C300
C300
C300
6300
3D80
0000
1800
0C00
ENDCHAR
STARTCHAR 1F88
ENCODING 8072
SWIDTH 960 0
DWIDTH 16 0
BBX 15 13 0 0
BITMAP
2000
6600
2E00
4A00
1B04
1904
1184
3184
3084
7FC4
60C4
4064
C066
ENDCHAR
STARTCHAR 1F89
ENCODING 8073
SWIDTH 960 0
DWIDTH 16 0
BBX 15 13 0 0
BITMAP
4000
6600
4E00
2A00
1B04
1904
1184
3184
3084
7FC4
60C4
4064
C066
ENDCHAR
STARTCHAR 1F8A
ENCODING 8074
SWIDTH 1080 0
DWIDTH 18 0
BBX 18 13 -1 0
BITMAP
780000
68C000
4DC000
854000
036080
032080
023080
063080
061080
0FF880
0C1880
080C80
180CC0
ENDCHAR
STARTCHAR 1F8B
ENCODING 8075
SWIDTH 1080 0
DWIDTH 18 0
BBX 18 13 -1 0
BITMAP
500000
D98000
49C000
254000
036180
026180
062180
063180
043180
0FF980
081980
180880
180CC0
ENDCHAR
STARTCHAR 1F8C
ENCODING 8076
SWIDTH 1020 0
DWIDTH 17 0
BBX 18 13 -1 0
BITMAP
6C0000
698000
5B8000
928000
06C100
064100
046100
0C6100
0C2100
1FF100
183100
101900
3019C0
ENDCHAR
STARTCHAR 1F8D
ENCODING 8077
SWIDTH 1080 0
DWIDTH 18 0
BBX 18 13 -1 0
BITMAP
440000
CD8000
49C000
33C000
024180
026180
066180
043180
0C3180
0FF180
081980
181980
1808C0
ENDCHAR
STARTCHAR 1F8E
ENCODING 8078
SWIDTH 960 0
DWIDTH 16 0
BBX 16 14 -1 0
BITMAP
7000
8800
0300
2700
2500
4D82
0C82
08C2
18C2
1842
3FE2
3062
2032
6033
ENDCHAR
STARTCHAR 1F8F
ENCODING 8079
SWIDTH 960 0
DWIDTH 16 0
BBX 17 14 -1 0
BITMAP
700000
880000
030000
270000
278000
158200
0C8200
08C200
18C200
186200
1FE200
302200
303300
603180
ENDCHAR
STARTCHAR 1F90
ENCODING 8080
SWIDTH 600 0
DWIDTH 10 0
BBX 8 17 1 -3
BITMAP
18
18
08
10
00
FC
C6
C2
C2
C3
C3
C3
C3
C3
03
C3
63
ENDCHAR
STARTCHAR 1F91
ENCODING 8081
SWIDTH 600 0
DWIDTH 10 0
BBX 8 17 1 -3
BITMAP
10
18
10
08
00
FC
C6
C2
C2
C3
C3
C3
C3
C3
03
C3
63
ENDCHAR
STARTCHAR 1F92
ENCODING 8082
SWIDTH 600 0
DWIDTH 10 0
BBX 8 17 1 -3
BITMAP
28
24
24
42
00
FC
C6
C2
C2
C3
C3
C3
C3
C3
03
C3
63
ENDCHAR
STARTCHAR 1F93
ENCODING 8083
SWIDTH 600 0
DWIDTH 10 0
BBX 8 17 1 -3
BITMAP
78
68
4C
24
00
FC
C6
C2
C2
C3
C3
C3
C3
C3
03
C3
63
ENDCHAR
STARTCHAR 1F94
ENCODING 8084
SWIDTH 600 0
DWIDTH 10 0
BBX 8 17 1 -3
BITMAP
32
36
14
28
00
FC
C6
C2
C2
C3
C3
C3
C3
C3
03
C3
63
ENDCHAR
STARTCHAR 1F95
ENCODING 8085
SWIDTH 600 0
DWIDTH 10 0
BBX 8 17 1 -3
BITMAP
66
64
2C
28
00
FC
C6
C2
C2
C3
C3
C3
C3
C3
03
C3
63
ENDCHAR
STARTCHAR 1F96
ENCODING 8086
SWIDTH 600 0
DWIDTH 10 0
BBX 8 19 1 -3
BITMAP
3C
24
00
18
18
10
00
FC
C6
C2
C2
C3
C3
C3
C3
C3
03
C3
63
ENDCHAR
STARTCHAR 1F97
ENCODING 8087
SWIDTH 600 0
DWIDTH 10 0
BBX 8 19 1 -3
BITMAP
38
24
00
18
10
08
00
FC
C6
C2
C2
C3
C3
C3
C3
C3
03
C3
63
ENDCHAR
STARTCHAR 1F98
ENCODING 8088
SWIDTH 1080 0
DWIDTH 18 0
BBX 18 13 -1 0
BITMAP
600000
681800
481800
881800
081980
081980
0FF980
081980
081980
081980
081980
081880
0818C0
ENDCHAR
STARTCHAR 1F99
ENCODING 8089
SWIDTH 1080 0
DWIDTH 18 0
BBX 18 13 -1 0
BITMAP
400000
C81800
481800
281800
081980
081980
0FF980
081980
081980
081980
081980
081880
0818C0
ENDCHAR
STARTCHAR 1F9A
ENCODING 8090
SWIDTH 1260 0
DWIDTH 21 0
BBX 21 13 -1 0
BITMAP
780000
690300
4D0300
850300
010310
010310
01FF10
010310
010310
010310
010310
010310
010318
ENDCHAR
STARTCHAR 1F9B
ENCODING 8091
SWIDTH 1260 0
DWIDTH 21 0
BBX 21 13 -1 0
BITMAP
500000
D90300
490300
250300
010330
010330
01FF30
010330
010330
010330
010330
010310
010318
ENDCHAR
STARTCHAR 1F9C
ENCODING 8092
SWIDTH 1260 0
DWIDTH 21 0
BBX 21 13 -1 0
BITMAP
6C0000
6B0200
5B0200
930200
030230
030230
03FE30
030230
030230
030230
030230
030230
030218
ENDCHAR
STARTCHAR 1F9D
ENCODING 8093
SWIDTH 1260 0
DWIDTH 21 0
BBX 22 13 -1 0
BITMAP
440000
CD8300
498300
318300
018310
018310
01FF10
018310
018310
018310
018310
018318
01830C
ENDCHAR
STARTCHAR 1F9E
ENCODING 8094
SWIDTH 1200 0
DWIDTH 20 0
BBX 20 14 -1 0
BITMAP
700000
880000
060600
260600
260600
460660
060660
07FE60
060660
060660
060660
060660
060660
060630
ENDCHAR
STARTCHAR 1F9F
ENCODING 8095
SWIDTH 1200 0
DWIDTH 20 0
BBX 20 14 -1 0
BITMAP
700000
880000
060600
260600
260600
160660
060660
07FE60
060660
060660
060660
060660
060660
060630
ENDCHAR
STARTCHAR 1FA0
ENCODING 8096
SWIDTH 840 0
DWIDTH 14 0
BBX 12 17 1 -3
BITMAP
0200
0200
0200
0400
0000
6060
4030
C630
C610
C610
C610
C630
4730
39E0
0000
0600
0300
ENDCHAR
STARTCHAR 1FA1
ENCODING 8097
SWIDTH 840 0
DWIDTH 14 0
BBX 12 17 1 -3
BITMAP
0600
0600
0400
0200
0000
6060
4030
C630
C610
C610
C610
C630
4730
39E0
0000
0600
0300
ENDCHAR
STARTCHAR 1FA2
ENCODING 8098
SWIDTH 840 0
DWIDTH 14 0
BBX 12 17 1 -3
BITMAP
0F00
0D00
0980
1080
0000
6060
4030
C630
C610
C610
C610
C630
4730
39E0
0000
0600
0300
ENDCHAR
STARTCHAR 1FA3
ENCODING 8099
SWIDTH 840 0
DWIDTH 14 0
BBX 12 17 1 -3
BITMAP
1E00
1A00
1900
0900
0000
6060
4030
C630
C610
C610
C610
C630
4730
39E0
0000
0600
0300
ENDCHAR
STARTCHAR 1FA4
ENCODING 8100
SWIDTH 840 0
DWIDTH 14 0
BBX 12 17 1 -3
BITMAP
04C0
0480
0500
0B00
0000
6060
4030
C630
C610
C610
C610
C630
4730
39E0
0000
0600
0300
ENDCHAR
STARTCHAR 1FA5
ENCODING 8101
SWIDTH 840 0
DWIDTH 14 0
BBX 12 17 1 -3
BITMAP
1880
1980
0900
0600
0000
6060
4030
C630
C610
C610
C610
C630
4730
39E0
0000
0600
0300
ENDCHAR
STARTCHAR 1FA6
ENCODING 8102
SWIDTH 840 0
DWIDTH 14 0
BBX 12 19 1 -3
BITMAP
0700
0900
0000
0600
0200
0400
0000
6060
4030
C630
C610
C610
C610
C630
4730
39E0
0000
0600
0300
ENDCHAR
STARTCHAR 1FA7
ENCODING 8103
SWIDTH 840 0
DWIDTH 14 0
BBX 12 19 1 -3
BITMAP
0700
0900
0000
0600
0600
0200
0000
6060
4030
C630
C610
C610
C610
C630
4730
39E0
0000
0600
0300
ENDCHAR
STARTCHAR 1FA8
ENCODING 8104
SWIDTH 1080 0
DWIDTH 18 0
BBX 19 13 -1 0
BITMAP
600000
67C000
4C3000
981000
101880
301880
300880
300880
301880
181880
181080
0C30C0
3E7C60
ENDCHAR
STARTCHAR 1FA9
ENCODING 8105
SWIDTH 1140 0
DWIDTH 19 0
BBX 19 13 -1 0
BITMAP
400000
C3E000
443000
281800
1808C0
180CC0
180CC0
180CC0
180CC0
1808C0
0C18C0
043040
1E3C60
ENDCHAR
STARTCHAR 1FAA
ENCODING 8106
SWIDTH 1320 0
DWIDTH 22 0
BBX 22 13 -1 0
BITMAP
780000
687C00
4CC200
858100
030188
030188
030188
030188
030188
010188
018308
00C208
03C78C
ENDCHAR
STARTCHAR 1FAB
ENCODING 8107
SWIDTH 1320 0
DWIDTH 22 0
BBX 22 13 -1 0
BITMAP
500000
D87C00
498600
250300
030118
030198
030198
030198
030198
030118
018318
008608
03C78C
ENDCHAR
STARTCHAR 1FAC
ENCODING 8108
SWIDTH 1260 0
DWIDTH 21 0
BBX 21 13 -1 0
BITMAP
6C0000
68F800
590C00
920600
060230
060330
060330
060330
060330
060230
030630
010C10
078F18
ENDCHAR
STARTCHAR 1FAD
ENCODING 8109
SWIDTH 1260 0
DWIDTH 21 0
BBX 22 13 -1 0
BITMAP
440000
CCF800
498600
330200
020310
060110
060110
060110
020310
030310
030210
018618
07CF8C
ENDCHAR
STARTCHAR 1FAE
ENCODING 8110
SWIDTH 1140 0
DWIDTH 19 0
BBX 20 14 -1 0
BITMAP
700000
880000
01E000
261800
2C0C00
4C0460
080460
080660
080660
0C0460
0C0C60
040C60
061860
1F3E30
ENDCHAR
STARTCHAR 1FAF
ENCODING 8111
SWIDTH 1200 0
DWIDTH 20 0
BBX 20 14 -1 0
BITMAP
700000
880000
01F000
230800
260400
1C0620
0C0620
0C0620
0C0620
0C0620
040620
060C20
030820
0F1E30
ENDCHAR
STARTCHAR 1FB0
ENCODING 8112
SWIDTH 600 0
DWIDTH 10 0
BBX 9 12 1 0
BITMAP
2400
1C00
0000
3E00
6300
C300
C300
C300
C300
C300
6300
3D80
ENDCHAR
STARTCHAR 1FB1
ENCODING 8113
SWIDTH 600 0
DWIDTH 10 0
BBX 9 12 1 0
BITMAP
3E00
0000
0000
3E00
6300
C300
C300
C300
C300
C300
6300
3D80
ENDCHAR
STARTCHAR 1FB2
ENCODING 8114
SWIDTH 600 0
DWIDTH 10 0
BBX 9 16 1 -3
BITMAP
2000
1800
0800
0000
3E00
6300
C300
C300
C300
C300
C300
6300
3D80
0000
1800
0C00
ENDCHAR
STARTCHAR 1FB3
ENCODING 8115
SWIDTH 600 0
DWIDTH 10 0
BBX 9 12 1 -3
BITMAP
3E00
6300
C300
C300
C300
C300
C300
6300
3D80
0000
1800
0C00
ENDCHAR
STARTCHAR 1FB4
ENCODING 8116
SWIDTH 600 0
DWIDTH 10 0
BBX 9 16 1 -3
BITMAP
0400
1C00
1000
0000
3E00
6300
C300
C300
C300
C300
C300
6300
3D80
0000
1800
0C00
ENDCHAR
STARTCHAR 1FB6
ENCODING 8118
SWIDTH 600 0
DWIDTH 10 0
BBX 9 12 1 0
BITMAP
1C00
2400
0000
3E00
6300
C300
C300
C300
C300
C300
6300
3D80
ENDCHAR
STARTCHAR 1FB7
ENCODING 8119
SWIDTH 600 0
DWIDTH 10 0
BBX 9 15 1 -3
BITMAP
1C00
2400
0000
3E00
6300
C300
C300
C300
C300
C300
6300
3D80
0000
1800
0C00
ENDCHAR
STARTCHAR 1FB8
ENCODING 8120
SWIDTH 660 0
DWIDTH 11 0
BBX 11 15 0 0
BITMAP
1900
0E00
0000
0600
0E00
0A00
1B00
1900
1180
3180
3080
7FC0
60C0
4060
C060
ENDCHAR
STARTCHAR 1FB9
ENCODING 8121
SWIDTH 660 0
DWIDTH 11 0
BBX 11 15 0 0
BITMAP
1F00
0000
0000
0600
0E00
0A00
1B00
1900
1180
3180
3080
7FC0
60C0
4060
C060
ENDCHAR
STARTCHAR 1FBA
ENCODING 8122
SWIDTH 660 0
DWIDTH 11 0
BBX 11 12 0 0
BITMAP
8600
CE00
4A00
1B00
1900
1180
3180
3080
7FC0
60C0
4060
C060
ENDCHAR
STARTCHAR 1FBB
ENCODING 8123
SWIDTH 660 0
DWIDTH 11 0
BBX 11 12 0 0
BITMAP
2600
6E00
4A00
1B00
1900
1180
3180
3080
7FC0
60C0
4060
C060
ENDCHAR
STARTCHAR 1FBC
ENCODING 8124
SWIDTH 960 0
DWIDTH 16 0
BBX 15 12 0 0
BITMAP
0600
0E00
0A00
1B04
1904
1184
3184
3084
7FC4
60C4
4064
C066
ENDCHAR
STARTCHAR 1FBD
ENCODING 8125
SWIDTH 360 0
DWIDTH 6 0
BBX 2 4 2 10
BITMAP
40
40
40
80
ENDCHAR
STARTCHAR 1FBE
ENCODING 8126
SWIDTH 300 0
DWIDTH 5 0
BBX 2 2 2 -3
BITMAP
80
C0
ENDCHAR
STARTCHAR 1FBF
ENCODING 8127
SWIDTH 360 0
DWIDTH 6 0
BBX 2 4 2 10
BITMAP
40
40
40
80
ENDCHAR
STARTCHAR 1FC0
ENCODING 8128
SWIDTH 360 0
DWIDTH 6 0
BBX 4 2 1 10
BITMAP
70
90
ENDCHAR
STARTCHAR 1FC1
ENCODING 8129
SWIDTH 360 0
DWIDTH 6 0
BBX 5 5 1 10
BITMAP
70
90
00
98
98
ENDCHAR
STARTCHAR 1FC2
ENCODING 8130
SWIDTH 600 0
DWIDTH 10 0
BBX 8 16 1 -3
BITMAP
20
38
08
00
FC
C6
C2
C2
C3
C3
C3
C3
C3
03
C3
63
ENDCHAR
STARTCHAR 1FC3
ENCODING 8131
SWIDTH 600 0
DWIDTH 10 0
BBX 8 12 1 -3
BITMAP
FC
C6
C2
C2
C3
C3
C3
C3
C3
03
C3
63
ENDCHAR
STARTCHAR 1FC4
ENCODING 8132
SWIDTH 600 0
DWIDTH 10 0
BBX 8 16 1 -3
BITMAP
04
18
10
00
FC
C6
C2
C2
C3
C3
C3
C3
C3
03
C3
63
ENDCHAR
STARTCHAR 1FC6
ENCODING 8134
SWIDTH 600 0
DWIDTH 10 0
BBX 8 15 1 -3
BITMAP
3C
24
00
FC
C6
C2
C2
C3
C3
C3
C3
C3
03
03
03
ENDCHAR
STARTCHAR 1FC7
ENCODING 8135
SWIDTH 600 0
DWIDTH 10 0
BBX 8 15 1 -3
BITMAP
3C
24
00
FC
C6
C2
C2
C3
C3
C3
C3
C3
03
C3
63
ENDCHAR
STARTCHAR 1FC8
ENCODING 8136
SWIDTH 720 0
DWIDTH 12 0
BBX 11 12 0 0
BITMAP
8FE0
C800
4800
0800
0800
0FC0
0800
0800
0800
0800
0800
0FE0
ENDCHAR
STARTCHAR 1FC9
ENCODING 8137
SWIDTH 720 0
DWIDTH 12 0
BBX 11 12 0 0
BITMAP
4FE0
C800
8800
0800
0800
0FC0
0800
0800
0800
0800
0800
0FE0
ENDCHAR
STARTCHAR 1FCA
ENCODING 8138
SWIDTH 840 0
DWIDTH 14 0
BBX 13 12 0 0
BITMAP
8818
C818
4818
0818
0818
0FF8
0818
0818
0818
0818
0818
0818
ENDCHAR
STARTCHAR 1FCB
ENCODING 8139
SWIDTH 840 0
DWIDTH 14 0
BBX 13 12 0 0
BITMAP
4818
C818
8818
0818
0818
0FF8
0818
0818
0818
0818
0818
0818
ENDCHAR
STARTCHAR 1FCC
ENCODING 8140
SWIDTH 1020 0
DWIDTH 17 0
BBX 15 12 1 0
BITMAP
C0C0
C0C0
C0C0
C0CC
C0CC
FFCC
C0CC
C0CC
C0CC
C0CC
C0CC
C0C6
ENDCHAR
STARTCHAR 1FCD
ENCODING 8141
SWIDTH 360 0
DWIDTH 6 0
BBX 6 4 0 10
BITMAP
58
68
4C
84
ENDCHAR
STARTCHAR 1FCE
ENCODING 8142
SWIDTH 360 0
DWIDTH 6 0
BBX 5 4 1 10
BITMAP
D8
D0
B0
A0
ENDCHAR
STARTCHAR 1FCF
ENCODING 8143
SWIDTH 360 0
DWIDTH 6 0
BBX 4 6 1 10
BITMAP
70
90
00
60
20
40
ENDCHAR
STARTCHAR 1FD0
ENCODING 8144
SWIDTH 300 0
DWIDTH 5 0
BBX 4 12 0 0
BITMAP
90
70
00
60
60
60
60
60
60
60
60
30
ENDCHAR
STARTCHAR 1FD1
ENCODING 8145
SWIDTH 300 0
DWIDTH 5 0
BBX 5 12 0 0
BITMAP
F8
00
00
60
60
60
60
60
60
60
60
30
ENDCHAR
STARTCHAR 1FD2
ENCODING 8146
SWIDTH 300 0
DWIDTH 5 0
BBX 6 14 -1 0
BITMAP
20
F4
D4
10
00
30
30
30
30
30
30
30
30
18
ENDCHAR
STARTCHAR 1FD3
ENCODING 8147
SWIDTH 300 0
DWIDTH 5 0
BBX 6 14 -1 0
BITMAP
10
D4
F4
20
00
30
30
30
30
30
30
30
30
18
ENDCHAR
STARTCHAR 1FD6
ENCODING 8150
SWIDTH 300 0
DWIDTH 5 0
BBX 4 12 0 0
BITMAP
70
90
00
60
60
60
60
60
60
60
60
30
ENDCHAR
STARTCHAR 1FD7
ENCODING 8151
SWIDTH 300 0
DWIDTH 5 0
BBX 5 15 0 0
BITMAP
70
90
00
98
98
00
60
60
60
60
60
60
60
60
30
ENDCHAR
STARTCHAR 1FD8
ENCODING 8152
SWIDTH 300 0
DWIDTH 5 0
BBX 5 15 0 0
BITMAP
98
70
00
60
60
60
60
60
60
60
60
60
60
60
60
ENDCHAR
STARTCHAR 1FD9
ENCODING 8153
SWIDTH 300 0
DWIDTH 5 0
BBX 5 15 0 0
BITMAP
F8
00
00
60
60
60
60
60
60
60
60
60
60
60
60
ENDCHAR
STARTCHAR 1FDA
ENCODING 8154
SWIDTH 420 0
DWIDTH 7 0
BBX 5 12 0 0
BITMAP
88
C8
48
08
08
08
08
08
08
08
08
08
ENDCHAR
STARTCHAR 1FDB
ENCODING 8155
SWIDTH 420 0
DWIDTH 7 0
BBX 5 12 0 0
BITMAP
48
C8
88
08
08
08
08
08
08
08
08
08
ENDCHAR
STARTCHAR 1FDD
ENCODING 8157
SWIDTH 360 0
DWIDTH 6 0
BBX 6 4 0 10
BITMAP
50
C8
48
24
ENDCHAR
STARTCHAR 1FDE
ENCODING 8158
SWIDTH 360 0
DWIDTH 6 0
BBX 6 4 0 10
BITMAP
C4
CC
48
50
ENDCHAR
STARTCHAR 1FDF
ENCODING 8159
SWIDTH 360 0
DWIDTH 6 0
BBX 4 6 1 10
BITMAP
70
90
00
60
60
20
ENDCHAR
STARTCHAR 1FE0
ENCODING 8160
SWIDTH 600 0
DWIDTH 10 0
BBX 8 12 1 0
BITMAP
24
3C
00
C3
C3
C3
C3
C3
C3
C2
46
3C
ENDCHAR
STARTCHAR 1FE1
ENCODING 8161
SWIDTH 600 0
DWIDTH 10 0
BBX 8 12 1 0
BITMAP
7C
00
00
C3
C3
C3
C3
C3
C3
C2
46
3C
ENDCHAR
STARTCHAR 1FE2
ENCODING 8162
SWIDTH 600 0
DWIDTH 10 0
BBX 8 14 1 0
BITMAP
10
52
4A
08
00
C3
C3
C3
C3
C3
C3
C2
46
3C
ENDCHAR
STARTCHAR 1FE3
ENCODING 8163
SWIDTH 600 0
DWIDTH 10 0
BBX 8 14 1 0
BITMAP
08
5A
52
10
00
C3
C3
C3
C3
C3
C3
C2
46
3C
ENDCHAR
STARTCHAR 1FE4
ENCODING 8164
SWIDTH 600 0
DWIDTH 10 0
BBX 8 17 1 -3
BITMAP
08
08
08
10
00
3C
62
C3
C1
C1
C1
C3
C6
FC
C0
C0
C0
ENDCHAR
STARTCHAR 1FE5
ENCODING 8165
SWIDTH 600 0
DWIDTH 10 0
BBX 8 17 1 -3
BITMAP
18
18
10
08
00
3C
62
C3
C1
C1
C1
C3
C6
FC
C0
C0
C0
ENDCHAR
STARTCHAR 1FE6
ENCODING 8166
SWIDTH 600 0
DWIDTH 10 0
BBX 8 12 1 0
BITMAP
38
24
00
C3
C3
C3
C3
C3
C3
C2
46
3C
ENDCHAR
STARTCHAR 1FE7
ENCODING 8167
SWIDTH 600 0
DWIDTH 10 0
BBX 8 15 1 0
BITMAP
38
24
00
64
64
00
C3
C3
C3
C3
C3
C3
C2
46
3C
ENDCHAR
STARTCHAR 1FE8
ENCODING 8168
SWIDTH 600 0
DWIDTH 10 0
BBX 10 15 0 0
BITMAP
1200
1E00
0000
C0C0
6180
2180
3300
1A00
1E00
0C00
0C00
0C00
0C00
0C00
0C00
ENDCHAR
STARTCHAR 1FE9
ENCODING 8169
SWIDTH 600 0
DWIDTH 10 0
BBX 10 15 0 0
BITMAP
1F00
0000
0000
C0C0
6180
2180
3300
1A00
1E00
0C00
0C00
0C00
0C00
0C00
0C00
ENDCHAR
STARTCHAR 1FEA
ENCODING 8170
SWIDTH 780 0
DWIDTH 13 0
BBX 12 12 0 0
BITMAP
9830
D830
4C60
0440
06C0
0380
0380
0100
0100
0100
0100
0100
ENDCHAR
STARTCHAR 1FEB
ENCODING 8171
SWIDTH 780 0
DWIDTH 13 0
BBX 13 12 0 0
BITMAP
4818
CC10
8430
0660
0360
03C0
0180
0180
0180
0180
0180
0180
ENDCHAR
STARTCHAR 1FEC
ENCODING 8172
SWIDTH 660 0
DWIDTH 11 0
BBX 12 13 -1 0
BITMAP
4000
CFC0
4860
2830
0830
0830
0830
0860
0FC0
0800
0800
0800
0800
ENDCHAR
STARTCHAR 1FED
ENCODING 8173
SWIDTH 360 0
DWIDTH 6 0
BBX 6 4 0 10
BITMAP
20
F4
D4
10
ENDCHAR
STARTCHAR 1FEE
ENCODING 8174
SWIDTH 360 0
DWIDTH 6 0
BBX 6 4 0 10
BITMAP
10
D4
F4
20
ENDCHAR
STARTCHAR 1FEF
ENCODING 8175
SWIDTH 360 0
DWIDTH 6 0
BBX 3 3 1 10
BITMAP
80
60
20
ENDCHAR
STARTCHAR 1FF2
ENCODING 8178
SWIDTH 840 0
DWIDTH 14 0
BBX 12 16 1 -3
BITMAP
0800
0600
0200
0000
6060
4030
C630
C610
C610
C610
C630
4730
39E0
0000
0600
0300
ENDCHAR
STARTCHAR 1FF3
ENCODING 8179
SWIDTH 840 0
DWIDTH 14 0
BBX 12 12 1 -3
BITMAP
6060
4030
C630
C610
C610
C610
C630
4730
39E0
0000
0600
0300
ENDCHAR
STARTCHAR 1FF4
ENCODING 8180
SWIDTH 840 0
DWIDTH 14 0
BBX 12 16 1 -3
BITMAP
0100
0700
0400
0000
6060
4030
C630
C610
C610
C610
C630
4730
39E0
0000
0600
0300
ENDCHAR
STARTCHAR 1FF6
ENCODING 8182
SWIDTH 840 0
DWIDTH 14 0
BBX 12 12 1 0
BITMAP
0700
0900
0000
6060
4030
C630
C610
C610
C610
C630
4730
39E0
ENDCHAR
STARTCHAR 1FF7
ENCODING 8183
SWIDTH 840 0
DWIDTH 14 0
BBX 12 15 1 -3
BITMAP
0700
0900
0000
6060
4030
C630
C610
C610
C610
C630
4730
39E0
0000
0600
0300
ENDCHAR
STARTCHAR 1FF8
ENCODING 8184
SWIDTH 900 0
DWIDTH 15 0
BBX 14 12 0 0
BITMAP
83E0
CC30
4818
180C
180C
100C
100C
180C
180C
0818
0C30
03E0
ENDCHAR
STARTCHAR 1FF9
ENCODING 8185
SWIDTH 840 0
DWIDTH 14 0
BBX 13 12 0 0
BITMAP
47C0
CC60
9830
3018
3018
3018
3018
3018
3018
1830
0C60
07C0
ENDCHAR
STARTCHAR 1FFA
ENCODING 8186
SWIDTH 900 0
DWIDTH 15 0
BBX 14 12 0 0
BITMAP
83E0
CC30
4818
1808
180C
180C
180C
180C
1808
0C18
0430
1E3C
ENDCHAR
STARTCHAR 1FFB
ENCODING 8187
SWIDTH 840 0
DWIDTH 14 0
BBX 13 12 0 0
BITMAP
47C0
CC60
9810
3018
3018
3018
3018
3018
1018
1830
0C20
3C78
ENDCHAR
STARTCHAR 1FFC
ENCODING 8188
SWIDTH 1080 0
DWIDTH 18 0
BBX 17 12 1 0
BITMAP
1F0000
30C000
604000
406200
C06200
C06200
C06200
C06200
406200
60C200
308200
F1E380
ENDCHAR
STARTCHAR 1FFD
ENCODING 8189
SWIDTH 360 0
DWIDTH 6 0
BBX 3 3 2 10
BITMAP
20
60
80
ENDCHAR
STARTCHAR 1FFE
ENCODING 8190
SWIDTH 360 0
DWIDTH 6 0
BBX 2 4 2 10
BITMAP
C0
C0
C0
40
ENDCHAR
STARTCHAR 2013
ENCODING 8211
SWIDTH 480 0
DWIDTH 8 0
BBX 8 1 0 4
BITMAP
FF
ENDCHAR
STARTCHAR 2014
ENCODING 8212
SWIDTH 1020 0
DWIDTH 17 0
BBX 17 1 0 4
BITMAP
FFFF80
ENDCHAR
STARTCHAR 2015
ENCODING 8213
SWIDTH 1020 0
DWIDTH 17 0
BBX 17 1 0 4
BITMAP
FFFF80
ENDCHAR
STARTCHAR 2018
ENCODING 8216
SWIDTH 240 0
DWIDTH 4 0
BBX 2 4 1 9
BITMAP
40
C0
C0
C0
ENDCHAR
STARTCHAR 2019
ENCODING 8217
SWIDTH 240 0
DWIDTH 4 0
BBX 2 4 1 9
BITMAP
C0
C0
C0
80
ENDCHAR
STARTCHAR 201A
ENCODING 8218
SWIDTH 240 0
DWIDTH 4 0
BBX 2 4 1 -2
BITMAP
C0
C0
C0
80
ENDCHAR
STARTCHAR 201C
ENCODING 8220
SWIDTH 420 0
DWIDTH 7 0
BBX 5 4 1 9
BITMAP
48
C8
D8
D8
ENDCHAR
STARTCHAR 201D
ENCODING 8221
SWIDTH 420 0
DWIDTH 7 0
BBX 5 4 1 9
BITMAP
D8
D8
D8
90
ENDCHAR
STARTCHAR 201E
ENCODING 8222
SWIDTH 420 0
DWIDTH 7 0
BBX 5 4 1 -2
BITMAP
D8
D8
D8
90
ENDCHAR
STARTCHAR 2020
ENCODING 8224
SWIDTH 480 0
DWIDTH 8 0
BBX 6 14 1 -2
BITMAP
30
30
30
30
FC
30
30
30
30
30
30
30
30
10
ENDCHAR
STARTCHAR 2021
ENCODING 8225
SWIDTH 480 0
DWIDTH 8 0
BBX 6 14 1 -2
BITMAP
30
30
30
30
FC
30
30
30
30
FC
30
30
30
10
ENDCHAR
STARTCHAR 2022
ENCODING 8226
SWIDTH 360 0
DWIDTH 6 0
BBX 4 4 1 4
BITMAP
70
F0
F0
70
ENDCHAR
STARTCHAR 2026
ENCODING 8230
SWIDTH 1020 0
DWIDTH 17 0
BBX 13 2 2 0
BITMAP
C618
C618
ENDCHAR
STARTCHAR 2030
ENCODING 8240
SWIDTH 1260 0
DWIDTH 21 0
BBX 19 12 1 0
BITMAP
704000
C8C000
898000
890000
CB0000
720000
06F1C0
049260
0D9A20
099A20
189260
30F1C0
ENDCHAR
STARTCHAR 2039
ENCODING 8249
SWIDTH 300 0
DWIDTH 5 0
BBX 3 7 1 1
BITMAP
20
60
C0
80
C0
60
20
ENDCHAR
STARTCHAR 203A
ENCODING 8250
SWIDTH 300 0
DWIDTH 5 0
BBX 3 7 1 1
BITMAP
80
C0
60
20
60
C0
80
ENDCHAR
STARTCHAR 2044
ENCODING 8260
SWIDTH 180 0
DWIDTH 3 0
BBX 8 12 -3 0
BITMAP
01
02
06
04
0C
08
18
10
30
20
40
C0
ENDCHAR
STARTCHAR 2070
ENCODING 8304
SWIDTH 360 0
DWIDTH 6 0
BBX 6 7 0 5
BITMAP
38
48
4C
CC
4C
48
38
ENDCHAR
STARTCHAR 2074
ENCODING 8308
SWIDTH 360 0
DWIDTH 6 0
BBX 6 7 0 5
BITMAP
18
28
28
48
FC
08
08
ENDCHAR
STARTCHAR 2075
ENCODING 8309
SWIDTH 360 0
DWIDTH 6 0
BBX 4 7 1 5
BITMAP
F0
80
80
F0
10
10
F0
ENDCHAR
STARTCHAR 2076
ENCODING 8310
SWIDTH 360 0
DWIDTH 6 0
BBX 5 7 1 5
BITMAP
30
C0
80
F0
98
98
70
ENDCHAR
STARTCHAR 2077
ENCODING 8311
SWIDTH 360 0
DWIDTH 6 0
BBX 4 7 1 5
BITMAP
F0
10
20
20
40
40
40
ENDCHAR
STARTCHAR 2078
ENCODING 8312
SWIDTH 360 0
DWIDTH 6 0
BBX 4 7 1 5
BITMAP
F0
90
90
70
90
90
F0
ENDCHAR
STARTCHAR 2079
ENCODING 8313
SWIDTH 360 0
DWIDTH 6 0
BBX 4 7 1 5
BITMAP
F0
90
90
F0
10
30
C0
ENDCHAR
STARTCHAR 2080
ENCODING 8320
SWIDTH 360 0
DWIDTH 6 0
BBX 6 7 0 0
BITMAP
38
48
4C
CC
4C
48
38
ENDCHAR
STARTCHAR 2081
ENCODING 8321
SWIDTH 360 0
DWIDTH 6 0
BBX 3 7 1 0
BITMAP
60
A0
20
20
20
20
20
ENDCHAR
STARTCHAR 2082
ENCODING 8322
SWIDTH 360 0
DWIDTH 6 0
BBX 4 7 1 0
BITMAP
E0
10
10
20
40
80
F0
ENDCHAR
STARTCHAR 2083
ENCODING 8323
SWIDTH 360 0
DWIDTH 6 0
BBX 4 7 1 0
BITMAP
E0
10
10
60
10
10
F0
ENDCHAR
STARTCHAR 2084
ENCODING 8324
SWIDTH 360 0
DWIDTH 6 0
BBX 6 7 0 0
BITMAP
18
28
28
48
FC
08
08
ENDCHAR
STARTCHAR 2085
ENCODING 8325
SWIDTH 360 0
DWIDTH 6 0
BBX 4 7 1 0
BITMAP
F0
80
80
F0
10
10
F0
ENDCHAR
STARTCHAR 2086
ENCODING 8326
SWIDTH 360 0
DWIDTH 6 0
BBX 5 7 1 0
BITMAP
30
C0
80
F0
98
98
70
ENDCHAR
STARTCHAR 2087
ENCODING 8327
SWIDTH 360 0
DWIDTH 6 0
BBX 4 7 1 0
BITMAP
F0
10
20
20
40
40
40
ENDCHAR
STARTCHAR 2088
ENCODING 8328
SWIDTH 360 0
DWIDTH 6 0
BBX 4 7 1 0
BITMAP
F0
90
90
70
90
90
F0
ENDCHAR
STARTCHAR 2089
ENCODING 8329
SWIDTH 360 0
DWIDTH 6 0
BBX 4 7 1 0
BITMAP
F0
90
90
F0
10
30
C0
ENDCHAR
STARTCHAR 20AC
ENCODING 8364
SWIDTH 600 0
DWIDTH 10 0
BBX 8 12 1 0
BITMAP
0F
31
20
60
FE
60
60
FC
60
20
31
1F
ENDCHAR
STARTCHAR 20AE
ENCODING 8366
SWIDTH 600 0
DWIDTH 10 0
BBX 8 12 1 0
BITMAP
FF
18
18
1A
1C
78
1A
1C
78
18
18
18
ENDCHAR
STARTCHAR 20B4
ENCODING 8372
SWIDTH 600 0
DWIDTH 10 0
BBX 8 12 1 0
BITMAP
7C
06
02
02
FF
1C
30
FF
C0
C0
40
3E
ENDCHAR
STARTCHAR 20B9
ENCODING 8377
SWIDTH 600 0
DWIDTH 10 0
BBX 8 12 1 0
BITMAP
FF
0C
06
FF
04
0C
F0
60
30
30
18
0C
ENDCHAR
STARTCHAR 2113
ENCODING 8467
SWIDTH 480 0
DWIDTH 8 0
BBX 6 13 1 0
BITMAP
38
64
44
44
4C
48
50
70
40
C0
40
60
3C
ENDCHAR
STARTCHAR 2116
ENCODING 8470
SWIDTH 1140 0
DWIDTH 19 0
BBX 17 12 1 0
BITMAP
C0CF00
E0D980
F0D080
D0D080
D8D980
CCCF00
C4C000
C6C000
C2DF80
C1C000
C1C000
C0C000
ENDCHAR
STARTCHAR 2122
ENCODING 8482
SWIDTH 780 0
DWIDTH 13 0
BBX 12 6 0 6
BITMAP
FA30
2330
2350
2350
2690
2610
ENDCHAR
STARTCHAR 2126
ENCODING 8486
SWIDTH 780 0
DWIDTH 13 0
BBX 11 12 1 0
BITMAP
1F00
30C0
6040
4060
C060
C060
C060
C060
4060
60C0
3080
F1E0
ENDCHAR
STARTCHAR 212E
ENCODING 8494
SWIDTH 960 0
DWIDTH 16 0
BBX 14 13 1 0
BITMAP
0FC0
3020
6010
6018
E018
E01C
FFFC
E000
E000
6000
2010
1860
0F80
ENDCHAR
STARTCHAR 2153
ENCODING 8531
SWIDTH 900 0
DWIDTH 15 0
BBX 13 12 1 0
BITMAP
60C0
A080
2180
2100
2300
2270
2418
0C18
0830
1808
1008
30F0
ENDCHAR
STARTCHAR 2154
ENCODING 8532
SWIDTH 900 0
DWIDTH 15 0
BBX 13 12 1 0
BITMAP
E040
10C0
1080
2180
4300
8270
F618
0418
0C30
0808
1808
10F0
ENDCHAR
STARTCHAR 2155
ENCODING 8533
SWIDTH 900 0
DWIDTH 15 0
BBX 13 12 1 0
BITMAP
60C0
A080
2180
2100
2300
2278
2440
0C40
0870
1808
1008
30F0
ENDCHAR
STARTCHAR 2156
ENCODING 8534
SWIDTH 900 0
DWIDTH 15 0
BBX 13 12 1 0
BITMAP
E040
10C0
1080
2180
4100
8378
F240
0640
0470
0808
1808
10F0
ENDCHAR
STARTCHAR 2157
ENCODING 8535
SWIDTH 900 0
DWIDTH 15 0
BBX 13 12 1 0
BITMAP
E040
10C0
1080
6180
1300
1278
F640
0440
0C70
0808
1808
10F0
ENDCHAR
STARTCHAR 2158
ENCODING 8536
SWIDTH 900 0
DWIDTH 15 0
BBX 14 12 0 0
BITMAP
1820
2860
2840
48C0
FC80
09BC
0920
0220
0638
0404
0C04
0878
ENDCHAR
STARTCHAR 2159
ENCODING 8537
SWIDTH 900 0
DWIDTH 15 0
BBX 13 12 1 0
BITMAP
6040
A0C0
2080
2180
2300
2238
2660
0440
0CF8
08C8
1848
1078
ENDCHAR
STARTCHAR 215A
ENCODING 8538
SWIDTH 900 0
DWIDTH 15 0
BBX 13 12 1 0
BITMAP
F040
80C0
8080
F180
1100
1338
F260
0440
0CF8
08C8
1848
1078
ENDCHAR
STARTCHAR 215B
ENCODING 8539
SWIDTH 900 0
DWIDTH 15 0
BBX 13 12 1 0
BITMAP
60C0
A080
2180
2100
2300
2270
2448
0C48
0870
18C8
10C8
3078
ENDCHAR
STARTCHAR 215C
ENCODING 8540
SWIDTH 900 0
DWIDTH 15 0
BBX 13 12 1 0
BITMAP
E040
10C0
1080
6180
1300
1270
F648
0448
0C70
08C8
18C8
1078
ENDCHAR
STARTCHAR 215D
ENCODING 8541
SWIDTH 900 0
DWIDTH 15 0
BBX 13 12 1 0
BITMAP
F040
80C0
8080
F180
1300
1270
F648
0448
0C70
08C8
18C8
1078
ENDCHAR
STARTCHAR 215E
ENCODING 8542
SWIDTH 900 0
DWIDTH 15 0
BBX 13 12 1 0
BITMAP
F080
1180
2100
2300
4200
4670
4448
0C48
0870
10C8
30C8
2078
ENDCHAR
STARTCHAR 2202
ENCODING 8706
SWIDTH 600 0
DWIDTH 10 0
BBX 8 13 1 0
BITMAP
78
06
02
03
03
3F
43
C3
83
83
82
C6
78
ENDCHAR
STARTCHAR 2206
ENCODING 8710
SWIDTH 660 0
DWIDTH 11 0
BBX 11 12 0 0
BITMAP
0600
0A00
0A00
1B00
1100
3180
3180
2080
60C0
60C0
4040
FFE0
ENDCHAR
STARTCHAR 220F
ENCODING 8719
SWIDTH 720 0
DWIDTH 12 0
BBX 9 13 1 -2
BITMAP
FF80
C080
C080
C080
C080
C080
C080
C080
C080
C080
C080
C080
C080
ENDCHAR
STARTCHAR 2211
ENCODING 8721
SWIDTH 540 0
DWIDTH 9 0
BBX 8 14 0 -2
BITMAP
FF
60
20
30
18
08
0C
08
18
30
30
60
40
FF
ENDCHAR
STARTCHAR 2212
ENCODING 8722
SWIDTH 600 0
DWIDTH 10 0
BBX 8 1 1 4
BITMAP
FF
ENDCHAR
STARTCHAR 2215
ENCODING 8725
SWIDTH 180 0
DWIDTH 3 0
BBX 8 12 -3 0
BITMAP
01
02
06
04
0C
08
18
10
30
20
40
C0
ENDCHAR
STARTCHAR 2219
ENCODING 8729
SWIDTH 240 0
DWIDTH 4 0
BBX 2 2 1 4
BITMAP
C0
C0
ENDCHAR
STARTCHAR 221A
ENCODING 8730
SWIDTH 600 0
DWIDTH 10 0
BBX 10 13 0 0
BITMAP
00C0
0080
0080
0180
0100
0100
2300
F200
1200
1A00
1E00
0C00
0C00
ENDCHAR
STARTCHAR 221E
ENCODING 8734
SWIDTH 600 0
DWIDTH 10 0
BBX 8 5 1 2
BITMAP
E7
99
99
99
E7
ENDCHAR
STARTCHAR 222B
ENCODING 8747
SWIDTH 360 0
DWIDTH 6 0
BBX 6 16 0 -3
BITMAP
0C
10
30
30
30
30
30
30
30
30
30
30
30
30
20
E0
ENDCHAR
STARTCHAR 2248
ENCODING 8776
SWIDTH 600 0
DWIDTH 10 0
BBX 8 6 1 2
BITMAP
F1
8E
00
00
F1
8E
ENDCHAR
STARTCHAR 2260
ENCODING 8800
SWIDTH 600 0
DWIDTH 10 0
BBX 8 8 1 1
BITMAP
04
04
FF
18
10
FF
20
40
ENDCHAR
STARTCHAR 2264
ENCODING 8804
SWIDTH 600 0
DWIDTH 10 0
BBX 8 9 1 0
BITMAP
03
0C
30
C0
30
0C
03
00
FF
ENDCHAR
STARTCHAR 2265
ENCODING 8805
SWIDTH 600 0
DWIDTH 10 0
BBX 8 9 1 0
BITMAP
80
70
0C
03
0C
70
80
00
FF
ENDCHAR
STARTCHAR 25CA
ENCODING 9674
SWIDTH 540 0
DWIDTH 9 0
BBX 8 13 1 0
BITMAP
10
18
28
44
46
C2
83
C2
46
44
28
18
10
ENDCHAR
STARTCHAR E0FF
ENCODING 57599
SWIDTH 780 0
DWIDTH 13 0
BBX 12 12 1 0
BITMAP
1F00
3FC0
7E60
E9E0
CE70
BFF0
BF70
CE70
E9E0
7E60
3FC0
1F00
ENDCHAR
STARTCHAR EFFD
ENCODING 61437
SWIDTH 1740 0
DWIDTH 29 0
BBX 28 7 0 0
BITMAP
380E78E0
481309B0
4C120910
CC0E3910
4C130D10
49930DB0
398E78E0
ENDCHAR
STARTCHAR F000
ENCODING 61440
SWIDTH 1020 0
DWIDTH 17 0
BBX 13 12 2 0
BITMAP
F8F8
0000
0408
0408
0408
0000
F8F8
0000
0408
0408
0000
F8F8
ENDCHAR
STARTCHAR F001
ENCODING 61441
SWIDTH 660 0
DWIDTH 11 0
BBX 9 13 1 0
BITMAP
3980
6180
C000
C000
F980
C180
C180
C180
C180
C180
C180
C180
C180
ENDCHAR
STARTCHAR F002
ENCODING 61442
SWIDTH 660 0
DWIDTH 11 0
BBX 10 13 1 0
BITMAP
3980
6180
C180
C180
F980
C180
C180
C180
C180
C180
C180
C180
C0C0
ENDCHAR
STARTCHAR F0FF
ENCODING 61695
SWIDTH 480 0
DWIDTH 8 0
BBX 7 7 0 6
BITMAP
3C
7E
DA
BE
DA
7E
3C
ENDCHAR
STARTCHAR F200
ENCODING 61952
SWIDTH 3600 0
DWIDTH 60 0
BBX 59 13 0 0
BITMAP
0020000000000380
0020000006000EC0
0020000006000D60
0020000006000FE0
C33F184FC7D86D60
C331984C66186EC0
C320984C26186380
C320984C26186000
C320D84C26186000
C320984C26086000
4321984C26086000
6321884C220C6000
3F3E0FCC23E7E000
ENDCHAR
STARTCHAR F506
ENCODING 62726
SWIDTH 900 0
DWIDTH 15 0
BBX 13 12 1 0
BITMAP
60C0
A080
2180
2100
2200
26F8
2418
0C10
0830
1820
1020
3060
ENDCHAR
STARTCHAR F507
ENCODING 62727
SWIDTH 900 0
DWIDTH 15 0
BBX 13 12 1 0
BITMAP
E040
10C0
1080
2180
4300
82F8
F618
0410
0C30
0820
1820
1060
ENDCHAR
STARTCHAR F508
ENCODING 62728
SWIDTH 900 0
DWIDTH 15 0
BBX 13 12 1 0
BITMAP
E040
1080
1180
6100
1300
12F8
F618
0410
0C30
0820
1820
3060
ENDCHAR
STARTCHAR F509
ENCODING 62729
SWIDTH 900 0
DWIDTH 15 0
BBX 14 12 0 0
BITMAP
1820
2840
28C0
4880
FD80
097C
0B0C
0208
0618
0410
0C10
1830
ENDCHAR
STARTCHAR F50A
ENCODING 62730
SWIDTH 900 0
DWIDTH 15 0
BBX 13 12 1 0
BITMAP
F040
8080
8180
F100
1300
12F8
F618
0410
0C30
0820
1820
3060
ENDCHAR
STARTCHAR F50B
ENCODING 62731
SWIDTH 900 0
DWIDTH 15 0
BBX 13 12 1 0
BITMAP
3040
C080
8180
F100
9B00
9AF8
7618
0410
0C30
0820
1820
3060
ENDCHAR
STARTCHAR F50C
ENCODING 62732
SWIDTH 900 0
DWIDTH 15 0
BBX 13 12 1 0
BITMAP
60C0
A080
2180
2100
2300
2270
24C8
0CC8
0878
1808
1010
3060
ENDCHAR
STARTCHAR F50D
ENCODING 62733
SWIDTH 900 0
DWIDTH 15 0
BBX 13 12 1 0
BITMAP
E040
10C0
1080
2180
4100
8370
F2C8
04C8
0C78
0808
1810
1060
ENDCHAR
STARTCHAR F50E
ENCODING 62734
SWIDTH 900 0
DWIDTH 15 0
BBX 14 12 0 0
BITMAP
1820
2860
2840
48C0
FC80
09B8
0964
0264
063C
0404
0C08
0830
ENDCHAR
STARTCHAR F50F
ENCODING 62735
SWIDTH 900 0
DWIDTH 15 0
BBX 13 12 1 0
BITMAP
F040
80C0
8080
F180
1300
1270
F6C8
04C8
0C78
0808
1810
1060
ENDCHAR
STARTCHAR F510
ENCODING 62736
SWIDTH 900 0
DWIDTH 15 0
BBX 13 12 1 0
BITMAP
F080
1180
2100
2300
4200
4670
44C8
0CC8
0878
1008
3010
2060
ENDCHAR
STARTCHAR F511
ENCODING 62737
SWIDTH 900 0
DWIDTH 15 0
BBX 13 12 1 0
BITMAP
F040
90C0
9080
7180
9300
9270
F6C8
04C8
0C78
0808
1810
1060
ENDCHAR
STARTCHAR F800
ENCODING 63488
SWIDTH 600 0
DWIDTH 10 0
BBX 8 12 1 0
BITMAP
3C
66
C2
C2
C3
C3
C3
C3
C2
C2
66
3C
ENDCHAR
STARTCHAR F801
ENCODING 63489
SWIDTH 360 0
DWIDTH 6 0
BBX 5 12 0 0
BITMAP
18
18
78
D8
18
18
18
18
18
18
18
18
ENDCHAR
STARTCHAR F802
ENCODING 63490
SWIDTH 480 0
DWIDTH 8 0
BBX 7 12 1 0
BITMAP
70
8C
04
04
04
0C
18
30
60
C0
80
FE
ENDCHAR
STARTCHAR F803
ENCODING 63491
SWIDTH 540 0
DWIDTH 9 0
BBX 7 12 1 0
BITMAP
F8
8C
04
04
0C
30
0C
06
06
06
0C
F8
ENDCHAR
STARTCHAR F804
ENCODING 63492
SWIDTH 540 0
DWIDTH 9 0
BBX 9 12 0 0
BITMAP
0600
0E00
0A00
1200
3200
2200
6200
4200
FF80
0200
0200
0200
ENDCHAR
STARTCHAR F805
ENCODING 63493
SWIDTH 480 0
DWIDTH 8 0
BBX 7 12 1 0
BITMAP
7C
40
C0
C0
C0
F8
0C
06
06
06
0C
F8
ENDCHAR
STARTCHAR F806
ENCODING 63494
SWIDTH 540 0
DWIDTH 9 0
BBX 8 12 1 0
BITMAP
0E
30
60
40
C0
FC
C6
C2
C3
C2
46
3C
ENDCHAR
STARTCHAR F807
ENCODING 63495
SWIDTH 480 0
DWIDTH 8 0
BBX 8 12 0 0
BITMAP
FF
02
06
0C
0C
08
18
18
10
30
30
30
ENDCHAR
STARTCHAR F808
ENCODING 63496
SWIDTH 540 0
DWIDTH 9 0
BBX 8 12 1 0
BITMAP
3C
46
C2
C2
46
3C
46
C2
83
C2
C6
7C
ENDCHAR
STARTCHAR F809
ENCODING 63497
SWIDTH 540 0
DWIDTH 9 0
BBX 7 12 1 0
BITMAP
3C
C6
C2
82
C2
C2
7E
06
06
0C
18
70
ENDCHAR
STARTCHAR F80A
ENCODING 63498
SWIDTH 360 0
DWIDTH 6 0
BBX 6 7 0 7
BITMAP
38
48
4C
CC
4C
48
38
ENDCHAR
STARTCHAR F80B
ENCODING 63499
SWIDTH 360 0
DWIDTH 6 0
BBX 3 7 1 7
BITMAP
60
A0
20
20
20
20
20
ENDCHAR
STARTCHAR F80C
ENCODING 63500
SWIDTH 360 0
DWIDTH 6 0
BBX 4 7 1 7
BITMAP
E0
10
10
20
40
80
F0
ENDCHAR
STARTCHAR F80D
ENCODING 63501
SWIDTH 360 0
DWIDTH 6 0
BBX 4 7 1 7
BITMAP
E0
10
10
60
10
10
F0
ENDCHAR
STARTCHAR F80E
ENCODING 63502
SWIDTH 360 0
DWIDTH 6 0
BBX 6 7 0 7
BITMAP
18
28
28
48
FC
08
08
ENDCHAR
STARTCHAR F80F
ENCODING 63503
SWIDTH 360 0
DWIDTH 6 0
BBX 4 7 1 7
BITMAP
F0
80
80
F0
10
10
F0
ENDCHAR
STARTCHAR F810
ENCODING 63504
SWIDTH 360 0
DWIDTH 6 0
BBX 5 7 1 7
BITMAP
30
C0
80
F0
98
98
70
ENDCHAR
STARTCHAR F811
ENCODING 63505
SWIDTH 360 0
DWIDTH 6 0
BBX 4 7 1 7
BITMAP
F0
10
20
20
40
40
40
ENDCHAR
STARTCHAR F812
ENCODING 63506
SWIDTH 360 0
DWIDTH 6 0
BBX 4 7 1 7
BITMAP
F0
90
90
70
90
90
F0
ENDCHAR
STARTCHAR F813
ENCODING 63507
SWIDTH 360 0
DWIDTH 6 0
BBX 4 7 1 7
BITMAP
F0
90
90
F0
10
30
C0
ENDCHAR
STARTCHAR F814
ENCODING 63508
SWIDTH 360 0
DWIDTH 6 0
BBX 6 7 0 -2
BITMAP
38
48
4C
CC
4C
48
38
ENDCHAR
STARTCHAR F815
ENCODING 63509
SWIDTH 360 0
DWIDTH 6 0
BBX 3 7 1 -2
BITMAP
60
A0
20
20
20
20
20
ENDCHAR
STARTCHAR F816
ENCODING 63510
SWIDTH 360 0
DWIDTH 6 0
BBX 4 7 1 -2
BITMAP
E0
10
10
20
40
80
F0
ENDCHAR
STARTCHAR F817
ENCODING 63511
SWIDTH 360 0
DWIDTH 6 0
BBX 4 7 1 -2
BITMAP
E0
10
10
60
10
10
F0
ENDCHAR
STARTCHAR F818
ENCODING 63512
SWIDTH 360 0
DWIDTH 6 0
BBX 6 7 0 -2
BITMAP
18
28
28
48
FC
08
08
ENDCHAR
STARTCHAR F819
ENCODING 63513
SWIDTH 360 0
DWIDTH 6 0
BBX 4 7 1 -2
BITMAP
F0
80
80
F0
10
10
F0
ENDCHAR
STARTCHAR F81A
ENCODING 63514
SWIDTH 360 0
DWIDTH 6 0
BBX 5 7 1 -2
BITMAP
30
C0
80
F0
98
98
70
ENDCHAR
STARTCHAR F81B
ENCODING 63515
SWIDTH 360 0
DWIDTH 6 0
BBX 4 7 1 -2
BITMAP
F0
10
20
20
40
40
40
ENDCHAR
STARTCHAR F81C
ENCODING 63516
SWIDTH 360 0
DWIDTH 6 0
BBX 4 7 1 -2
BITMAP
F0
90
90
70
90
90
F0
ENDCHAR
STARTCHAR F81D
ENCODING 63517
SWIDTH 360 0
DWIDTH 6 0
BBX 4 7 1 -2
BITMAP
F0
90
90
F0
10
30
C0
ENDCHAR
STARTCHAR FB00
ENCODING 64256
SWIDTH 780 0
DWIDTH 13 0
BBX 12 13 1 0
BITMAP
3C70
6180
C180
C180
F9F0
C180
C180
C180
C180
C180
C180
C180
C180
ENDCHAR
STARTCHAR FB01
ENCODING 64257
SWIDTH 660 0
DWIDTH 11 0
BBX 9 13 1 0
BITMAP
3980
6180
C000
C000
F980
C180
C180
C180
C180
C180
C180
C180
C180
ENDCHAR
STARTCHAR FB02
ENCODING 64258
SWIDTH 660 0
DWIDTH 11 0
BBX 10 13 1 0
BITMAP
3980
6180
C180
C180
F980
C180
C180
C180
C180
C180
C180
C180
C0C0
ENDCHAR
STARTCHAR FB03
ENCODING 64259
SWIDTH 1080 0
DWIDTH 18 0
BBX 15 13 1 0
BITMAP
3C76
6186
C180
C180
F9F2
C182
C182
C182
C182
C182
C182
C182
C182
ENDCHAR
STARTCHAR FB04
ENCODING 64260
SWIDTH 1080 0
DWIDTH 18 0
BBX 16 13 1 0
BITMAP
3C72
6182
C182
C182
F9F2
C182
C182
C182
C182
C182
C182
C182
C183
ENDCHAR
ENDFONT
